<svg xmlns="http://www.w3.org/2000/svg" xmlns:xlink="http://www.w3.org/1999/xlink" width="380" zoomAndPan="magnify" viewBox="0 0 285 352.49999" height="470" preserveAspectRatio="xMidYMid meet" version="1.0"><defs><filter x="0%" y="0%" width="100%" height="100%" id="fa28a6a20d"><feColorMatrix values="0 0 0 0 1 0 0 0 0 1 0 0 0 0 1 0 0 0 1 0" color-interpolation-filters="sRGB"/></filter><filter x="0%" y="0%" width="100%" height="100%" id="31d702b2c9"><feColorMatrix values="0 0 0 0 1 0 0 0 0 1 0 0 0 0 1 0.2126 0.7152 0.0722 0 0" color-interpolation-filters="sRGB"/></filter><g/><clipPath id="b4048f5d57"><path d="M 0.203125 0 L 284.796875 0 L 284.796875 352 L 0.203125 352 Z M 0.203125 0 " clip-rule="nonzero"/></clipPath><clipPath id="152f25cfe8"><path d="M 64.539062 34.601562 L 224.5 34.601562 L 224.5 194.5625 L 64.539062 194.5625 Z M 64.539062 34.601562 " clip-rule="nonzero"/></clipPath><clipPath id="444c20656a"><path d="M 144.519531 34.601562 C 100.347656 34.601562 64.539062 70.410156 64.539062 114.582031 C 64.539062 158.753906 100.347656 194.5625 144.519531 194.5625 C 188.691406 194.5625 224.5 158.753906 224.5 114.582031 C 224.5 70.410156 188.691406 34.601562 144.519531 34.601562 Z M 144.519531 34.601562 " clip-rule="nonzero"/></clipPath><clipPath id="7cae131184"><path d="M 0.539062 0.601562 L 160.5 0.601562 L 160.5 160.5625 L 0.539062 160.5625 Z M 0.539062 0.601562 " clip-rule="nonzero"/></clipPath><clipPath id="b3a410aac6"><path d="M 80.519531 0.601562 C 36.347656 0.601562 0.539062 36.410156 0.539062 80.582031 C 0.539062 124.753906 36.347656 160.5625 80.519531 160.5625 C 124.691406 160.5625 160.5 124.753906 160.5 80.582031 C 160.5 36.410156 124.691406 0.601562 80.519531 0.601562 Z M 80.519531 0.601562 " clip-rule="nonzero"/></clipPath><clipPath id="8d33de98d7"><rect x="0" width="161" y="0" height="161"/></clipPath><clipPath id="1c6574a247"><path d="M 163.523438 0 L 247.089844 0 L 247.089844 83.5625 L 163.523438 83.5625 Z M 163.523438 0 " clip-rule="nonzero"/></clipPath><clipPath id="1fcf4b27e2"><path d="M 205.308594 0 C 182.230469 0 163.523438 18.707031 163.523438 41.78125 C 163.523438 64.859375 182.230469 83.5625 205.308594 83.5625 C 228.382812 83.5625 247.089844 64.859375 247.089844 41.78125 C 247.089844 18.707031 228.382812 0 205.308594 0 Z M 205.308594 0 " clip-rule="nonzero"/></clipPath><clipPath id="e347bb6fd4"><path d="M 0.523438 0 L 84.089844 0 L 84.089844 83.5625 L 0.523438 83.5625 Z M 0.523438 0 " clip-rule="nonzero"/></clipPath><clipPath id="affedd5934"><path d="M 42.308594 0 C 19.230469 0 0.523438 18.707031 0.523438 41.78125 C 0.523438 64.859375 19.230469 83.5625 42.308594 83.5625 C 65.382812 83.5625 84.089844 64.859375 84.089844 41.78125 C 84.089844 18.707031 65.382812 0 42.308594 0 Z M 42.308594 0 " clip-rule="nonzero"/></clipPath><clipPath id="0e7089b95f"><rect x="0" width="85" y="0" height="84"/></clipPath><clipPath id="8b0ba7d207"><path d="M 97.867188 66.246094 L 191.484375 66.246094 L 191.484375 159.863281 L 97.867188 159.863281 Z M 97.867188 66.246094 " clip-rule="nonzero"/></clipPath><clipPath id="449f9beb6a"><path d="M 148.6875 124.359375 L 201.136719 124.359375 L 201.136719 176.808594 L 148.6875 176.808594 Z M 148.6875 124.359375 " clip-rule="nonzero"/></clipPath><clipPath id="1f72762b6f"><path d="M 174.910156 124.359375 C 160.425781 124.359375 148.6875 136.097656 148.6875 150.582031 C 148.6875 165.066406 160.425781 176.808594 174.910156 176.808594 C 189.394531 176.808594 201.136719 165.066406 201.136719 150.582031 C 201.136719 136.097656 189.394531 124.359375 174.910156 124.359375 Z M 174.910156 124.359375 " clip-rule="nonzero"/></clipPath><clipPath id="6547451a7d"><path d="M 0.6875 0.359375 L 53.136719 0.359375 L 53.136719 52.808594 L 0.6875 52.808594 Z M 0.6875 0.359375 " clip-rule="nonzero"/></clipPath><clipPath id="29f7acf0be"><path d="M 26.910156 0.359375 C 12.425781 0.359375 0.6875 12.097656 0.6875 26.582031 C 0.6875 41.066406 12.425781 52.808594 26.910156 52.808594 C 41.394531 52.808594 53.136719 41.066406 53.136719 26.582031 C 53.136719 12.097656 41.394531 0.359375 26.910156 0.359375 Z M 26.910156 0.359375 " clip-rule="nonzero"/></clipPath><clipPath id="e603109958"><rect x="0" width="54" y="0" height="53"/></clipPath><clipPath id="52a0c0180b"><path d="M 154 133.25 L 190.976562 133.25 L 190.976562 170.699219 L 154 170.699219 Z M 154 133.25 " clip-rule="nonzero"/></clipPath><mask id="c38d483f34"><g filter="url(#fa28a6a20d)"><g filter="url(#31d702b2c9)" transform="matrix(0.0312057, 0, 0, 0.0312057, 153.531582, 133.251477)"><image x="0" y="0" width="1200" xlink:href="/images/maatregelen/_gedeeld/stap-badge-5-1b7384a915.png" height="1200" preserveAspectRatio="xMidYMid meet"/></g></g></mask><clipPath id="e67b469a36"><path d="M 56.835938 172.140625 L 226.441406 172.140625 L 226.441406 222.648438 L 56.835938 222.648438 Z M 56.835938 172.140625 " clip-rule="nonzero"/></clipPath><clipPath id="b0ffdd4f5e"><path d="M 0.835938 0.140625 L 170.441406 0.140625 L 170.441406 50.648438 L 0.835938 50.648438 Z M 0.835938 0.140625 " clip-rule="nonzero"/></clipPath><clipPath id="f965b94324"><rect x="0" width="171" y="0" height="51"/></clipPath><clipPath id="39d4ddcc19"><path d="M 0.203125 172.140625 L 284.300781 172.140625 L 284.300781 222.648438 L 0.203125 222.648438 Z M 0.203125 172.140625 " clip-rule="nonzero"/></clipPath><clipPath id="5cf1504ec4"><path d="M 13.683594 172.140625 L 270.722656 172.140625 C 278.167969 172.140625 284.203125 178.175781 284.203125 185.621094 L 284.203125 209.167969 C 284.203125 216.613281 278.167969 222.648438 270.722656 222.648438 L 13.683594 222.648438 C 6.238281 222.648438 0.203125 216.613281 0.203125 209.167969 L 0.203125 185.621094 C 0.203125 178.175781 6.238281 172.140625 13.683594 172.140625 Z M 13.683594 172.140625 " clip-rule="nonzero"/></clipPath><clipPath id="153defb7c8"><path d="M 0.203125 0.140625 L 284.300781 0.140625 L 284.300781 50.648438 L 0.203125 50.648438 Z M 0.203125 0.140625 " clip-rule="nonzero"/></clipPath><clipPath id="4667891adb"><path d="M 13.683594 0.140625 L 270.722656 0.140625 C 278.167969 0.140625 284.203125 6.175781 284.203125 13.621094 L 284.203125 37.167969 C 284.203125 44.613281 278.167969 50.648438 270.722656 50.648438 L 13.683594 50.648438 C 6.238281 50.648438 0.203125 44.613281 0.203125 37.167969 L 0.203125 13.621094 C 0.203125 6.175781 6.238281 0.140625 13.683594 0.140625 Z M 13.683594 0.140625 " clip-rule="nonzero"/></clipPath><clipPath id="6824a1974f"><rect x="0" width="285" y="0" height="51"/></clipPath><clipPath id="2539d6d9ee"><path d="M 0.203125 229.355469 L 284.21875 229.355469 L 284.21875 351.761719 L 0.203125 351.761719 Z M 0.203125 229.355469 " clip-rule="nonzero"/></clipPath><clipPath id="71b58af9bc"><path d="M 13.683594 229.355469 L 270.722656 229.355469 C 278.167969 229.355469 284.203125 235.390625 284.203125 242.835938 L 284.203125 338.28125 C 284.203125 345.726562 278.167969 351.761719 270.722656 351.761719 L 13.683594 351.761719 C 6.238281 351.761719 0.203125 345.726562 0.203125 338.28125 L 0.203125 242.835938 C 0.203125 235.390625 6.238281 229.355469 13.683594 229.355469 Z M 13.683594 229.355469 " clip-rule="nonzero"/></clipPath><mask id="c637f7d44d"><g filter="url(#fa28a6a20d)"><rect x="-28.5" width="342" fill="#000000" y="-35.249999" height="422.999987" fill-opacity="0.59"/></g></mask><clipPath id="0ff7d6f518"><path d="M 0.203125 0.355469 L 284.21875 0.355469 L 284.21875 122.761719 L 0.203125 122.761719 Z M 0.203125 0.355469 " clip-rule="nonzero"/></clipPath><clipPath id="2023eeb514"><path d="M 13.683594 0.355469 L 270.722656 0.355469 C 278.167969 0.355469 284.203125 6.390625 284.203125 13.835938 L 284.203125 109.28125 C 284.203125 116.726562 278.167969 122.761719 270.722656 122.761719 L 13.683594 122.761719 C 6.238281 122.761719 0.203125 116.726562 0.203125 109.28125 L 0.203125 13.835938 C 0.203125 6.390625 6.238281 0.355469 13.683594 0.355469 Z M 13.683594 0.355469 " clip-rule="nonzero"/></clipPath><clipPath id="85c221e236"><rect x="0" width="285" y="0" height="123"/></clipPath></defs><g clip-path="url(#b4048f5d57)"><path fill="#ffffff" d="M 0.203125 0 L 284.796875 0 L 284.796875 352 L 0.203125 352 Z M 0.203125 0 " fill-opacity="1" fill-rule="nonzero"/></g><g clip-path="url(#152f25cfe8)"><g clip-path="url(#444c20656a)"><g transform="matrix(1, 0, 0, 1, 64, 34)"><g clip-path="url(#8d33de98d7)"><g clip-path="url(#7cae131184)"><g clip-path="url(#b3a410aac6)"><path fill="#0d4a3f" d="M 0.539062 0.601562 L 160.5 0.601562 L 160.5 160.5625 L 0.539062 160.5625 Z M 0.539062 0.601562 " fill-opacity="1" fill-rule="nonzero"/></g></g></g></g></g></g><g clip-path="url(#1c6574a247)"><g clip-path="url(#1fcf4b27e2)"><g transform="matrix(1, 0, 0, 1, 163, 0)"><g clip-path="url(#0e7089b95f)"><g clip-path="url(#e347bb6fd4)"><g clip-path="url(#affedd5934)"><path fill="#00a77a" d="M 0.523438 0 L 84.089844 0 L 84.089844 83.5625 L 0.523438 83.5625 Z M 0.523438 0 " fill-opacity="1" fill-rule="nonzero"/></g></g></g></g></g></g><g fill="#ffffff" fill-opacity="1"><g transform="translate(195.752459, 51.676696)"><g><path d="M 11.265625 -13.15625 C 12.597656 -13.15625 13.8125 -12.882812 14.90625 -12.34375 C 16.007812 -11.800781 16.878906 -11.035156 17.515625 -10.046875 C 18.160156 -9.054688 18.484375 -7.914062 18.484375 -6.625 C 18.484375 -5.21875 18.132812 -3.984375 17.4375 -2.921875 C 16.738281 -1.867188 15.785156 -1.054688 14.578125 -0.484375 C 13.367188 0.0742188 12.023438 0.359375 10.546875 0.359375 C 7.609375 0.359375 5.3125 -0.535156 3.65625 -2.328125 C 2 -4.128906 1.171875 -6.695312 1.171875 -10.03125 C 1.171875 -12.40625 1.617188 -14.441406 2.515625 -16.140625 C 3.410156 -17.835938 4.660156 -19.125 6.265625 -20 C 7.878906 -20.882812 9.742188 -21.328125 11.859375 -21.328125 C 12.972656 -21.328125 14.046875 -21.203125 15.078125 -20.953125 C 16.109375 -20.703125 16.984375 -20.347656 17.703125 -19.890625 L 15.90625 -16.328125 C 14.863281 -17.023438 13.554688 -17.375 11.984375 -17.375 C 10.203125 -17.375 8.789062 -16.851562 7.75 -15.8125 C 6.71875 -14.769531 6.160156 -13.265625 6.078125 -11.296875 C 7.316406 -12.535156 9.046875 -13.15625 11.265625 -13.15625 Z M 10.28125 -3.265625 C 11.3125 -3.265625 12.148438 -3.539062 12.796875 -4.09375 C 13.453125 -4.65625 13.78125 -5.414062 13.78125 -6.375 C 13.78125 -7.332031 13.453125 -8.097656 12.796875 -8.671875 C 12.148438 -9.242188 11.289062 -9.53125 10.21875 -9.53125 C 9.15625 -9.53125 8.285156 -9.234375 7.609375 -8.640625 C 6.929688 -8.054688 6.59375 -7.300781 6.59375 -6.375 C 6.59375 -5.457031 6.921875 -4.707031 7.578125 -4.125 C 8.234375 -3.550781 9.132812 -3.265625 10.28125 -3.265625 Z M 10.28125 -3.265625 "/></g></g></g><g clip-path="url(#8b0ba7d207)"><path fill="#ffffff" d="M 144.582031 71.4375 C 167.523438 71.4375 186.105469 90.019531 186.105469 112.960938 C 186.105469 135.902344 167.523438 154.484375 144.582031 154.484375 C 121.636719 154.484375 103.054688 135.902344 103.054688 112.960938 C 103.054688 90.019531 121.636719 71.4375 144.582031 71.4375 M 144.582031 66.246094 C 118.730469 66.246094 97.867188 87.109375 97.867188 112.960938 C 97.867188 138.808594 118.730469 159.675781 144.582031 159.675781 C 170.429688 159.675781 191.296875 138.808594 191.296875 112.960938 C 191.296875 87.109375 170.324219 66.246094 144.582031 66.246094 Z M 144.582031 66.246094 " fill-opacity="1" fill-rule="nonzero"/></g><path fill="#ffffff" d="M 168.976562 101.4375 L 141.257812 129.777344 C 140.636719 130.402344 139.703125 130.816406 138.664062 130.816406 C 137.625 130.816406 136.792969 130.402344 136.066406 129.777344 L 120.390625 113.789062 C 119.769531 113.167969 119.355469 112.234375 119.355469 111.195312 C 119.355469 109.121094 121.015625 107.457031 122.988281 107.457031 C 124.027344 107.457031 124.855469 107.875 125.582031 108.496094 L 138.664062 121.886719 L 163.890625 96.144531 C 164.511719 95.519531 165.445312 95.105469 166.484375 95.105469 C 168.457031 95.105469 170.117188 96.765625 170.117188 98.84375 C 170.015625 99.878906 169.597656 100.8125 168.976562 101.4375 Z M 168.976562 101.4375 " fill-opacity="1" fill-rule="evenodd"/><g clip-path="url(#449f9beb6a)"><g clip-path="url(#1f72762b6f)"><g transform="matrix(1, 0, 0, 1, 148, 124)"><g clip-path="url(#e603109958)"><g clip-path="url(#6547451a7d)"><g clip-path="url(#29f7acf0be)"><path fill="#0d4a3f" d="M 0.6875 0.359375 L 53.136719 0.359375 L 53.136719 52.808594 L 0.6875 52.808594 Z M 0.6875 0.359375 " fill-opacity="1" fill-rule="nonzero"/></g></g></g></g></g></g><g clip-path="url(#52a0c0180b)"><g mask="url(#c38d483f34)"><g transform="matrix(0.0312057, 0, 0, 0.0312057, 153.531582, 133.251477)"><image x="0" y="0" width="1200" xlink:href="/images/maatregelen/_gedeeld/stap-badge-6-91b5aa3310.png" height="1200" preserveAspectRatio="xMidYMid meet"/></g></g></g><g clip-path="url(#e67b469a36)"><g transform="matrix(1, 0, 0, 1, 56, 172)"><g clip-path="url(#f965b94324)"><g clip-path="url(#b0ffdd4f5e)"><path fill="#00a77a" d="M 0.835938 0.140625 L 170.503906 0.140625 L 170.503906 50.648438 L 0.835938 50.648438 Z M 0.835938 0.140625 " fill-opacity="1" fill-rule="nonzero"/></g></g></g></g><g fill="#ffffff" fill-opacity="1"><g transform="translate(66.419096, 206.592411)"><g><path d="M 10.953125 0.3125 C 9.066406 0.3125 7.363281 -0.09375 5.84375 -0.90625 C 4.332031 -1.71875 3.148438 -2.835938 2.296875 -4.265625 C 1.441406 -5.691406 1.015625 -7.296875 1.015625 -9.078125 C 1.015625 -10.859375 1.441406 -12.460938 2.296875 -13.890625 C 3.148438 -15.316406 4.332031 -16.4375 5.84375 -17.25 C 7.363281 -18.070312 9.066406 -18.484375 10.953125 -18.484375 C 12.835938 -18.484375 14.53125 -18.070312 16.03125 -17.25 C 17.539062 -16.4375 18.726562 -15.316406 19.59375 -13.890625 C 20.457031 -12.460938 20.890625 -10.859375 20.890625 -9.078125 C 20.890625 -7.296875 20.457031 -5.691406 19.59375 -4.265625 C 18.726562 -2.835938 17.539062 -1.71875 16.03125 -0.90625 C 14.53125 -0.09375 12.835938 0.3125 10.953125 0.3125 Z M 10.953125 -3.265625 C 12.023438 -3.265625 12.992188 -3.507812 13.859375 -4 C 14.722656 -4.5 15.398438 -5.1875 15.890625 -6.0625 C 16.390625 -6.945312 16.640625 -7.953125 16.640625 -9.078125 C 16.640625 -10.203125 16.390625 -11.207031 15.890625 -12.09375 C 15.398438 -12.976562 14.722656 -13.664062 13.859375 -14.15625 C 12.992188 -14.644531 12.023438 -14.890625 10.953125 -14.890625 C 9.878906 -14.890625 8.910156 -14.644531 8.046875 -14.15625 C 7.179688 -13.664062 6.5 -12.976562 6 -12.09375 C 5.507812 -11.207031 5.265625 -10.203125 5.265625 -9.078125 C 5.265625 -7.953125 5.507812 -6.945312 6 -6.0625 C 6.5 -5.1875 7.179688 -4.5 8.046875 -4 C 8.910156 -3.507812 9.878906 -3.265625 10.953125 -3.265625 Z M 10.953125 -3.265625 "/></g></g></g><g fill="#ffffff" fill-opacity="1"><g transform="translate(88.325453, 206.592411)"><g><path d="M 10.125 -14.171875 C 11.414062 -14.171875 12.59375 -13.867188 13.65625 -13.265625 C 14.726562 -12.671875 15.566406 -11.832031 16.171875 -10.75 C 16.773438 -9.675781 17.078125 -8.421875 17.078125 -6.984375 C 17.078125 -5.546875 16.773438 -4.285156 16.171875 -3.203125 C 15.566406 -2.117188 14.726562 -1.28125 13.65625 -0.6875 C 12.59375 -0.09375 11.414062 0.203125 10.125 0.203125 C 8.34375 0.203125 6.941406 -0.359375 5.921875 -1.484375 L 5.921875 5.03125 L 1.875 5.03125 L 1.875 -13.96875 L 5.734375 -13.96875 L 5.734375 -12.359375 C 6.734375 -13.566406 8.195312 -14.171875 10.125 -14.171875 Z M 9.421875 -3.109375 C 10.460938 -3.109375 11.3125 -3.457031 11.96875 -4.15625 C 12.632812 -4.863281 12.96875 -5.804688 12.96875 -6.984375 C 12.96875 -8.160156 12.632812 -9.097656 11.96875 -9.796875 C 11.3125 -10.492188 10.460938 -10.84375 9.421875 -10.84375 C 8.378906 -10.84375 7.523438 -10.492188 6.859375 -9.796875 C 6.191406 -9.097656 5.859375 -8.160156 5.859375 -6.984375 C 5.859375 -5.804688 6.191406 -4.863281 6.859375 -4.15625 C 7.523438 -3.457031 8.378906 -3.109375 9.421875 -3.109375 Z M 9.421875 -3.109375 "/></g></g></g><g fill="#ffffff" fill-opacity="1"><g transform="translate(106.23468, 206.592411)"><g><path d="M 1.875 -19.25 L 5.921875 -19.25 L 5.921875 0 L 1.875 0 Z M 1.875 -19.25 "/></g></g></g><g fill="#ffffff" fill-opacity="1"><g transform="translate(114.047259, 206.592411)"><g><path d="M 15.546875 -6.921875 C 15.546875 -6.878906 15.519531 -6.519531 15.46875 -5.84375 L 4.90625 -5.84375 C 5.09375 -4.976562 5.539062 -4.289062 6.25 -3.78125 C 6.957031 -3.28125 7.84375 -3.03125 8.90625 -3.03125 C 9.625 -3.03125 10.265625 -3.140625 10.828125 -3.359375 C 11.390625 -3.578125 11.914062 -3.921875 12.40625 -4.390625 L 14.5625 -2.046875 C 13.25 -0.546875 11.328125 0.203125 8.796875 0.203125 C 7.222656 0.203125 5.828125 -0.101562 4.609375 -0.71875 C 3.398438 -1.332031 2.46875 -2.179688 1.8125 -3.265625 C 1.15625 -4.359375 0.828125 -5.597656 0.828125 -6.984375 C 0.828125 -8.347656 1.148438 -9.578125 1.796875 -10.671875 C 2.453125 -11.773438 3.34375 -12.632812 4.46875 -13.25 C 5.601562 -13.863281 6.875 -14.171875 8.28125 -14.171875 C 9.644531 -14.171875 10.878906 -13.875 11.984375 -13.28125 C 13.097656 -12.695312 13.96875 -11.851562 14.59375 -10.75 C 15.226562 -9.65625 15.546875 -8.378906 15.546875 -6.921875 Z M 8.3125 -11.109375 C 7.382812 -11.109375 6.609375 -10.847656 5.984375 -10.328125 C 5.367188 -9.804688 4.992188 -9.097656 4.859375 -8.203125 L 11.734375 -8.203125 C 11.585938 -9.085938 11.203125 -9.789062 10.578125 -10.3125 C 9.960938 -10.84375 9.207031 -11.109375 8.3125 -11.109375 Z M 8.3125 -11.109375 "/></g></g></g><g fill="#ffffff" fill-opacity="1"><g transform="translate(130.165531, 206.592411)"><g><path d="M 15.734375 -13.96875 L 9.84375 0 L 5.65625 0 L -0.203125 -13.96875 L 3.96875 -13.96875 L 7.84375 -4.46875 L 11.828125 -13.96875 Z M 15.734375 -13.96875 "/></g></g></g><g fill="#ffffff" fill-opacity="1"><g transform="translate(145.297486, 206.592411)"><g><path d="M 15.546875 -6.921875 C 15.546875 -6.878906 15.519531 -6.519531 15.46875 -5.84375 L 4.90625 -5.84375 C 5.09375 -4.976562 5.539062 -4.289062 6.25 -3.78125 C 6.957031 -3.28125 7.84375 -3.03125 8.90625 -3.03125 C 9.625 -3.03125 10.265625 -3.140625 10.828125 -3.359375 C 11.390625 -3.578125 11.914062 -3.921875 12.40625 -4.390625 L 14.5625 -2.046875 C 13.25 -0.546875 11.328125 0.203125 8.796875 0.203125 C 7.222656 0.203125 5.828125 -0.101562 4.609375 -0.71875 C 3.398438 -1.332031 2.46875 -2.179688 1.8125 -3.265625 C 1.15625 -4.359375 0.828125 -5.597656 0.828125 -6.984375 C 0.828125 -8.347656 1.148438 -9.578125 1.796875 -10.671875 C 2.453125 -11.773438 3.34375 -12.632812 4.46875 -13.25 C 5.601562 -13.863281 6.875 -14.171875 8.28125 -14.171875 C 9.644531 -14.171875 10.878906 -13.875 11.984375 -13.28125 C 13.097656 -12.695312 13.96875 -11.851562 14.59375 -10.75 C 15.226562 -9.65625 15.546875 -8.378906 15.546875 -6.921875 Z M 8.3125 -11.109375 C 7.382812 -11.109375 6.609375 -10.847656 5.984375 -10.328125 C 5.367188 -9.804688 4.992188 -9.097656 4.859375 -8.203125 L 11.734375 -8.203125 C 11.585938 -9.085938 11.203125 -9.789062 10.578125 -10.3125 C 9.960938 -10.84375 9.207031 -11.109375 8.3125 -11.109375 Z M 8.3125 -11.109375 "/></g></g></g><g fill="#ffffff" fill-opacity="1"><g transform="translate(161.675342, 206.592411)"><g><path d="M 5.734375 -12.125 C 6.222656 -12.789062 6.875 -13.296875 7.6875 -13.640625 C 8.507812 -13.992188 9.457031 -14.171875 10.53125 -14.171875 L 10.53125 -10.4375 C 10.082031 -10.46875 9.78125 -10.484375 9.625 -10.484375 C 8.46875 -10.484375 7.5625 -10.15625 6.90625 -9.5 C 6.25 -8.851562 5.921875 -7.882812 5.921875 -6.59375 L 5.921875 0 L 1.875 0 L 1.875 -13.96875 L 5.734375 -13.96875 Z M 5.734375 -12.125 "/></g></g></g><g fill="#ffffff" fill-opacity="1"><g transform="translate(172.758284, 206.592411)"><g><path d="M 1.875 -13.96875 L 5.921875 -13.96875 L 5.921875 0 L 1.875 0 Z M 3.890625 -15.90625 C 3.140625 -15.90625 2.53125 -16.117188 2.0625 -16.546875 C 1.601562 -16.984375 1.375 -17.523438 1.375 -18.171875 C 1.375 -18.804688 1.601562 -19.335938 2.0625 -19.765625 C 2.53125 -20.203125 3.140625 -20.421875 3.890625 -20.421875 C 4.628906 -20.421875 5.234375 -20.210938 5.703125 -19.796875 C 6.171875 -19.378906 6.40625 -18.863281 6.40625 -18.25 C 6.40625 -17.570312 6.171875 -17.007812 5.703125 -16.5625 C 5.234375 -16.125 4.628906 -15.90625 3.890625 -15.90625 Z M 3.890625 -15.90625 "/></g></g></g><g fill="#ffffff" fill-opacity="1"><g transform="translate(180.570864, 206.592411)"><g><path d="M 10.359375 -14.171875 C 12.085938 -14.171875 13.484375 -13.648438 14.546875 -12.609375 C 15.609375 -11.578125 16.140625 -10.039062 16.140625 -8 L 16.140625 0 L 12.09375 0 L 12.09375 -7.375 C 12.09375 -8.476562 11.847656 -9.300781 11.359375 -9.84375 C 10.878906 -10.394531 10.179688 -10.671875 9.265625 -10.671875 C 8.242188 -10.671875 7.429688 -10.351562 6.828125 -9.71875 C 6.222656 -9.082031 5.921875 -8.144531 5.921875 -6.90625 L 5.921875 0 L 1.875 0 L 1.875 -13.96875 L 5.734375 -13.96875 L 5.734375 -12.328125 C 6.273438 -12.910156 6.941406 -13.363281 7.734375 -13.6875 C 8.523438 -14.007812 9.398438 -14.171875 10.359375 -14.171875 Z M 10.359375 -14.171875 "/></g></g></g><g fill="#ffffff" fill-opacity="1"><g transform="translate(198.661794, 206.592411)"><g><path d="M 16.265625 -13.96875 L 16.265625 -2.328125 C 16.265625 0.222656 15.597656 2.125 14.265625 3.375 C 12.941406 4.625 11 5.25 8.4375 5.25 C 7.082031 5.25 5.800781 5.082031 4.59375 4.75 C 3.382812 4.414062 2.378906 3.941406 1.578125 3.328125 L 3.1875 0.421875 C 3.78125 0.898438 4.523438 1.28125 5.421875 1.5625 C 6.328125 1.851562 7.226562 2 8.125 2 C 9.519531 2 10.550781 1.679688 11.21875 1.046875 C 11.882812 0.421875 12.21875 -0.53125 12.21875 -1.8125 L 12.21875 -2.40625 C 11.164062 -1.25 9.695312 -0.671875 7.8125 -0.671875 C 6.53125 -0.671875 5.359375 -0.953125 4.296875 -1.515625 C 3.234375 -2.078125 2.390625 -2.867188 1.765625 -3.890625 C 1.140625 -4.910156 0.828125 -6.085938 0.828125 -7.421875 C 0.828125 -8.753906 1.140625 -9.929688 1.765625 -10.953125 C 2.390625 -11.972656 3.234375 -12.765625 4.296875 -13.328125 C 5.359375 -13.890625 6.53125 -14.171875 7.8125 -14.171875 C 9.832031 -14.171875 11.375 -13.503906 12.4375 -12.171875 L 12.4375 -13.96875 Z M 8.609375 -4 C 9.679688 -4 10.5625 -4.3125 11.25 -4.9375 C 11.9375 -5.570312 12.28125 -6.398438 12.28125 -7.421875 C 12.28125 -8.441406 11.9375 -9.265625 11.25 -9.890625 C 10.5625 -10.523438 9.679688 -10.84375 8.609375 -10.84375 C 7.535156 -10.84375 6.65625 -10.523438 5.96875 -9.890625 C 5.28125 -9.265625 4.9375 -8.441406 4.9375 -7.421875 C 4.9375 -6.398438 5.28125 -5.570312 5.96875 -4.9375 C 6.65625 -4.3125 7.535156 -4 8.609375 -4 Z M 8.609375 -4 "/></g></g></g><g clip-path="url(#39d4ddcc19)"><g clip-path="url(#5cf1504ec4)"><g transform="matrix(1, 0, 0, 1, 0.000000000000000028, 172)"><g clip-path="url(#6824a1974f)"><g clip-path="url(#153defb7c8)"><g clip-path="url(#4667891adb)"><path fill="#00a77a" d="M 0.203125 0.140625 L 284.105469 0.140625 L 284.105469 50.648438 L 0.203125 50.648438 Z M 0.203125 0.140625 " fill-opacity="1" fill-rule="nonzero"/></g></g></g></g></g></g><g fill="#ffffff" fill-opacity="1"><g transform="translate(66.986018, 206.592411)"><g><path d="M 10.953125 0.3125 C 9.066406 0.3125 7.363281 -0.09375 5.84375 -0.90625 C 4.332031 -1.71875 3.148438 -2.835938 2.296875 -4.265625 C 1.441406 -5.691406 1.015625 -7.296875 1.015625 -9.078125 C 1.015625 -10.859375 1.441406 -12.460938 2.296875 -13.890625 C 3.148438 -15.316406 4.332031 -16.4375 5.84375 -17.25 C 7.363281 -18.070312 9.066406 -18.484375 10.953125 -18.484375 C 12.835938 -18.484375 14.53125 -18.070312 16.03125 -17.25 C 17.539062 -16.4375 18.726562 -15.316406 19.59375 -13.890625 C 20.457031 -12.460938 20.890625 -10.859375 20.890625 -9.078125 C 20.890625 -7.296875 20.457031 -5.691406 19.59375 -4.265625 C 18.726562 -2.835938 17.539062 -1.71875 16.03125 -0.90625 C 14.53125 -0.09375 12.835938 0.3125 10.953125 0.3125 Z M 10.953125 -3.265625 C 12.023438 -3.265625 12.992188 -3.507812 13.859375 -4 C 14.722656 -4.5 15.398438 -5.1875 15.890625 -6.0625 C 16.390625 -6.945312 16.640625 -7.953125 16.640625 -9.078125 C 16.640625 -10.203125 16.390625 -11.207031 15.890625 -12.09375 C 15.398438 -12.976562 14.722656 -13.664062 13.859375 -14.15625 C 12.992188 -14.644531 12.023438 -14.890625 10.953125 -14.890625 C 9.878906 -14.890625 8.910156 -14.644531 8.046875 -14.15625 C 7.179688 -13.664062 6.5 -12.976562 6 -12.09375 C 5.507812 -11.207031 5.265625 -10.203125 5.265625 -9.078125 C 5.265625 -7.953125 5.507812 -6.945312 6 -6.0625 C 6.5 -5.1875 7.179688 -4.5 8.046875 -4 C 8.910156 -3.507812 9.878906 -3.265625 10.953125 -3.265625 Z M 10.953125 -3.265625 "/></g></g></g><g fill="#ffffff" fill-opacity="1"><g transform="translate(88.892374, 206.592411)"><g><path d="M 10.125 -14.171875 C 11.414062 -14.171875 12.59375 -13.867188 13.65625 -13.265625 C 14.726562 -12.671875 15.566406 -11.832031 16.171875 -10.75 C 16.773438 -9.675781 17.078125 -8.421875 17.078125 -6.984375 C 17.078125 -5.546875 16.773438 -4.285156 16.171875 -3.203125 C 15.566406 -2.117188 14.726562 -1.28125 13.65625 -0.6875 C 12.59375 -0.09375 11.414062 0.203125 10.125 0.203125 C 8.34375 0.203125 6.941406 -0.359375 5.921875 -1.484375 L 5.921875 5.03125 L 1.875 5.03125 L 1.875 -13.96875 L 5.734375 -13.96875 L 5.734375 -12.359375 C 6.734375 -13.566406 8.195312 -14.171875 10.125 -14.171875 Z M 9.421875 -3.109375 C 10.460938 -3.109375 11.3125 -3.457031 11.96875 -4.15625 C 12.632812 -4.863281 12.96875 -5.804688 12.96875 -6.984375 C 12.96875 -8.160156 12.632812 -9.097656 11.96875 -9.796875 C 11.3125 -10.492188 10.460938 -10.84375 9.421875 -10.84375 C 8.378906 -10.84375 7.523438 -10.492188 6.859375 -9.796875 C 6.191406 -9.097656 5.859375 -8.160156 5.859375 -6.984375 C 5.859375 -5.804688 6.191406 -4.863281 6.859375 -4.15625 C 7.523438 -3.457031 8.378906 -3.109375 9.421875 -3.109375 Z M 9.421875 -3.109375 "/></g></g></g><g fill="#ffffff" fill-opacity="1"><g transform="translate(106.801601, 206.592411)"><g><path d="M 1.875 -19.25 L 5.921875 -19.25 L 5.921875 0 L 1.875 0 Z M 1.875 -19.25 "/></g></g></g><g fill="#ffffff" fill-opacity="1"><g transform="translate(114.614181, 206.592411)"><g><path d="M 15.546875 -6.921875 C 15.546875 -6.878906 15.519531 -6.519531 15.46875 -5.84375 L 4.90625 -5.84375 C 5.09375 -4.976562 5.539062 -4.289062 6.25 -3.78125 C 6.957031 -3.28125 7.84375 -3.03125 8.90625 -3.03125 C 9.625 -3.03125 10.265625 -3.140625 10.828125 -3.359375 C 11.390625 -3.578125 11.914062 -3.921875 12.40625 -4.390625 L 14.5625 -2.046875 C 13.25 -0.546875 11.328125 0.203125 8.796875 0.203125 C 7.222656 0.203125 5.828125 -0.101562 4.609375 -0.71875 C 3.398438 -1.332031 2.46875 -2.179688 1.8125 -3.265625 C 1.15625 -4.359375 0.828125 -5.597656 0.828125 -6.984375 C 0.828125 -8.347656 1.148438 -9.578125 1.796875 -10.671875 C 2.453125 -11.773438 3.34375 -12.632812 4.46875 -13.25 C 5.601562 -13.863281 6.875 -14.171875 8.28125 -14.171875 C 9.644531 -14.171875 10.878906 -13.875 11.984375 -13.28125 C 13.097656 -12.695312 13.96875 -11.851562 14.59375 -10.75 C 15.226562 -9.65625 15.546875 -8.378906 15.546875 -6.921875 Z M 8.3125 -11.109375 C 7.382812 -11.109375 6.609375 -10.847656 5.984375 -10.328125 C 5.367188 -9.804688 4.992188 -9.097656 4.859375 -8.203125 L 11.734375 -8.203125 C 11.585938 -9.085938 11.203125 -9.789062 10.578125 -10.3125 C 9.960938 -10.84375 9.207031 -11.109375 8.3125 -11.109375 Z M 8.3125 -11.109375 "/></g></g></g><g fill="#ffffff" fill-opacity="1"><g transform="translate(130.732453, 206.592411)"><g><path d="M 15.734375 -13.96875 L 9.84375 0 L 5.65625 0 L -0.203125 -13.96875 L 3.96875 -13.96875 L 7.84375 -4.46875 L 11.828125 -13.96875 Z M 15.734375 -13.96875 "/></g></g></g><g fill="#ffffff" fill-opacity="1"><g transform="translate(145.864408, 206.592411)"><g><path d="M 15.546875 -6.921875 C 15.546875 -6.878906 15.519531 -6.519531 15.46875 -5.84375 L 4.90625 -5.84375 C 5.09375 -4.976562 5.539062 -4.289062 6.25 -3.78125 C 6.957031 -3.28125 7.84375 -3.03125 8.90625 -3.03125 C 9.625 -3.03125 10.265625 -3.140625 10.828125 -3.359375 C 11.390625 -3.578125 11.914062 -3.921875 12.40625 -4.390625 L 14.5625 -2.046875 C 13.25 -0.546875 11.328125 0.203125 8.796875 0.203125 C 7.222656 0.203125 5.828125 -0.101562 4.609375 -0.71875 C 3.398438 -1.332031 2.46875 -2.179688 1.8125 -3.265625 C 1.15625 -4.359375 0.828125 -5.597656 0.828125 -6.984375 C 0.828125 -8.347656 1.148438 -9.578125 1.796875 -10.671875 C 2.453125 -11.773438 3.34375 -12.632812 4.46875 -13.25 C 5.601562 -13.863281 6.875 -14.171875 8.28125 -14.171875 C 9.644531 -14.171875 10.878906 -13.875 11.984375 -13.28125 C 13.097656 -12.695312 13.96875 -11.851562 14.59375 -10.75 C 15.226562 -9.65625 15.546875 -8.378906 15.546875 -6.921875 Z M 8.3125 -11.109375 C 7.382812 -11.109375 6.609375 -10.847656 5.984375 -10.328125 C 5.367188 -9.804688 4.992188 -9.097656 4.859375 -8.203125 L 11.734375 -8.203125 C 11.585938 -9.085938 11.203125 -9.789062 10.578125 -10.3125 C 9.960938 -10.84375 9.207031 -11.109375 8.3125 -11.109375 Z M 8.3125 -11.109375 "/></g></g></g><g fill="#ffffff" fill-opacity="1"><g transform="translate(162.242264, 206.592411)"><g><path d="M 5.734375 -12.125 C 6.222656 -12.789062 6.875 -13.296875 7.6875 -13.640625 C 8.507812 -13.992188 9.457031 -14.171875 10.53125 -14.171875 L 10.53125 -10.4375 C 10.082031 -10.46875 9.78125 -10.484375 9.625 -10.484375 C 8.46875 -10.484375 7.5625 -10.15625 6.90625 -9.5 C 6.25 -8.851562 5.921875 -7.882812 5.921875 -6.59375 L 5.921875 0 L 1.875 0 L 1.875 -13.96875 L 5.734375 -13.96875 Z M 5.734375 -12.125 "/></g></g></g><g fill="#ffffff" fill-opacity="1"><g transform="translate(173.325206, 206.592411)"><g><path d="M 1.875 -13.96875 L 5.921875 -13.96875 L 5.921875 0 L 1.875 0 Z M 3.890625 -15.90625 C 3.140625 -15.90625 2.53125 -16.117188 2.0625 -16.546875 C 1.601562 -16.984375 1.375 -17.523438 1.375 -18.171875 C 1.375 -18.804688 1.601562 -19.335938 2.0625 -19.765625 C 2.53125 -20.203125 3.140625 -20.421875 3.890625 -20.421875 C 4.628906 -20.421875 5.234375 -20.210938 5.703125 -19.796875 C 6.171875 -19.378906 6.40625 -18.863281 6.40625 -18.25 C 6.40625 -17.570312 6.171875 -17.007812 5.703125 -16.5625 C 5.234375 -16.125 4.628906 -15.90625 3.890625 -15.90625 Z M 3.890625 -15.90625 "/></g></g></g><g fill="#ffffff" fill-opacity="1"><g transform="translate(181.137786, 206.592411)"><g><path d="M 10.359375 -14.171875 C 12.085938 -14.171875 13.484375 -13.648438 14.546875 -12.609375 C 15.609375 -11.578125 16.140625 -10.039062 16.140625 -8 L 16.140625 0 L 12.09375 0 L 12.09375 -7.375 C 12.09375 -8.476562 11.847656 -9.300781 11.359375 -9.84375 C 10.878906 -10.394531 10.179688 -10.671875 9.265625 -10.671875 C 8.242188 -10.671875 7.429688 -10.351562 6.828125 -9.71875 C 6.222656 -9.082031 5.921875 -8.144531 5.921875 -6.90625 L 5.921875 0 L 1.875 0 L 1.875 -13.96875 L 5.734375 -13.96875 L 5.734375 -12.328125 C 6.273438 -12.910156 6.941406 -13.363281 7.734375 -13.6875 C 8.523438 -14.007812 9.398438 -14.171875 10.359375 -14.171875 Z M 10.359375 -14.171875 "/></g></g></g><g fill="#ffffff" fill-opacity="1"><g transform="translate(199.228716, 206.592411)"><g><path d="M 16.265625 -13.96875 L 16.265625 -2.328125 C 16.265625 0.222656 15.597656 2.125 14.265625 3.375 C 12.941406 4.625 11 5.25 8.4375 5.25 C 7.082031 5.25 5.800781 5.082031 4.59375 4.75 C 3.382812 4.414062 2.378906 3.941406 1.578125 3.328125 L 3.1875 0.421875 C 3.78125 0.898438 4.523438 1.28125 5.421875 1.5625 C 6.328125 1.851562 7.226562 2 8.125 2 C 9.519531 2 10.550781 1.679688 11.21875 1.046875 C 11.882812 0.421875 12.21875 -0.53125 12.21875 -1.8125 L 12.21875 -2.40625 C 11.164062 -1.25 9.695312 -0.671875 7.8125 -0.671875 C 6.53125 -0.671875 5.359375 -0.953125 4.296875 -1.515625 C 3.234375 -2.078125 2.390625 -2.867188 1.765625 -3.890625 C 1.140625 -4.910156 0.828125 -6.085938 0.828125 -7.421875 C 0.828125 -8.753906 1.140625 -9.929688 1.765625 -10.953125 C 2.390625 -11.972656 3.234375 -12.765625 4.296875 -13.328125 C 5.359375 -13.890625 6.53125 -14.171875 7.8125 -14.171875 C 9.832031 -14.171875 11.375 -13.503906 12.4375 -12.171875 L 12.4375 -13.96875 Z M 8.609375 -4 C 9.679688 -4 10.5625 -4.3125 11.25 -4.9375 C 11.9375 -5.570312 12.28125 -6.398438 12.28125 -7.421875 C 12.28125 -8.441406 11.9375 -9.265625 11.25 -9.890625 C 10.5625 -10.523438 9.679688 -10.84375 8.609375 -10.84375 C 7.535156 -10.84375 6.65625 -10.523438 5.96875 -9.890625 C 5.28125 -9.265625 4.9375 -8.441406 4.9375 -7.421875 C 4.9375 -6.398438 5.28125 -5.570312 5.96875 -4.9375 C 6.65625 -4.3125 7.535156 -4 8.609375 -4 Z M 8.609375 -4 "/></g></g></g><g clip-path="url(#2539d6d9ee)"><g clip-path="url(#71b58af9bc)"><g mask="url(#c637f7d44d)"><g transform="matrix(1, 0, 0, 1, 0.000000000000000028, 229)"><g clip-path="url(#85c221e236)"><g clip-path="url(#0ff7d6f518)"><g clip-path="url(#2023eeb514)"><path fill="#00a77a" d="M 0.203125 0.355469 L 284.21875 0.355469 L 284.21875 122.761719 L 0.203125 122.761719 Z M 0.203125 0.355469 " fill-opacity="1" fill-rule="nonzero"/></g></g></g></g></g></g></g><g fill="#ffffff" fill-opacity="1"><g transform="translate(41.3115, 281.782501)"><g><path d="M 18.140625 -18.171875 L 18.140625 0 L 16.25 0 L 16.25 -8.390625 L 4.875 -8.390625 L 4.875 0 L 2.953125 0 L 2.953125 -18.171875 L 4.875 -18.171875 L 4.875 -10.0625 L 16.25 -10.0625 L 16.25 -18.171875 Z M 18.140625 -18.171875 "/></g></g></g><g fill="#ffffff" fill-opacity="1"><g transform="translate(62.413243, 281.782501)"><g><path d="M 14.453125 -6.25 L 3.03125 -6.25 C 3.132812 -4.832031 3.679688 -3.6875 4.671875 -2.8125 C 5.660156 -1.9375 6.90625 -1.5 8.40625 -1.5 C 9.257812 -1.5 10.039062 -1.648438 10.75 -1.953125 C 11.457031 -2.253906 12.070312 -2.703125 12.59375 -3.296875 L 13.625 -2.109375 C 13.019531 -1.378906 12.257812 -0.820312 11.34375 -0.4375 C 10.4375 -0.0625 9.441406 0.125 8.359375 0.125 C 6.953125 0.125 5.707031 -0.171875 4.625 -0.765625 C 3.550781 -1.359375 2.707031 -2.179688 2.09375 -3.234375 C 1.488281 -4.296875 1.1875 -5.492188 1.1875 -6.828125 C 1.1875 -8.160156 1.476562 -9.351562 2.0625 -10.40625 C 2.644531 -11.457031 3.441406 -12.273438 4.453125 -12.859375 C 5.460938 -13.453125 6.597656 -13.75 7.859375 -13.75 C 9.128906 -13.75 10.265625 -13.453125 11.265625 -12.859375 C 12.265625 -12.273438 13.050781 -11.457031 13.625 -10.40625 C 14.195312 -9.363281 14.484375 -8.171875 14.484375 -6.828125 Z M 7.859375 -12.171875 C 6.546875 -12.171875 5.441406 -11.75 4.546875 -10.90625 C 3.660156 -10.070312 3.15625 -8.976562 3.03125 -7.625 L 12.71875 -7.625 C 12.59375 -8.976562 12.082031 -10.070312 11.1875 -10.90625 C 10.300781 -11.75 9.191406 -12.171875 7.859375 -12.171875 Z M 7.859375 -12.171875 "/></g></g></g><g fill="#ffffff" fill-opacity="1"><g transform="translate(78.090308, 281.782501)"><g><path d="M 9.765625 -0.828125 C 9.410156 -0.515625 8.976562 -0.273438 8.46875 -0.109375 C 7.957031 0.0429688 7.425781 0.125 6.875 0.125 C 5.59375 0.125 4.601562 -0.21875 3.90625 -0.90625 C 3.21875 -1.601562 2.875 -2.582031 2.875 -3.84375 L 2.875 -12.09375 L 0.4375 -12.09375 L 0.4375 -13.65625 L 2.875 -13.65625 L 2.875 -16.640625 L 4.71875 -16.640625 L 4.71875 -13.65625 L 8.875 -13.65625 L 8.875 -12.09375 L 4.71875 -12.09375 L 4.71875 -3.9375 C 4.71875 -3.125 4.921875 -2.503906 5.328125 -2.078125 C 5.734375 -1.660156 6.316406 -1.453125 7.078125 -1.453125 C 7.460938 -1.453125 7.832031 -1.507812 8.1875 -1.625 C 8.539062 -1.75 8.847656 -1.925781 9.109375 -2.15625 Z M 9.765625 -0.828125 "/></g></g></g><g fill="#ffffff" fill-opacity="1"><g transform="translate(88.628197, 281.782501)"><g/></g></g><g fill="#ffffff" fill-opacity="1"><g transform="translate(95.428506, 281.782501)"><g><path d="M 22.609375 -13.65625 L 17.4375 0 L 15.703125 0 L 11.390625 -11.1875 L 7.078125 0 L 5.34375 0 L 0.203125 -13.65625 L 1.96875 -13.65625 L 6.25 -2.046875 L 10.640625 -13.65625 L 12.21875 -13.65625 L 16.578125 -2.046875 L 20.921875 -13.65625 Z M 22.609375 -13.65625 "/></g></g></g><g fill="#ffffff" fill-opacity="1"><g transform="translate(117.853929, 281.782501)"><g><path d="M 14.453125 -6.25 L 3.03125 -6.25 C 3.132812 -4.832031 3.679688 -3.6875 4.671875 -2.8125 C 5.660156 -1.9375 6.90625 -1.5 8.40625 -1.5 C 9.257812 -1.5 10.039062 -1.648438 10.75 -1.953125 C 11.457031 -2.253906 12.070312 -2.703125 12.59375 -3.296875 L 13.625 -2.109375 C 13.019531 -1.378906 12.257812 -0.820312 11.34375 -0.4375 C 10.4375 -0.0625 9.441406 0.125 8.359375 0.125 C 6.953125 0.125 5.707031 -0.171875 4.625 -0.765625 C 3.550781 -1.359375 2.707031 -2.179688 2.09375 -3.234375 C 1.488281 -4.296875 1.1875 -5.492188 1.1875 -6.828125 C 1.1875 -8.160156 1.476562 -9.351562 2.0625 -10.40625 C 2.644531 -11.457031 3.441406 -12.273438 4.453125 -12.859375 C 5.460938 -13.453125 6.597656 -13.75 7.859375 -13.75 C 9.128906 -13.75 10.265625 -13.453125 11.265625 -12.859375 C 12.265625 -12.273438 13.050781 -11.457031 13.625 -10.40625 C 14.195312 -9.363281 14.484375 -8.171875 14.484375 -6.828125 Z M 7.859375 -12.171875 C 6.546875 -12.171875 5.441406 -11.75 4.546875 -10.90625 C 3.660156 -10.070312 3.15625 -8.976562 3.03125 -7.625 L 12.71875 -7.625 C 12.59375 -8.976562 12.082031 -10.070312 11.1875 -10.90625 C 10.300781 -11.75 9.191406 -12.171875 7.859375 -12.171875 Z M 7.859375 -12.171875 "/></g></g></g><g fill="#ffffff" fill-opacity="1"><g transform="translate(133.530994, 281.782501)"><g><path d="M 4.328125 -10.984375 C 4.765625 -11.898438 5.410156 -12.585938 6.265625 -13.046875 C 7.117188 -13.515625 8.179688 -13.75 9.453125 -13.75 L 9.453125 -11.96875 L 9 -11.984375 C 7.570312 -11.984375 6.445312 -11.539062 5.625 -10.65625 C 4.8125 -9.78125 4.40625 -8.546875 4.40625 -6.953125 L 4.40625 0 L 2.5625 0 L 2.5625 -13.65625 L 4.328125 -13.65625 Z M 4.328125 -10.984375 "/></g></g></g><g fill="#ffffff" fill-opacity="1"><g transform="translate(143.731441, 281.782501)"><g><path d="M 7.625 -6.859375 L 4.40625 -3.890625 L 4.40625 0 L 2.5625 0 L 2.5625 -19.25 L 4.40625 -19.25 L 4.40625 -6.203125 L 12.5625 -13.65625 L 14.84375 -13.65625 L 9 -8.078125 L 15.390625 0 L 13.125 0 Z M 7.625 -6.859375 "/></g></g></g><g fill="#ffffff" fill-opacity="1"><g transform="translate(159.330636, 281.782501)"><g/></g></g><g fill="#ffffff" fill-opacity="1"><g transform="translate(166.130945, 281.782501)"><g><path d="M 22.609375 -13.65625 L 17.4375 0 L 15.703125 0 L 11.390625 -11.1875 L 7.078125 0 L 5.34375 0 L 0.203125 -13.65625 L 1.96875 -13.65625 L 6.25 -2.046875 L 10.640625 -13.65625 L 12.21875 -13.65625 L 16.578125 -2.046875 L 20.921875 -13.65625 Z M 22.609375 -13.65625 "/></g></g></g><g fill="#ffffff" fill-opacity="1"><g transform="translate(188.556368, 281.782501)"><g><path d="M 8.15625 0.125 C 6.832031 0.125 5.644531 -0.171875 4.59375 -0.765625 C 3.539062 -1.359375 2.707031 -2.179688 2.09375 -3.234375 C 1.488281 -4.296875 1.1875 -5.492188 1.1875 -6.828125 C 1.1875 -8.160156 1.488281 -9.351562 2.09375 -10.40625 C 2.707031 -11.457031 3.539062 -12.273438 4.59375 -12.859375 C 5.644531 -13.453125 6.832031 -13.75 8.15625 -13.75 C 9.46875 -13.75 10.648438 -13.453125 11.703125 -12.859375 C 12.753906 -12.273438 13.578125 -11.457031 14.171875 -10.40625 C 14.773438 -9.351562 15.078125 -8.160156 15.078125 -6.828125 C 15.078125 -5.492188 14.773438 -4.296875 14.171875 -3.234375 C 13.578125 -2.179688 12.753906 -1.359375 11.703125 -0.765625 C 10.648438 -0.171875 9.46875 0.125 8.15625 0.125 Z M 8.15625 -1.5 C 9.125 -1.5 9.988281 -1.71875 10.75 -2.15625 C 11.519531 -2.601562 12.117188 -3.234375 12.546875 -4.046875 C 12.984375 -4.859375 13.203125 -5.785156 13.203125 -6.828125 C 13.203125 -7.867188 12.984375 -8.796875 12.546875 -9.609375 C 12.117188 -10.421875 11.519531 -11.046875 10.75 -11.484375 C 9.988281 -11.921875 9.125 -12.140625 8.15625 -12.140625 C 7.1875 -12.140625 6.316406 -11.921875 5.546875 -11.484375 C 4.773438 -11.046875 4.164062 -10.421875 3.71875 -9.609375 C 3.28125 -8.796875 3.0625 -7.867188 3.0625 -6.828125 C 3.0625 -5.785156 3.28125 -4.859375 3.71875 -4.046875 C 4.164062 -3.234375 4.773438 -2.601562 5.546875 -2.15625 C 6.316406 -1.71875 7.1875 -1.5 8.15625 -1.5 Z M 8.15625 -1.5 "/></g></g></g><g fill="#ffffff" fill-opacity="1"><g transform="translate(204.830402, 281.782501)"><g><path d="M 4.328125 -10.984375 C 4.765625 -11.898438 5.410156 -12.585938 6.265625 -13.046875 C 7.117188 -13.515625 8.179688 -13.75 9.453125 -13.75 L 9.453125 -11.96875 L 9 -11.984375 C 7.570312 -11.984375 6.445312 -11.539062 5.625 -10.65625 C 4.8125 -9.78125 4.40625 -8.546875 4.40625 -6.953125 L 4.40625 0 L 2.5625 0 L 2.5625 -13.65625 L 4.328125 -13.65625 Z M 4.328125 -10.984375 "/></g></g></g><g fill="#ffffff" fill-opacity="1"><g transform="translate(214.901062, 281.782501)"><g><path d="M 15.03125 -19.25 L 15.03125 0 L 13.265625 0 L 13.265625 -2.703125 C 12.710938 -1.785156 11.976562 -1.082031 11.0625 -0.59375 C 10.15625 -0.113281 9.132812 0.125 8 0.125 C 6.71875 0.125 5.554688 -0.164062 4.515625 -0.75 C 3.472656 -1.34375 2.65625 -2.164062 2.0625 -3.21875 C 1.476562 -4.269531 1.1875 -5.472656 1.1875 -6.828125 C 1.1875 -8.171875 1.476562 -9.367188 2.0625 -10.421875 C 2.65625 -11.484375 3.472656 -12.300781 4.515625 -12.875 C 5.554688 -13.457031 6.71875 -13.75 8 -13.75 C 9.101562 -13.75 10.097656 -13.519531 10.984375 -13.0625 C 11.878906 -12.601562 12.613281 -11.9375 13.1875 -11.0625 L 13.1875 -19.25 Z M 8.15625 -1.5 C 9.101562 -1.5 9.960938 -1.71875 10.734375 -2.15625 C 11.503906 -2.601562 12.109375 -3.234375 12.546875 -4.046875 C 12.984375 -4.859375 13.203125 -5.785156 13.203125 -6.828125 C 13.203125 -7.867188 12.984375 -8.796875 12.546875 -9.609375 C 12.109375 -10.421875 11.503906 -11.046875 10.734375 -11.484375 C 9.960938 -11.921875 9.101562 -12.140625 8.15625 -12.140625 C 7.1875 -12.140625 6.316406 -11.921875 5.546875 -11.484375 C 4.773438 -11.046875 4.164062 -10.421875 3.71875 -9.609375 C 3.28125 -8.796875 3.0625 -7.867188 3.0625 -6.828125 C 3.0625 -5.785156 3.28125 -4.859375 3.71875 -4.046875 C 4.164062 -3.234375 4.773438 -2.601562 5.546875 -2.15625 C 6.316406 -1.71875 7.1875 -1.5 8.15625 -1.5 Z M 8.15625 -1.5 "/></g></g></g><g fill="#ffffff" fill-opacity="1"><g transform="translate(232.550739, 281.782501)"><g><path d="M 9.765625 -0.828125 C 9.410156 -0.515625 8.976562 -0.273438 8.46875 -0.109375 C 7.957031 0.0429688 7.425781 0.125 6.875 0.125 C 5.59375 0.125 4.601562 -0.21875 3.90625 -0.90625 C 3.21875 -1.601562 2.875 -2.582031 2.875 -3.84375 L 2.875 -12.09375 L 0.4375 -12.09375 L 0.4375 -13.65625 L 2.875 -13.65625 L 2.875 -16.640625 L 4.71875 -16.640625 L 4.71875 -13.65625 L 8.875 -13.65625 L 8.875 -12.09375 L 4.71875 -12.09375 L 4.71875 -3.9375 C 4.71875 -3.125 4.921875 -2.503906 5.328125 -2.078125 C 5.734375 -1.660156 6.316406 -1.453125 7.078125 -1.453125 C 7.460938 -1.453125 7.832031 -1.507812 8.1875 -1.625 C 8.539062 -1.75 8.847656 -1.925781 9.109375 -2.15625 Z M 9.765625 -0.828125 "/></g></g></g><g fill="#ffffff" fill-opacity="1"><g transform="translate(36.267873, 317.731507)"><g><path d="M 9.53125 -13.75 C 11.238281 -13.75 12.597656 -13.25 13.609375 -12.25 C 14.617188 -11.257812 15.125 -9.816406 15.125 -7.921875 L 15.125 0 L 13.28125 0 L 13.28125 -7.734375 C 13.28125 -9.148438 12.925781 -10.226562 12.21875 -10.96875 C 11.507812 -11.71875 10.5 -12.09375 9.1875 -12.09375 C 7.71875 -12.09375 6.550781 -11.65625 5.6875 -10.78125 C 4.832031 -9.90625 4.40625 -8.695312 4.40625 -7.15625 L 4.40625 0 L 2.5625 0 L 2.5625 -13.65625 L 4.328125 -13.65625 L 4.328125 -11.140625 C 4.835938 -11.960938 5.535156 -12.601562 6.421875 -13.0625 C 7.316406 -13.519531 8.351562 -13.75 9.53125 -13.75 Z M 9.53125 -13.75 "/></g></g></g><g fill="#ffffff" fill-opacity="1"><g transform="translate(53.891597, 317.731507)"><g><path d="M 14.453125 -6.25 L 3.03125 -6.25 C 3.132812 -4.832031 3.679688 -3.6875 4.671875 -2.8125 C 5.660156 -1.9375 6.90625 -1.5 8.40625 -1.5 C 9.257812 -1.5 10.039062 -1.648438 10.75 -1.953125 C 11.457031 -2.253906 12.070312 -2.703125 12.59375 -3.296875 L 13.625 -2.109375 C 13.019531 -1.378906 12.257812 -0.820312 11.34375 -0.4375 C 10.4375 -0.0625 9.441406 0.125 8.359375 0.125 C 6.953125 0.125 5.707031 -0.171875 4.625 -0.765625 C 3.550781 -1.359375 2.707031 -2.179688 2.09375 -3.234375 C 1.488281 -4.296875 1.1875 -5.492188 1.1875 -6.828125 C 1.1875 -8.160156 1.476562 -9.351562 2.0625 -10.40625 C 2.644531 -11.457031 3.441406 -12.273438 4.453125 -12.859375 C 5.460938 -13.453125 6.597656 -13.75 7.859375 -13.75 C 9.128906 -13.75 10.265625 -13.453125 11.265625 -12.859375 C 12.265625 -12.273438 13.050781 -11.457031 13.625 -10.40625 C 14.195312 -9.363281 14.484375 -8.171875 14.484375 -6.828125 Z M 7.859375 -12.171875 C 6.546875 -12.171875 5.441406 -11.75 4.546875 -10.90625 C 3.660156 -10.070312 3.15625 -8.976562 3.03125 -7.625 L 12.71875 -7.625 C 12.59375 -8.976562 12.082031 -10.070312 11.1875 -10.90625 C 10.300781 -11.75 9.191406 -12.171875 7.859375 -12.171875 Z M 7.859375 -12.171875 "/></g></g></g><g fill="#ffffff" fill-opacity="1"><g transform="translate(69.568662, 317.731507)"><g><path d="M 9.765625 -0.828125 C 9.410156 -0.515625 8.976562 -0.273438 8.46875 -0.109375 C 7.957031 0.0429688 7.425781 0.125 6.875 0.125 C 5.59375 0.125 4.601562 -0.21875 3.90625 -0.90625 C 3.21875 -1.601562 2.875 -2.582031 2.875 -3.84375 L 2.875 -12.09375 L 0.4375 -12.09375 L 0.4375 -13.65625 L 2.875 -13.65625 L 2.875 -16.640625 L 4.71875 -16.640625 L 4.71875 -13.65625 L 8.875 -13.65625 L 8.875 -12.09375 L 4.71875 -12.09375 L 4.71875 -3.9375 C 4.71875 -3.125 4.921875 -2.503906 5.328125 -2.078125 C 5.734375 -1.660156 6.316406 -1.453125 7.078125 -1.453125 C 7.460938 -1.453125 7.832031 -1.507812 8.1875 -1.625 C 8.539062 -1.75 8.847656 -1.925781 9.109375 -2.15625 Z M 9.765625 -0.828125 "/></g></g></g><g fill="#ffffff" fill-opacity="1"><g transform="translate(80.106551, 317.731507)"><g><path d="M 0.546875 5.171875 C -0.0234375 5.171875 -0.566406 5.09375 -1.078125 4.9375 C -1.585938 4.789062 -2.003906 4.570312 -2.328125 4.28125 L -1.6875 2.875 C -1.144531 3.34375 -0.433594 3.578125 0.4375 3.578125 C 1.164062 3.578125 1.722656 3.359375 2.109375 2.921875 C 2.503906 2.492188 2.703125 1.859375 2.703125 1.015625 L 2.703125 -13.65625 L 4.546875 -13.65625 L 4.546875 1.015625 C 4.546875 2.296875 4.195312 3.304688 3.5 4.046875 C 2.8125 4.796875 1.828125 5.171875 0.546875 5.171875 Z M 3.640625 -16.671875 C 3.253906 -16.671875 2.929688 -16.800781 2.671875 -17.0625 C 2.410156 -17.320312 2.28125 -17.628906 2.28125 -17.984375 C 2.28125 -18.335938 2.410156 -18.640625 2.671875 -18.890625 C 2.929688 -19.148438 3.253906 -19.28125 3.640625 -19.28125 C 4.015625 -19.28125 4.332031 -19.15625 4.59375 -18.90625 C 4.851562 -18.65625 4.984375 -18.359375 4.984375 -18.015625 C 4.984375 -17.640625 4.851562 -17.320312 4.59375 -17.0625 C 4.332031 -16.800781 4.015625 -16.671875 3.640625 -16.671875 Z M 3.640625 -16.671875 "/></g></g></g><g fill="#ffffff" fill-opacity="1"><g transform="translate(87.218327, 317.731507)"><g><path d="M 14.453125 -6.25 L 3.03125 -6.25 C 3.132812 -4.832031 3.679688 -3.6875 4.671875 -2.8125 C 5.660156 -1.9375 6.90625 -1.5 8.40625 -1.5 C 9.257812 -1.5 10.039062 -1.648438 10.75 -1.953125 C 11.457031 -2.253906 12.070312 -2.703125 12.59375 -3.296875 L 13.625 -2.109375 C 13.019531 -1.378906 12.257812 -0.820312 11.34375 -0.4375 C 10.4375 -0.0625 9.441406 0.125 8.359375 0.125 C 6.953125 0.125 5.707031 -0.171875 4.625 -0.765625 C 3.550781 -1.359375 2.707031 -2.179688 2.09375 -3.234375 C 1.488281 -4.296875 1.1875 -5.492188 1.1875 -6.828125 C 1.1875 -8.160156 1.476562 -9.351562 2.0625 -10.40625 C 2.644531 -11.457031 3.441406 -12.273438 4.453125 -12.859375 C 5.460938 -13.453125 6.597656 -13.75 7.859375 -13.75 C 9.128906 -13.75 10.265625 -13.453125 11.265625 -12.859375 C 12.265625 -12.273438 13.050781 -11.457031 13.625 -10.40625 C 14.195312 -9.363281 14.484375 -8.171875 14.484375 -6.828125 Z M 7.859375 -12.171875 C 6.546875 -12.171875 5.441406 -11.75 4.546875 -10.90625 C 3.660156 -10.070312 3.15625 -8.976562 3.03125 -7.625 L 12.71875 -7.625 C 12.59375 -8.976562 12.082031 -10.070312 11.1875 -10.90625 C 10.300781 -11.75 9.191406 -12.171875 7.859375 -12.171875 Z M 7.859375 -12.171875 "/></g></g></g><g fill="#ffffff" fill-opacity="1"><g transform="translate(102.895392, 317.731507)"><g><path d="M 6.234375 0.125 C 5.117188 0.125 4.054688 -0.03125 3.046875 -0.34375 C 2.035156 -0.664062 1.242188 -1.070312 0.671875 -1.5625 L 1.5 -3.015625 C 2.070312 -2.554688 2.789062 -2.1875 3.65625 -1.90625 C 4.519531 -1.625 5.421875 -1.484375 6.359375 -1.484375 C 7.609375 -1.484375 8.53125 -1.675781 9.125 -2.0625 C 9.71875 -2.445312 10.015625 -3 10.015625 -3.71875 C 10.015625 -4.21875 9.847656 -4.609375 9.515625 -4.890625 C 9.191406 -5.179688 8.78125 -5.398438 8.28125 -5.546875 C 7.78125 -5.691406 7.113281 -5.832031 6.28125 -5.96875 C 5.175781 -6.175781 4.285156 -6.382812 3.609375 -6.59375 C 2.929688 -6.8125 2.351562 -7.179688 1.875 -7.703125 C 1.40625 -8.222656 1.171875 -8.941406 1.171875 -9.859375 C 1.171875 -11.003906 1.644531 -11.9375 2.59375 -12.65625 C 3.539062 -13.382812 4.863281 -13.75 6.5625 -13.75 C 7.445312 -13.75 8.328125 -13.628906 9.203125 -13.390625 C 10.085938 -13.160156 10.816406 -12.859375 11.390625 -12.484375 L 10.59375 -11 C 9.46875 -11.78125 8.125 -12.171875 6.5625 -12.171875 C 5.382812 -12.171875 4.5 -11.960938 3.90625 -11.546875 C 3.3125 -11.128906 3.015625 -10.585938 3.015625 -9.921875 C 3.015625 -9.398438 3.179688 -8.984375 3.515625 -8.671875 C 3.847656 -8.359375 4.265625 -8.128906 4.765625 -7.984375 C 5.273438 -7.835938 5.972656 -7.6875 6.859375 -7.53125 C 7.941406 -7.320312 8.8125 -7.113281 9.46875 -6.90625 C 10.125 -6.695312 10.6875 -6.34375 11.15625 -5.84375 C 11.625 -5.34375 11.859375 -4.648438 11.859375 -3.765625 C 11.859375 -2.566406 11.359375 -1.617188 10.359375 -0.921875 C 9.367188 -0.222656 7.992188 0.125 6.234375 0.125 Z M 6.234375 0.125 "/></g></g></g><g fill="#ffffff" fill-opacity="1"><g transform="translate(115.587586, 317.731507)"><g/></g></g><g fill="#ffffff" fill-opacity="1"><g transform="translate(122.387895, 317.731507)"><g><path d="M 7.34375 -13.75 C 9.125 -13.75 10.488281 -13.300781 11.4375 -12.40625 C 12.394531 -11.519531 12.875 -10.203125 12.875 -8.453125 L 12.875 0 L 11.109375 0 L 11.109375 -2.125 C 10.691406 -1.414062 10.082031 -0.863281 9.28125 -0.46875 C 8.476562 -0.0703125 7.519531 0.125 6.40625 0.125 C 4.882812 0.125 3.671875 -0.234375 2.765625 -0.953125 C 1.867188 -1.679688 1.421875 -2.644531 1.421875 -3.84375 C 1.421875 -5 1.835938 -5.929688 2.671875 -6.640625 C 3.515625 -7.347656 4.859375 -7.703125 6.703125 -7.703125 L 11.03125 -7.703125 L 11.03125 -8.53125 C 11.03125 -9.707031 10.703125 -10.601562 10.046875 -11.21875 C 9.390625 -11.832031 8.425781 -12.140625 7.15625 -12.140625 C 6.289062 -12.140625 5.460938 -12 4.671875 -11.71875 C 3.878906 -11.4375 3.195312 -11.039062 2.625 -10.53125 L 1.796875 -11.90625 C 2.484375 -12.5 3.3125 -12.953125 4.28125 -13.265625 C 5.25 -13.585938 6.269531 -13.75 7.34375 -13.75 Z M 6.703125 -1.328125 C 7.734375 -1.328125 8.617188 -1.5625 9.359375 -2.03125 C 10.109375 -2.507812 10.664062 -3.195312 11.03125 -4.09375 L 11.03125 -6.328125 L 6.75 -6.328125 C 4.414062 -6.328125 3.25 -5.515625 3.25 -3.890625 C 3.25 -3.097656 3.550781 -2.472656 4.15625 -2.015625 C 4.757812 -1.554688 5.609375 -1.328125 6.703125 -1.328125 Z M 6.703125 -1.328125 "/></g></g></g><g fill="#ffffff" fill-opacity="1"><g transform="translate(137.701576, 317.731507)"><g><path d="M 7.078125 -17.828125 C 6.285156 -17.828125 5.6875 -17.609375 5.28125 -17.171875 C 4.875 -16.742188 4.671875 -16.109375 4.671875 -15.265625 L 4.671875 -13.65625 L 8.875 -13.65625 L 8.875 -12.09375 L 4.71875 -12.09375 L 4.71875 0 L 2.875 0 L 2.875 -12.09375 L 0.4375 -12.09375 L 0.4375 -13.65625 L 2.875 -13.65625 L 2.875 -15.34375 C 2.875 -16.582031 3.234375 -17.566406 3.953125 -18.296875 C 4.671875 -19.023438 5.6875 -19.390625 7 -19.390625 C 7.519531 -19.390625 8.019531 -19.316406 8.5 -19.171875 C 8.988281 -19.023438 9.398438 -18.8125 9.734375 -18.53125 L 9.109375 -17.15625 C 8.578125 -17.601562 7.898438 -17.828125 7.078125 -17.828125 Z M 7.078125 -17.828125 "/></g></g></g><g fill="#ffffff" fill-opacity="1"><g transform="translate(146.26683, 317.731507)"><g><path d="M 15.203125 -13.65625 L 15.203125 -1.65625 C 15.203125 0.652344 14.632812 2.367188 13.5 3.484375 C 12.375 4.609375 10.671875 5.171875 8.390625 5.171875 C 7.117188 5.171875 5.914062 4.984375 4.78125 4.609375 C 3.65625 4.234375 2.738281 3.71875 2.03125 3.0625 L 2.953125 1.65625 C 3.609375 2.25 4.410156 2.707031 5.359375 3.03125 C 6.304688 3.363281 7.296875 3.53125 8.328125 3.53125 C 10.054688 3.53125 11.328125 3.125 12.140625 2.3125 C 12.953125 1.507812 13.359375 0.261719 13.359375 -1.421875 L 13.359375 -3.171875 C 12.796875 -2.304688 12.050781 -1.644531 11.125 -1.1875 C 10.195312 -0.738281 9.171875 -0.515625 8.046875 -0.515625 C 6.765625 -0.515625 5.597656 -0.796875 4.546875 -1.359375 C 3.503906 -1.921875 2.679688 -2.707031 2.078125 -3.71875 C 1.484375 -4.738281 1.1875 -5.882812 1.1875 -7.15625 C 1.1875 -8.4375 1.484375 -9.578125 2.078125 -10.578125 C 2.679688 -11.585938 3.5 -12.367188 4.53125 -12.921875 C 5.570312 -13.472656 6.742188 -13.75 8.046875 -13.75 C 9.203125 -13.75 10.25 -13.515625 11.1875 -13.046875 C 12.125 -12.585938 12.875 -11.914062 13.4375 -11.03125 L 13.4375 -13.65625 Z M 8.234375 -2.15625 C 9.210938 -2.15625 10.097656 -2.363281 10.890625 -2.78125 C 11.691406 -3.207031 12.3125 -3.800781 12.75 -4.5625 C 13.195312 -5.320312 13.421875 -6.1875 13.421875 -7.15625 C 13.421875 -8.125 13.195312 -8.984375 12.75 -9.734375 C 12.3125 -10.492188 11.695312 -11.082031 10.90625 -11.5 C 10.125 -11.925781 9.234375 -12.140625 8.234375 -12.140625 C 7.242188 -12.140625 6.351562 -11.929688 5.5625 -11.515625 C 4.78125 -11.109375 4.164062 -10.519531 3.71875 -9.75 C 3.28125 -8.988281 3.0625 -8.125 3.0625 -7.15625 C 3.0625 -6.1875 3.28125 -5.320312 3.71875 -4.5625 C 4.164062 -3.800781 4.78125 -3.207031 5.5625 -2.78125 C 6.351562 -2.363281 7.242188 -2.15625 8.234375 -2.15625 Z M 8.234375 -2.15625 "/></g></g></g><g fill="#ffffff" fill-opacity="1"><g transform="translate(164.072235, 317.731507)"><g><path d="M 14.453125 -6.25 L 3.03125 -6.25 C 3.132812 -4.832031 3.679688 -3.6875 4.671875 -2.8125 C 5.660156 -1.9375 6.90625 -1.5 8.40625 -1.5 C 9.257812 -1.5 10.039062 -1.648438 10.75 -1.953125 C 11.457031 -2.253906 12.070312 -2.703125 12.59375 -3.296875 L 13.625 -2.109375 C 13.019531 -1.378906 12.257812 -0.820312 11.34375 -0.4375 C 10.4375 -0.0625 9.441406 0.125 8.359375 0.125 C 6.953125 0.125 5.707031 -0.171875 4.625 -0.765625 C 3.550781 -1.359375 2.707031 -2.179688 2.09375 -3.234375 C 1.488281 -4.296875 1.1875 -5.492188 1.1875 -6.828125 C 1.1875 -8.160156 1.476562 -9.351562 2.0625 -10.40625 C 2.644531 -11.457031 3.441406 -12.273438 4.453125 -12.859375 C 5.460938 -13.453125 6.597656 -13.75 7.859375 -13.75 C 9.128906 -13.75 10.265625 -13.453125 11.265625 -12.859375 C 12.265625 -12.273438 13.050781 -11.457031 13.625 -10.40625 C 14.195312 -9.363281 14.484375 -8.171875 14.484375 -6.828125 Z M 7.859375 -12.171875 C 6.546875 -12.171875 5.441406 -11.75 4.546875 -10.90625 C 3.660156 -10.070312 3.15625 -8.976562 3.03125 -7.625 L 12.71875 -7.625 C 12.59375 -8.976562 12.082031 -10.070312 11.1875 -10.90625 C 10.300781 -11.75 9.191406 -12.171875 7.859375 -12.171875 Z M 7.859375 -12.171875 "/></g></g></g><g fill="#ffffff" fill-opacity="1"><g transform="translate(179.7493, 317.731507)"><g><path d="M 4.328125 -10.984375 C 4.765625 -11.898438 5.410156 -12.585938 6.265625 -13.046875 C 7.117188 -13.515625 8.179688 -13.75 9.453125 -13.75 L 9.453125 -11.96875 L 9 -11.984375 C 7.570312 -11.984375 6.445312 -11.539062 5.625 -10.65625 C 4.8125 -9.78125 4.40625 -8.546875 4.40625 -6.953125 L 4.40625 0 L 2.5625 0 L 2.5625 -13.65625 L 4.328125 -13.65625 Z M 4.328125 -10.984375 "/></g></g></g><g fill="#ffffff" fill-opacity="1"><g transform="translate(189.81996, 317.731507)"><g><path d="M 8.15625 0.125 C 6.832031 0.125 5.644531 -0.171875 4.59375 -0.765625 C 3.539062 -1.359375 2.707031 -2.179688 2.09375 -3.234375 C 1.488281 -4.296875 1.1875 -5.492188 1.1875 -6.828125 C 1.1875 -8.160156 1.488281 -9.351562 2.09375 -10.40625 C 2.707031 -11.457031 3.539062 -12.273438 4.59375 -12.859375 C 5.644531 -13.453125 6.832031 -13.75 8.15625 -13.75 C 9.46875 -13.75 10.648438 -13.453125 11.703125 -12.859375 C 12.753906 -12.273438 13.578125 -11.457031 14.171875 -10.40625 C 14.773438 -9.351562 15.078125 -8.160156 15.078125 -6.828125 C 15.078125 -5.492188 14.773438 -4.296875 14.171875 -3.234375 C 13.578125 -2.179688 12.753906 -1.359375 11.703125 -0.765625 C 10.648438 -0.171875 9.46875 0.125 8.15625 0.125 Z M 8.15625 -1.5 C 9.125 -1.5 9.988281 -1.71875 10.75 -2.15625 C 11.519531 -2.601562 12.117188 -3.234375 12.546875 -4.046875 C 12.984375 -4.859375 13.203125 -5.785156 13.203125 -6.828125 C 13.203125 -7.867188 12.984375 -8.796875 12.546875 -9.609375 C 12.117188 -10.421875 11.519531 -11.046875 10.75 -11.484375 C 9.988281 -11.921875 9.125 -12.140625 8.15625 -12.140625 C 7.1875 -12.140625 6.316406 -11.921875 5.546875 -11.484375 C 4.773438 -11.046875 4.164062 -10.421875 3.71875 -9.609375 C 3.28125 -8.796875 3.0625 -7.867188 3.0625 -6.828125 C 3.0625 -5.785156 3.28125 -4.859375 3.71875 -4.046875 C 4.164062 -3.234375 4.773438 -2.601562 5.546875 -2.15625 C 6.316406 -1.71875 7.1875 -1.5 8.15625 -1.5 Z M 8.15625 -1.5 "/></g></g></g><g fill="#ffffff" fill-opacity="1"><g transform="translate(206.093994, 317.731507)"><g><path d="M 9.53125 -13.75 C 11.238281 -13.75 12.597656 -13.25 13.609375 -12.25 C 14.617188 -11.257812 15.125 -9.816406 15.125 -7.921875 L 15.125 0 L 13.28125 0 L 13.28125 -7.734375 C 13.28125 -9.148438 12.925781 -10.226562 12.21875 -10.96875 C 11.507812 -11.71875 10.5 -12.09375 9.1875 -12.09375 C 7.71875 -12.09375 6.550781 -11.65625 5.6875 -10.78125 C 4.832031 -9.90625 4.40625 -8.695312 4.40625 -7.15625 L 4.40625 0 L 2.5625 0 L 2.5625 -13.65625 L 4.328125 -13.65625 L 4.328125 -11.140625 C 4.835938 -11.960938 5.535156 -12.601562 6.421875 -13.0625 C 7.316406 -13.519531 8.351562 -13.75 9.53125 -13.75 Z M 9.53125 -13.75 "/></g></g></g><g fill="#ffffff" fill-opacity="1"><g transform="translate(223.717718, 317.731507)"><g><path d="M 15.03125 -19.25 L 15.03125 0 L 13.265625 0 L 13.265625 -2.703125 C 12.710938 -1.785156 11.976562 -1.082031 11.0625 -0.59375 C 10.15625 -0.113281 9.132812 0.125 8 0.125 C 6.71875 0.125 5.554688 -0.164062 4.515625 -0.75 C 3.472656 -1.34375 2.65625 -2.164062 2.0625 -3.21875 C 1.476562 -4.269531 1.1875 -5.472656 1.1875 -6.828125 C 1.1875 -8.171875 1.476562 -9.367188 2.0625 -10.421875 C 2.65625 -11.484375 3.472656 -12.300781 4.515625 -12.875 C 5.554688 -13.457031 6.71875 -13.75 8 -13.75 C 9.101562 -13.75 10.097656 -13.519531 10.984375 -13.0625 C 11.878906 -12.601562 12.613281 -11.9375 13.1875 -11.0625 L 13.1875 -19.25 Z M 8.15625 -1.5 C 9.101562 -1.5 9.960938 -1.71875 10.734375 -2.15625 C 11.503906 -2.601562 12.109375 -3.234375 12.546875 -4.046875 C 12.984375 -4.859375 13.203125 -5.785156 13.203125 -6.828125 C 13.203125 -7.867188 12.984375 -8.796875 12.546875 -9.609375 C 12.109375 -10.421875 11.503906 -11.046875 10.734375 -11.484375 C 9.960938 -11.921875 9.101562 -12.140625 8.15625 -12.140625 C 7.1875 -12.140625 6.316406 -11.921875 5.546875 -11.484375 C 4.773438 -11.046875 4.164062 -10.421875 3.71875 -9.609375 C 3.28125 -8.796875 3.0625 -7.867188 3.0625 -6.828125 C 3.0625 -5.785156 3.28125 -4.859375 3.71875 -4.046875 C 4.164062 -3.234375 4.773438 -2.601562 5.546875 -2.15625 C 6.316406 -1.71875 7.1875 -1.5 8.15625 -1.5 Z M 8.15625 -1.5 "/></g></g></g><g fill="#ffffff" fill-opacity="1"><g transform="translate(241.324658, 317.731507)"><g/></g></g></svg>