<svg xmlns="http://www.w3.org/2000/svg" xmlns:xlink="http://www.w3.org/1999/xlink" width="380" zoomAndPan="magnify" viewBox="0 0 285 352.49999" height="470" preserveAspectRatio="xMidYMid meet" version="1.0"><defs><filter x="0%" y="0%" width="100%" height="100%" id="858b95084b"><feColorMatrix values="0 0 0 0 1 0 0 0 0 1 0 0 0 0 1 0 0 0 1 0" color-interpolation-filters="sRGB"/></filter><g/><clipPath id="0a08fd73a8"><path d="M 0.203125 0 L 284.796875 0 L 284.796875 352 L 0.203125 352 Z M 0.203125 0 " clip-rule="nonzero"/></clipPath><clipPath id="8ae3980661"><path d="M 61.277344 34.601562 L 221.234375 34.601562 L 221.234375 194.5625 L 61.277344 194.5625 Z M 61.277344 34.601562 " clip-rule="nonzero"/></clipPath><clipPath id="b0399ffb61"><path d="M 141.253906 34.601562 C 97.085938 34.601562 61.277344 70.410156 61.277344 114.582031 C 61.277344 158.753906 97.085938 194.5625 141.253906 194.5625 C 185.425781 194.5625 221.234375 158.753906 221.234375 114.582031 C 221.234375 70.410156 185.425781 34.601562 141.253906 34.601562 Z M 141.253906 34.601562 " clip-rule="nonzero"/></clipPath><clipPath id="f38b1ca1d3"><path d="M 0.277344 0.601562 L 160.234375 0.601562 L 160.234375 160.5625 L 0.277344 160.5625 Z M 0.277344 0.601562 " clip-rule="nonzero"/></clipPath><clipPath id="4e16e50fa6"><path d="M 80.253906 0.601562 C 36.085938 0.601562 0.277344 36.410156 0.277344 80.582031 C 0.277344 124.753906 36.085938 160.5625 80.253906 160.5625 C 124.425781 160.5625 160.234375 124.753906 160.234375 80.582031 C 160.234375 36.410156 124.425781 0.601562 80.253906 0.601562 Z M 80.253906 0.601562 " clip-rule="nonzero"/></clipPath><clipPath id="448b6f9301"><rect x="0" width="161" y="0" height="161"/></clipPath><clipPath id="610a963089"><path d="M 160.261719 0 L 243.824219 0 L 243.824219 83.5625 L 160.261719 83.5625 Z M 160.261719 0 " clip-rule="nonzero"/></clipPath><clipPath id="b84aaff824"><path d="M 202.042969 0 C 178.964844 0 160.261719 18.707031 160.261719 41.78125 C 160.261719 64.859375 178.964844 83.5625 202.042969 83.5625 C 225.117188 83.5625 243.824219 64.859375 243.824219 41.78125 C 243.824219 18.707031 225.117188 0 202.042969 0 Z M 202.042969 0 " clip-rule="nonzero"/></clipPath><clipPath id="023dc1ecb7"><path d="M 0.261719 0 L 83.824219 0 L 83.824219 83.5625 L 0.261719 83.5625 Z M 0.261719 0 " clip-rule="nonzero"/></clipPath><clipPath id="d43c8cc294"><path d="M 42.042969 0 C 18.964844 0 0.261719 18.707031 0.261719 41.78125 C 0.261719 64.859375 18.964844 83.5625 42.042969 83.5625 C 65.117188 83.5625 83.824219 64.859375 83.824219 41.78125 C 83.824219 18.707031 65.117188 0 42.042969 0 Z M 42.042969 0 " clip-rule="nonzero"/></clipPath><clipPath id="3444bd160f"><rect x="0" width="84" y="0" height="84"/></clipPath><clipPath id="cf85bad954"><path d="M 91.167969 72.414062 L 193.023438 72.414062 L 193.023438 160 L 91.167969 160 Z M 91.167969 72.414062 " clip-rule="nonzero"/></clipPath><clipPath id="87d04b8640"><path d="M 0.203125 172.140625 L 284.300781 172.140625 L 284.300781 222.648438 L 0.203125 222.648438 Z M 0.203125 172.140625 " clip-rule="nonzero"/></clipPath><clipPath id="b60885f5d9"><path d="M 13.683594 172.140625 L 270.722656 172.140625 C 278.167969 172.140625 284.203125 178.175781 284.203125 185.621094 L 284.203125 209.167969 C 284.203125 216.613281 278.167969 222.648438 270.722656 222.648438 L 13.683594 222.648438 C 6.238281 222.648438 0.203125 216.613281 0.203125 209.167969 L 0.203125 185.621094 C 0.203125 178.175781 6.238281 172.140625 13.683594 172.140625 Z M 13.683594 172.140625 " clip-rule="nonzero"/></clipPath><clipPath id="e5cd1461ad"><path d="M 0.203125 0.140625 L 284.300781 0.140625 L 284.300781 50.648438 L 0.203125 50.648438 Z M 0.203125 0.140625 " clip-rule="nonzero"/></clipPath><clipPath id="3d65c78614"><path d="M 13.683594 0.140625 L 270.722656 0.140625 C 278.167969 0.140625 284.203125 6.175781 284.203125 13.621094 L 284.203125 37.167969 C 284.203125 44.613281 278.167969 50.648438 270.722656 50.648438 L 13.683594 50.648438 C 6.238281 50.648438 0.203125 44.613281 0.203125 37.167969 L 0.203125 13.621094 C 0.203125 6.175781 6.238281 0.140625 13.683594 0.140625 Z M 13.683594 0.140625 " clip-rule="nonzero"/></clipPath><clipPath id="a80075913b"><rect x="0" width="285" y="0" height="51"/></clipPath><clipPath id="415645452b"><path d="M 0.203125 229.355469 L 284.21875 229.355469 L 284.21875 351.761719 L 0.203125 351.761719 Z M 0.203125 229.355469 " clip-rule="nonzero"/></clipPath><clipPath id="4b5bb24a50"><path d="M 13.683594 229.355469 L 270.722656 229.355469 C 278.167969 229.355469 284.203125 235.390625 284.203125 242.835938 L 284.203125 338.28125 C 284.203125 345.726562 278.167969 351.761719 270.722656 351.761719 L 13.683594 351.761719 C 6.238281 351.761719 0.203125 345.726562 0.203125 338.28125 L 0.203125 242.835938 C 0.203125 235.390625 6.238281 229.355469 13.683594 229.355469 Z M 13.683594 229.355469 " clip-rule="nonzero"/></clipPath><mask id="e82f783945"><g filter="url(#858b95084b)"><rect x="-28.5" width="342" fill="#000000" y="-35.249999" height="422.999987" fill-opacity="0.59"/></g></mask><clipPath id="8deb0e3f49"><path d="M 0.203125 0.355469 L 284.21875 0.355469 L 284.21875 122.761719 L 0.203125 122.761719 Z M 0.203125 0.355469 " clip-rule="nonzero"/></clipPath><clipPath id="7a110bb8f3"><path d="M 13.683594 0.355469 L 270.722656 0.355469 C 278.167969 0.355469 284.203125 6.390625 284.203125 13.835938 L 284.203125 109.28125 C 284.203125 116.726562 278.167969 122.761719 270.722656 122.761719 L 13.683594 122.761719 C 6.238281 122.761719 0.203125 116.726562 0.203125 109.28125 L 0.203125 13.835938 C 0.203125 6.390625 6.238281 0.355469 13.683594 0.355469 Z M 13.683594 0.355469 " clip-rule="nonzero"/></clipPath><clipPath id="a9e85d341d"><rect x="0" width="285" y="0" height="123"/></clipPath></defs><g clip-path="url(#0a08fd73a8)"><path fill="#ffffff" d="M 0.203125 0 L 284.796875 0 L 284.796875 352 L 0.203125 352 Z M 0.203125 0 " fill-opacity="1" fill-rule="nonzero"/></g><g clip-path="url(#8ae3980661)"><g clip-path="url(#b0399ffb61)"><g transform="matrix(1, 0, 0, 1, 61, 34)"><g clip-path="url(#448b6f9301)"><g clip-path="url(#f38b1ca1d3)"><g clip-path="url(#4e16e50fa6)"><path fill="#0d4a3f" d="M 0.277344 0.601562 L 160.234375 0.601562 L 160.234375 160.5625 L 0.277344 160.5625 Z M 0.277344 0.601562 " fill-opacity="1" fill-rule="nonzero"/></g></g></g></g></g></g><g clip-path="url(#610a963089)"><g clip-path="url(#b84aaff824)"><g transform="matrix(1, 0, 0, 1, 160, 0)"><g clip-path="url(#3444bd160f)"><g clip-path="url(#023dc1ecb7)"><g clip-path="url(#d43c8cc294)"><path fill="#00a77a" d="M 0.261719 0 L 83.824219 0 L 83.824219 83.5625 L 0.261719 83.5625 Z M 0.261719 0 " fill-opacity="1" fill-rule="nonzero"/></g></g></g></g></g></g><g fill="#ffffff" fill-opacity="1"><g transform="translate(191.715494, 51.676696)"><g><path d="M 20.375 -4.40625 L 16.953125 -4.40625 L 16.953125 0 L 12.21875 0 L 12.21875 -4.40625 L 0.921875 -4.40625 L 0.921875 -7.671875 L 10.8125 -20.96875 L 15.90625 -20.96875 L 6.734375 -8.359375 L 12.375 -8.359375 L 12.375 -12.28125 L 16.953125 -12.28125 L 16.953125 -8.359375 L 20.375 -8.359375 Z M 20.375 -4.40625 "/></g></g></g><g clip-path="url(#cf85bad954)"><path fill="#ffffff" d="M 160.160156 149.722656 L 159.78125 150.113281 C 159.144531 150.761719 158.101562 150.773438 157.453125 150.136719 C 156.800781 149.503906 156.792969 148.460938 157.425781 147.808594 L 160.632812 144.539062 C 160.734375 144.433594 160.847656 144.34375 160.972656 144.269531 C 161.214844 144.125 161.503906 144.042969 161.808594 144.042969 C 162.113281 144.042969 162.398438 144.125 162.644531 144.269531 C 162.765625 144.34375 162.882812 144.433594 162.984375 144.539062 L 166.1875 147.808594 C 166.824219 148.460938 166.8125 149.503906 166.164062 150.136719 C 165.511719 150.773438 164.46875 150.761719 163.835938 150.113281 L 163.453125 149.722656 L 163.453125 156.804688 C 163.453125 157.714844 162.714844 158.453125 161.808594 158.453125 C 160.898438 158.453125 160.160156 157.714844 160.160156 156.804688 Z M 105.640625 81.015625 L 105.261719 81.402344 C 104.625 82.050781 103.582031 82.0625 102.933594 81.429688 C 102.285156 80.792969 102.273438 79.75 102.90625 79.101562 L 106.113281 75.828125 C 106.214844 75.722656 106.328125 75.632812 106.453125 75.5625 C 106.699219 75.414062 106.984375 75.332031 107.289062 75.332031 C 107.59375 75.332031 107.878906 75.414062 108.125 75.5625 C 108.246094 75.632812 108.363281 75.722656 108.464844 75.828125 L 111.667969 79.101562 C 112.304688 79.75 112.292969 80.792969 111.644531 81.429688 C 110.996094 82.0625 109.953125 82.050781 109.316406 81.402344 L 108.933594 81.015625 L 108.933594 88.09375 C 108.933594 89.003906 108.195312 89.742188 107.289062 89.742188 C 106.378906 89.742188 105.640625 89.003906 105.640625 88.09375 Z M 169.53125 158.222656 C 169.40625 158.152344 169.292969 158.0625 169.191406 157.957031 L 165.984375 154.683594 C 165.351562 154.035156 165.359375 152.992188 166.011719 152.355469 C 166.660156 151.71875 167.703125 151.730469 168.339844 152.378906 L 168.71875 152.769531 L 168.71875 145.6875 C 168.71875 144.78125 169.457031 144.042969 170.367188 144.042969 C 171.273438 144.042969 172.011719 144.78125 172.011719 145.6875 L 172.011719 152.769531 L 172.394531 152.378906 C 173.027344 151.730469 174.074219 151.71875 174.722656 152.355469 C 175.371094 152.992188 175.382812 154.035156 174.746094 154.683594 L 171.542969 157.957031 C 171.441406 158.0625 171.324219 158.152344 171.203125 158.222656 C 170.957031 158.367188 170.671875 158.453125 170.367188 158.453125 C 170.0625 158.453125 169.773438 158.367188 169.53125 158.222656 Z M 115.011719 89.511719 C 114.886719 89.441406 114.773438 89.351562 114.671875 89.246094 L 111.464844 85.972656 C 110.832031 85.324219 110.84375 84.28125 111.492188 83.644531 C 112.140625 83.011719 113.183594 83.019531 113.820312 83.671875 L 114.199219 84.058594 L 114.199219 76.980469 C 114.199219 76.070312 114.9375 75.332031 115.847656 75.332031 C 116.753906 75.332031 117.492188 76.070312 117.492188 76.980469 L 117.492188 84.058594 L 117.875 83.671875 C 118.511719 83.019531 119.554688 83.011719 120.203125 83.644531 C 120.851562 84.28125 120.863281 85.324219 120.226562 85.972656 L 117.023438 89.246094 C 116.921875 89.351562 116.808594 89.441406 116.683594 89.511719 C 116.4375 89.65625 116.152344 89.742188 115.847656 89.742188 C 115.542969 89.742188 115.257812 89.65625 115.011719 89.511719 Z M 151.421875 141.75 C 146.25 152.273438 135.421875 159.527344 122.910156 159.527344 C 105.390625 159.527344 91.167969 145.300781 91.167969 127.78125 C 91.167969 113.746094 100.292969 101.828125 112.933594 97.640625 C 113.273438 96.148438 114.195312 94.796875 115.613281 93.949219 L 123.839844 89.027344 L 123.839844 77.917969 C 123.839844 75.9375 125.449219 74.332031 127.425781 74.332031 L 138.710938 74.332031 C 140.691406 74.332031 142.296875 75.9375 142.296875 77.917969 L 142.296875 77.992188 L 150.03125 73.371094 C 151.863281 72.273438 154.152344 72.273438 155.988281 73.371094 L 190.40625 93.949219 C 193.15625 95.59375 194.054688 99.160156 192.410156 101.910156 C 190.765625 104.660156 187.199219 105.558594 184.449219 103.914062 L 153.007812 85.117188 L 132.351562 97.46875 C 133.460938 97.8125 134.542969 98.21875 135.59375 98.675781 L 152.164062 88.769531 C 152.683594 88.457031 153.335938 88.457031 153.855469 88.769531 L 181.375 105.226562 C 181.875 105.523438 182.179688 106.058594 182.179688 106.636719 L 182.179688 135.894531 C 182.179688 139.125 179.554688 141.75 176.320312 141.75 Z M 117.867188 96.4375 C 119.511719 96.175781 121.195312 96.039062 122.910156 96.039062 C 124.546875 96.039062 126.152344 96.160156 127.722656 96.402344 L 152.164062 81.785156 C 152.761719 81.429688 153.15625 81.367188 153.863281 81.789062 L 186.140625 101.089844 C 187.328125 101.800781 188.875 101.414062 189.585938 100.222656 C 190.296875 99.03125 189.910156 97.488281 188.71875 96.777344 L 154.300781 76.195312 C 153.503906 75.71875 152.515625 75.71875 151.71875 76.195312 L 141.496094 82.308594 C 140.988281 82.613281 140.355469 82.621094 139.839844 82.328125 C 139.324219 82.035156 139.003906 81.488281 139.003906 80.894531 L 139.003906 77.917969 C 139.003906 77.753906 138.875 77.621094 138.710938 77.621094 L 127.425781 77.621094 C 127.265625 77.621094 127.132812 77.753906 127.132812 77.917969 L 127.132812 89.960938 C 127.132812 90.542969 126.828125 91.078125 126.332031 91.375 Z M 139.050781 100.445312 C 148.390625 105.976562 154.65625 116.152344 154.65625 127.78125 C 154.65625 131.527344 154.007812 135.121094 152.8125 138.457031 L 176.320312 138.457031 C 177.738281 138.457031 178.886719 137.308594 178.886719 135.894531 L 178.886719 107.570312 L 153.007812 92.101562 Z M 122.910156 99.332031 C 107.207031 99.332031 94.460938 112.078125 94.460938 127.78125 C 94.460938 143.484375 107.207031 156.234375 122.910156 156.234375 C 138.613281 156.234375 151.363281 143.484375 151.363281 127.78125 C 151.363281 112.078125 138.613281 99.332031 122.910156 99.332031 Z M 102.4375 131.152344 C 102.4375 131.152344 102.4375 126.003906 102.4375 126.003906 C 102.4375 125.378906 102.792969 124.792969 103.378906 124.515625 L 108.652344 122.011719 L 103.378906 119.507812 C 102.804688 119.234375 102.4375 118.65625 102.4375 118.019531 C 102.4375 117.386719 102.804688 116.804688 103.378906 116.535156 L 122.207031 107.59375 C 122.652344 107.378906 123.171875 107.378906 123.617188 107.59375 L 142.445312 116.535156 C 143.019531 116.804688 143.386719 117.386719 143.386719 118.019531 C 143.386719 118.65625 143.019531 119.234375 142.445312 119.507812 L 137.171875 122.011719 L 142.445312 124.515625 C 143.027344 124.792969 143.386719 125.378906 143.386719 126.003906 C 143.386719 126.003906 143.386719 131.152344 143.386719 131.152344 C 143.386719 131.722656 143.09375 132.246094 142.617188 132.546875 C 142.5625 132.582031 142.503906 132.613281 142.445312 132.640625 L 137.117188 135.171875 L 142.445312 137.699219 C 143.019531 137.972656 143.386719 138.550781 143.386719 139.1875 C 143.386719 139.824219 143.019531 140.402344 142.445312 140.675781 L 123.617188 149.613281 C 123.171875 149.828125 122.652344 149.828125 122.207031 149.613281 L 103.378906 140.675781 C 102.804688 140.402344 102.4375 139.824219 102.4375 139.1875 C 102.4375 138.550781 102.804688 137.972656 103.378906 137.699219 L 108.703125 135.171875 L 103.378906 132.640625 C 103.320312 132.613281 103.261719 132.582031 103.203125 132.546875 C 102.730469 132.246094 102.4375 131.722656 102.4375 131.152344 Z M 108.238281 125.855469 L 105.730469 127.042969 C 105.730469 127.042969 105.730469 128.550781 105.730469 128.550781 L 108.238281 127.359375 Z M 133.332031 120.191406 L 137.902344 118.019531 L 122.910156 110.902344 L 107.921875 118.019531 L 112.488281 120.191406 L 114.859375 119.066406 C 114.871094 119.058594 114.886719 119.050781 114.902344 119.042969 L 122.207031 115.574219 C 122.652344 115.363281 123.171875 115.363281 123.617188 115.574219 L 130.921875 119.042969 C 130.9375 119.050781 130.953125 119.058594 130.964844 119.066406 Z M 140.09375 127.042969 L 137.585938 125.855469 L 137.585938 127.359375 L 140.09375 128.550781 Z M 137.902344 131.152344 L 135.363281 129.949219 C 135.277344 129.914062 135.195312 129.875 135.113281 129.832031 L 129.742188 127.28125 C 129.597656 127.234375 129.464844 127.167969 129.339844 127.089844 L 122.910156 124.035156 L 116.484375 127.089844 C 116.359375 127.167969 116.226562 127.234375 116.082031 127.28125 L 110.707031 129.832031 C 110.628906 129.875 110.546875 129.914062 110.460938 129.949219 L 107.921875 131.152344 L 112.542969 133.347656 L 122.207031 128.757812 C 122.652344 128.546875 123.171875 128.546875 123.617188 128.757812 L 133.28125 133.347656 Z M 113.9375 123.148438 L 111.527344 124.289062 L 111.527344 125.796875 L 113.9375 124.652344 Z M 134.292969 124.289062 L 131.886719 123.148438 L 131.886719 124.652344 L 134.292969 125.796875 Z M 121.265625 119.667969 L 117.230469 121.582031 L 117.230469 123.089844 L 121.265625 121.171875 Z M 128.59375 121.582031 L 124.558594 119.667969 L 124.558594 121.171875 L 128.59375 123.089844 Z M 122.910156 132.070312 L 107.921875 139.1875 L 122.910156 146.304688 L 137.902344 139.1875 Z M 122.910156 132.070312 " fill-opacity="1" fill-rule="evenodd"/></g><g clip-path="url(#87d04b8640)"><g clip-path="url(#b60885f5d9)"><g transform="matrix(1, 0, 0, 1, 0.000000000000000028, 172)"><g clip-path="url(#a80075913b)"><g clip-path="url(#e5cd1461ad)"><g clip-path="url(#3d65c78614)"><path fill="#00a77a" d="M 0.203125 0.140625 L 284.105469 0.140625 L 284.105469 50.648438 L 0.203125 50.648438 Z M 0.203125 0.140625 " fill-opacity="1" fill-rule="nonzero"/></g></g></g></g></g></g><g fill="#ffffff" fill-opacity="1"><g transform="translate(6.333772, 206.592426)"><g><path d="M 2.15625 -18.171875 L 6.359375 -18.171875 L 6.359375 0 L 2.15625 0 Z M 2.15625 -18.171875 "/></g></g></g><g fill="#ffffff" fill-opacity="1"><g transform="translate(14.847144, 206.592426)"><g><path d="M 6.5625 0.203125 C 5.40625 0.203125 4.269531 0.0585938 3.15625 -0.21875 C 2.050781 -0.507812 1.171875 -0.867188 0.515625 -1.296875 L 1.875 -4.203125 C 2.488281 -3.804688 3.238281 -3.484375 4.125 -3.234375 C 5.007812 -2.984375 5.875 -2.859375 6.71875 -2.859375 C 8.4375 -2.859375 9.296875 -3.28125 9.296875 -4.125 C 9.296875 -4.519531 9.0625 -4.804688 8.59375 -4.984375 C 8.125 -5.160156 7.40625 -5.304688 6.4375 -5.421875 C 5.289062 -5.597656 4.34375 -5.796875 3.59375 -6.015625 C 2.851562 -6.242188 2.210938 -6.644531 1.671875 -7.21875 C 1.128906 -7.789062 0.859375 -8.601562 0.859375 -9.65625 C 0.859375 -10.539062 1.113281 -11.320312 1.625 -12 C 2.132812 -12.6875 2.878906 -13.21875 3.859375 -13.59375 C 4.835938 -13.976562 5.988281 -14.171875 7.3125 -14.171875 C 8.300781 -14.171875 9.285156 -14.0625 10.265625 -13.84375 C 11.242188 -13.625 12.050781 -13.328125 12.6875 -12.953125 L 11.34375 -10.0625 C 10.113281 -10.757812 8.769531 -11.109375 7.3125 -11.109375 C 6.445312 -11.109375 5.796875 -10.984375 5.359375 -10.734375 C 4.929688 -10.492188 4.71875 -10.1875 4.71875 -9.8125 C 4.71875 -9.375 4.953125 -9.066406 5.421875 -8.890625 C 5.890625 -8.722656 6.632812 -8.5625 7.65625 -8.40625 C 8.800781 -8.21875 9.734375 -8.015625 10.453125 -7.796875 C 11.179688 -7.578125 11.8125 -7.179688 12.34375 -6.609375 C 12.882812 -6.046875 13.15625 -5.253906 13.15625 -4.234375 C 13.15625 -3.367188 12.894531 -2.597656 12.375 -1.921875 C 11.851562 -1.242188 11.09375 -0.71875 10.09375 -0.34375 C 9.101562 0.0195312 7.925781 0.203125 6.5625 0.203125 Z M 6.5625 0.203125 "/></g></g></g><g fill="#ffffff" fill-opacity="1"><g transform="translate(28.629454, 206.592426)"><g><path d="M 8.515625 0.203125 C 7.046875 0.203125 5.722656 -0.101562 4.546875 -0.71875 C 3.378906 -1.332031 2.46875 -2.179688 1.8125 -3.265625 C 1.15625 -4.359375 0.828125 -5.597656 0.828125 -6.984375 C 0.828125 -8.367188 1.15625 -9.601562 1.8125 -10.6875 C 2.46875 -11.78125 3.378906 -12.632812 4.546875 -13.25 C 5.722656 -13.863281 7.046875 -14.171875 8.515625 -14.171875 C 9.984375 -14.171875 11.296875 -13.863281 12.453125 -13.25 C 13.617188 -12.632812 14.53125 -11.78125 15.1875 -10.6875 C 15.84375 -9.601562 16.171875 -8.367188 16.171875 -6.984375 C 16.171875 -5.597656 15.84375 -4.359375 15.1875 -3.265625 C 14.53125 -2.179688 13.617188 -1.332031 12.453125 -0.71875 C 11.296875 -0.101562 9.984375 0.203125 8.515625 0.203125 Z M 8.515625 -3.109375 C 9.546875 -3.109375 10.394531 -3.457031 11.0625 -4.15625 C 11.726562 -4.863281 12.0625 -5.804688 12.0625 -6.984375 C 12.0625 -8.160156 11.726562 -9.097656 11.0625 -9.796875 C 10.394531 -10.492188 9.546875 -10.84375 8.515625 -10.84375 C 7.472656 -10.84375 6.613281 -10.492188 5.9375 -9.796875 C 5.269531 -9.097656 4.9375 -8.160156 4.9375 -6.984375 C 4.9375 -5.804688 5.269531 -4.863281 5.9375 -4.15625 C 6.613281 -3.457031 7.472656 -3.109375 8.515625 -3.109375 Z M 8.515625 -3.109375 "/></g></g></g><g fill="#ffffff" fill-opacity="1"><g transform="translate(45.630245, 206.592426)"><g><path d="M 1.875 -19.25 L 5.921875 -19.25 L 5.921875 0 L 1.875 0 Z M 1.875 -19.25 "/></g></g></g><g fill="#ffffff" fill-opacity="1"><g transform="translate(53.442824, 206.592426)"><g><path d="M 7.5 -14.171875 C 9.664062 -14.171875 11.328125 -13.65625 12.484375 -12.625 C 13.640625 -11.59375 14.21875 -10.039062 14.21875 -7.96875 L 14.21875 0 L 10.4375 0 L 10.4375 -1.734375 C 9.675781 -0.441406 8.253906 0.203125 6.171875 0.203125 C 5.097656 0.203125 4.164062 0.0234375 3.375 -0.328125 C 2.59375 -0.691406 1.992188 -1.191406 1.578125 -1.828125 C 1.160156 -2.472656 0.953125 -3.203125 0.953125 -4.015625 C 0.953125 -5.316406 1.441406 -6.335938 2.421875 -7.078125 C 3.398438 -7.828125 4.910156 -8.203125 6.953125 -8.203125 L 10.171875 -8.203125 C 10.171875 -9.085938 9.898438 -9.765625 9.359375 -10.234375 C 8.828125 -10.710938 8.023438 -10.953125 6.953125 -10.953125 C 6.210938 -10.953125 5.484375 -10.832031 4.765625 -10.59375 C 4.046875 -10.363281 3.4375 -10.050781 2.9375 -9.65625 L 1.484375 -12.484375 C 2.242188 -13.015625 3.15625 -13.425781 4.21875 -13.71875 C 5.28125 -14.019531 6.375 -14.171875 7.5 -14.171875 Z M 7.1875 -2.515625 C 7.882812 -2.515625 8.5 -2.675781 9.03125 -3 C 9.570312 -3.320312 9.953125 -3.789062 10.171875 -4.40625 L 10.171875 -5.84375 L 7.390625 -5.84375 C 5.734375 -5.84375 4.90625 -5.296875 4.90625 -4.203125 C 4.90625 -3.679688 5.109375 -3.269531 5.515625 -2.96875 C 5.921875 -2.664062 6.476562 -2.515625 7.1875 -2.515625 Z M 7.1875 -2.515625 "/></g></g></g><g fill="#ffffff" fill-opacity="1"><g transform="translate(69.457309, 206.592426)"><g><path d="M 10.875 -0.671875 C 10.476562 -0.378906 9.988281 -0.160156 9.40625 -0.015625 C 8.820312 0.128906 8.210938 0.203125 7.578125 0.203125 C 5.921875 0.203125 4.632812 -0.21875 3.71875 -1.0625 C 2.8125 -1.90625 2.359375 -3.148438 2.359375 -4.796875 L 2.359375 -10.53125 L 0.203125 -10.53125 L 0.203125 -13.65625 L 2.359375 -13.65625 L 2.359375 -17.046875 L 6.40625 -17.046875 L 6.40625 -13.65625 L 9.890625 -13.65625 L 9.890625 -10.53125 L 6.40625 -10.53125 L 6.40625 -4.859375 C 6.40625 -4.265625 6.554688 -3.804688 6.859375 -3.484375 C 7.160156 -3.171875 7.59375 -3.015625 8.15625 -3.015625 C 8.789062 -3.015625 9.332031 -3.1875 9.78125 -3.53125 Z M 10.875 -0.671875 "/></g></g></g><g fill="#ffffff" fill-opacity="1"><g transform="translate(80.747907, 206.592426)"><g><path d="M 1.875 -13.96875 L 5.921875 -13.96875 L 5.921875 0 L 1.875 0 Z M 3.890625 -15.90625 C 3.140625 -15.90625 2.53125 -16.117188 2.0625 -16.546875 C 1.601562 -16.984375 1.375 -17.523438 1.375 -18.171875 C 1.375 -18.804688 1.601562 -19.335938 2.0625 -19.765625 C 2.53125 -20.203125 3.140625 -20.421875 3.890625 -20.421875 C 4.628906 -20.421875 5.234375 -20.210938 5.703125 -19.796875 C 6.171875 -19.378906 6.40625 -18.863281 6.40625 -18.25 C 6.40625 -17.570312 6.171875 -17.007812 5.703125 -16.5625 C 5.234375 -16.125 4.628906 -15.90625 3.890625 -15.90625 Z M 3.890625 -15.90625 "/></g></g></g><g fill="#ffffff" fill-opacity="1"><g transform="translate(88.560487, 206.592426)"><g><path d="M 15.546875 -6.921875 C 15.546875 -6.878906 15.519531 -6.519531 15.46875 -5.84375 L 4.90625 -5.84375 C 5.09375 -4.976562 5.539062 -4.289062 6.25 -3.78125 C 6.957031 -3.28125 7.84375 -3.03125 8.90625 -3.03125 C 9.625 -3.03125 10.265625 -3.140625 10.828125 -3.359375 C 11.390625 -3.578125 11.914062 -3.921875 12.40625 -4.390625 L 14.5625 -2.046875 C 13.25 -0.546875 11.328125 0.203125 8.796875 0.203125 C 7.222656 0.203125 5.828125 -0.101562 4.609375 -0.71875 C 3.398438 -1.332031 2.46875 -2.179688 1.8125 -3.265625 C 1.15625 -4.359375 0.828125 -5.597656 0.828125 -6.984375 C 0.828125 -8.347656 1.148438 -9.578125 1.796875 -10.671875 C 2.453125 -11.773438 3.34375 -12.632812 4.46875 -13.25 C 5.601562 -13.863281 6.875 -14.171875 8.28125 -14.171875 C 9.644531 -14.171875 10.878906 -13.875 11.984375 -13.28125 C 13.097656 -12.695312 13.96875 -11.851562 14.59375 -10.75 C 15.226562 -9.65625 15.546875 -8.378906 15.546875 -6.921875 Z M 8.3125 -11.109375 C 7.382812 -11.109375 6.609375 -10.847656 5.984375 -10.328125 C 5.367188 -9.804688 4.992188 -9.097656 4.859375 -8.203125 L 11.734375 -8.203125 C 11.585938 -9.085938 11.203125 -9.789062 10.578125 -10.3125 C 9.960938 -10.84375 9.207031 -11.109375 8.3125 -11.109375 Z M 8.3125 -11.109375 "/></g></g></g><g fill="#ffffff" fill-opacity="1"><g transform="translate(104.938343, 206.592426)"><g/></g></g><g fill="#ffffff" fill-opacity="1"><g transform="translate(112.283716, 206.592426)"><g><path d="M 7.5 -14.171875 C 9.664062 -14.171875 11.328125 -13.65625 12.484375 -12.625 C 13.640625 -11.59375 14.21875 -10.039062 14.21875 -7.96875 L 14.21875 0 L 10.4375 0 L 10.4375 -1.734375 C 9.675781 -0.441406 8.253906 0.203125 6.171875 0.203125 C 5.097656 0.203125 4.164062 0.0234375 3.375 -0.328125 C 2.59375 -0.691406 1.992188 -1.191406 1.578125 -1.828125 C 1.160156 -2.472656 0.953125 -3.203125 0.953125 -4.015625 C 0.953125 -5.316406 1.441406 -6.335938 2.421875 -7.078125 C 3.398438 -7.828125 4.910156 -8.203125 6.953125 -8.203125 L 10.171875 -8.203125 C 10.171875 -9.085938 9.898438 -9.765625 9.359375 -10.234375 C 8.828125 -10.710938 8.023438 -10.953125 6.953125 -10.953125 C 6.210938 -10.953125 5.484375 -10.832031 4.765625 -10.59375 C 4.046875 -10.363281 3.4375 -10.050781 2.9375 -9.65625 L 1.484375 -12.484375 C 2.242188 -13.015625 3.15625 -13.425781 4.21875 -13.71875 C 5.28125 -14.019531 6.375 -14.171875 7.5 -14.171875 Z M 7.1875 -2.515625 C 7.882812 -2.515625 8.5 -2.675781 9.03125 -3 C 9.570312 -3.320312 9.953125 -3.789062 10.171875 -4.40625 L 10.171875 -5.84375 L 7.390625 -5.84375 C 5.734375 -5.84375 4.90625 -5.296875 4.90625 -4.203125 C 4.90625 -3.679688 5.109375 -3.269531 5.515625 -2.96875 C 5.921875 -2.664062 6.476562 -2.515625 7.1875 -2.515625 Z M 7.1875 -2.515625 "/></g></g></g><g fill="#ffffff" fill-opacity="1"><g transform="translate(128.298201, 206.592426)"><g><path d="M 7.5 -14.171875 C 9.664062 -14.171875 11.328125 -13.65625 12.484375 -12.625 C 13.640625 -11.59375 14.21875 -10.039062 14.21875 -7.96875 L 14.21875 0 L 10.4375 0 L 10.4375 -1.734375 C 9.675781 -0.441406 8.253906 0.203125 6.171875 0.203125 C 5.097656 0.203125 4.164062 0.0234375 3.375 -0.328125 C 2.59375 -0.691406 1.992188 -1.191406 1.578125 -1.828125 C 1.160156 -2.472656 0.953125 -3.203125 0.953125 -4.015625 C 0.953125 -5.316406 1.441406 -6.335938 2.421875 -7.078125 C 3.398438 -7.828125 4.910156 -8.203125 6.953125 -8.203125 L 10.171875 -8.203125 C 10.171875 -9.085938 9.898438 -9.765625 9.359375 -10.234375 C 8.828125 -10.710938 8.023438 -10.953125 6.953125 -10.953125 C 6.210938 -10.953125 5.484375 -10.832031 4.765625 -10.59375 C 4.046875 -10.363281 3.4375 -10.050781 2.9375 -9.65625 L 1.484375 -12.484375 C 2.242188 -13.015625 3.15625 -13.425781 4.21875 -13.71875 C 5.28125 -14.019531 6.375 -14.171875 7.5 -14.171875 Z M 7.1875 -2.515625 C 7.882812 -2.515625 8.5 -2.675781 9.03125 -3 C 9.570312 -3.320312 9.953125 -3.789062 10.171875 -4.40625 L 10.171875 -5.84375 L 7.390625 -5.84375 C 5.734375 -5.84375 4.90625 -5.296875 4.90625 -4.203125 C 4.90625 -3.679688 5.109375 -3.269531 5.515625 -2.96875 C 5.921875 -2.664062 6.476562 -2.515625 7.1875 -2.515625 Z M 7.1875 -2.515625 "/></g></g></g><g fill="#ffffff" fill-opacity="1"><g transform="translate(144.312685, 206.592426)"><g><path d="M 10.359375 -14.171875 C 12.085938 -14.171875 13.484375 -13.648438 14.546875 -12.609375 C 15.609375 -11.578125 16.140625 -10.039062 16.140625 -8 L 16.140625 0 L 12.09375 0 L 12.09375 -7.375 C 12.09375 -8.476562 11.847656 -9.300781 11.359375 -9.84375 C 10.878906 -10.394531 10.179688 -10.671875 9.265625 -10.671875 C 8.242188 -10.671875 7.429688 -10.351562 6.828125 -9.71875 C 6.222656 -9.082031 5.921875 -8.144531 5.921875 -6.90625 L 5.921875 0 L 1.875 0 L 1.875 -13.96875 L 5.734375 -13.96875 L 5.734375 -12.328125 C 6.273438 -12.910156 6.941406 -13.363281 7.734375 -13.6875 C 8.523438 -14.007812 9.398438 -14.171875 10.359375 -14.171875 Z M 10.359375 -14.171875 "/></g></g></g><g fill="#ffffff" fill-opacity="1"><g transform="translate(162.247865, 206.592426)"><g><path d="M 10.125 -14.171875 C 11.414062 -14.171875 12.59375 -13.867188 13.65625 -13.265625 C 14.726562 -12.671875 15.566406 -11.832031 16.171875 -10.75 C 16.773438 -9.675781 17.078125 -8.421875 17.078125 -6.984375 C 17.078125 -5.546875 16.773438 -4.285156 16.171875 -3.203125 C 15.566406 -2.117188 14.726562 -1.28125 13.65625 -0.6875 C 12.59375 -0.09375 11.414062 0.203125 10.125 0.203125 C 8.195312 0.203125 6.734375 -0.398438 5.734375 -1.609375 L 5.734375 0 L 1.875 0 L 1.875 -19.25 L 5.921875 -19.25 L 5.921875 -12.484375 C 6.941406 -13.609375 8.34375 -14.171875 10.125 -14.171875 Z M 9.421875 -3.109375 C 10.460938 -3.109375 11.3125 -3.457031 11.96875 -4.15625 C 12.632812 -4.863281 12.96875 -5.804688 12.96875 -6.984375 C 12.96875 -8.160156 12.632812 -9.097656 11.96875 -9.796875 C 11.3125 -10.492188 10.460938 -10.84375 9.421875 -10.84375 C 8.378906 -10.84375 7.523438 -10.492188 6.859375 -9.796875 C 6.191406 -9.097656 5.859375 -8.160156 5.859375 -6.984375 C 5.859375 -5.804688 6.191406 -4.863281 6.859375 -4.15625 C 7.523438 -3.457031 8.378906 -3.109375 9.421875 -3.109375 Z M 9.421875 -3.109375 "/></g></g></g><g fill="#ffffff" fill-opacity="1"><g transform="translate(180.157092, 206.592426)"><g><path d="M 5.734375 -12.125 C 6.222656 -12.789062 6.875 -13.296875 7.6875 -13.640625 C 8.507812 -13.992188 9.457031 -14.171875 10.53125 -14.171875 L 10.53125 -10.4375 C 10.082031 -10.46875 9.78125 -10.484375 9.625 -10.484375 C 8.46875 -10.484375 7.5625 -10.15625 6.90625 -9.5 C 6.25 -8.851562 5.921875 -7.882812 5.921875 -6.59375 L 5.921875 0 L 1.875 0 L 1.875 -13.96875 L 5.734375 -13.96875 Z M 5.734375 -12.125 "/></g></g></g><g fill="#ffffff" fill-opacity="1"><g transform="translate(191.110248, 206.592426)"><g><path d="M 15.546875 -6.921875 C 15.546875 -6.878906 15.519531 -6.519531 15.46875 -5.84375 L 4.90625 -5.84375 C 5.09375 -4.976562 5.539062 -4.289062 6.25 -3.78125 C 6.957031 -3.28125 7.84375 -3.03125 8.90625 -3.03125 C 9.625 -3.03125 10.265625 -3.140625 10.828125 -3.359375 C 11.390625 -3.578125 11.914062 -3.921875 12.40625 -4.390625 L 14.5625 -2.046875 C 13.25 -0.546875 11.328125 0.203125 8.796875 0.203125 C 7.222656 0.203125 5.828125 -0.101562 4.609375 -0.71875 C 3.398438 -1.332031 2.46875 -2.179688 1.8125 -3.265625 C 1.15625 -4.359375 0.828125 -5.597656 0.828125 -6.984375 C 0.828125 -8.347656 1.148438 -9.578125 1.796875 -10.671875 C 2.453125 -11.773438 3.34375 -12.632812 4.46875 -13.25 C 5.601562 -13.863281 6.875 -14.171875 8.28125 -14.171875 C 9.644531 -14.171875 10.878906 -13.875 11.984375 -13.28125 C 13.097656 -12.695312 13.96875 -11.851562 14.59375 -10.75 C 15.226562 -9.65625 15.546875 -8.378906 15.546875 -6.921875 Z M 8.3125 -11.109375 C 7.382812 -11.109375 6.609375 -10.847656 5.984375 -10.328125 C 5.367188 -9.804688 4.992188 -9.097656 4.859375 -8.203125 L 11.734375 -8.203125 C 11.585938 -9.085938 11.203125 -9.789062 10.578125 -10.3125 C 9.960938 -10.84375 9.207031 -11.109375 8.3125 -11.109375 Z M 8.3125 -11.109375 "/></g></g></g><g fill="#ffffff" fill-opacity="1"><g transform="translate(207.488116, 206.592426)"><g><path d="M 10.359375 -14.171875 C 12.085938 -14.171875 13.484375 -13.648438 14.546875 -12.609375 C 15.609375 -11.578125 16.140625 -10.039062 16.140625 -8 L 16.140625 0 L 12.09375 0 L 12.09375 -7.375 C 12.09375 -8.476562 11.847656 -9.300781 11.359375 -9.84375 C 10.878906 -10.394531 10.179688 -10.671875 9.265625 -10.671875 C 8.242188 -10.671875 7.429688 -10.351562 6.828125 -9.71875 C 6.222656 -9.082031 5.921875 -8.144531 5.921875 -6.90625 L 5.921875 0 L 1.875 0 L 1.875 -13.96875 L 5.734375 -13.96875 L 5.734375 -12.328125 C 6.273438 -12.910156 6.941406 -13.363281 7.734375 -13.6875 C 8.523438 -14.007812 9.398438 -14.171875 10.359375 -14.171875 Z M 10.359375 -14.171875 "/></g></g></g><g fill="#ffffff" fill-opacity="1"><g transform="translate(225.579047, 206.592426)"><g><path d="M 16.265625 -13.96875 L 16.265625 -2.328125 C 16.265625 0.222656 15.597656 2.125 14.265625 3.375 C 12.941406 4.625 11 5.25 8.4375 5.25 C 7.082031 5.25 5.800781 5.082031 4.59375 4.75 C 3.382812 4.414062 2.378906 3.941406 1.578125 3.328125 L 3.1875 0.421875 C 3.78125 0.898438 4.523438 1.28125 5.421875 1.5625 C 6.328125 1.851562 7.226562 2 8.125 2 C 9.519531 2 10.550781 1.679688 11.21875 1.046875 C 11.882812 0.421875 12.21875 -0.53125 12.21875 -1.8125 L 12.21875 -2.40625 C 11.164062 -1.25 9.695312 -0.671875 7.8125 -0.671875 C 6.53125 -0.671875 5.359375 -0.953125 4.296875 -1.515625 C 3.234375 -2.078125 2.390625 -2.867188 1.765625 -3.890625 C 1.140625 -4.910156 0.828125 -6.085938 0.828125 -7.421875 C 0.828125 -8.753906 1.140625 -9.929688 1.765625 -10.953125 C 2.390625 -11.972656 3.234375 -12.765625 4.296875 -13.328125 C 5.359375 -13.890625 6.53125 -14.171875 7.8125 -14.171875 C 9.832031 -14.171875 11.375 -13.503906 12.4375 -12.171875 L 12.4375 -13.96875 Z M 8.609375 -4 C 9.679688 -4 10.5625 -4.3125 11.25 -4.9375 C 11.9375 -5.570312 12.28125 -6.398438 12.28125 -7.421875 C 12.28125 -8.441406 11.9375 -9.265625 11.25 -9.890625 C 10.5625 -10.523438 9.679688 -10.84375 8.609375 -10.84375 C 7.535156 -10.84375 6.65625 -10.523438 5.96875 -9.890625 C 5.28125 -9.265625 4.9375 -8.441406 4.9375 -7.421875 C 4.9375 -6.398438 5.28125 -5.570312 5.96875 -4.9375 C 6.65625 -4.3125 7.535156 -4 8.609375 -4 Z M 8.609375 -4 "/></g></g></g><g fill="#ffffff" fill-opacity="1"><g transform="translate(243.747824, 206.592426)"><g><path d="M 15.546875 -6.921875 C 15.546875 -6.878906 15.519531 -6.519531 15.46875 -5.84375 L 4.90625 -5.84375 C 5.09375 -4.976562 5.539062 -4.289062 6.25 -3.78125 C 6.957031 -3.28125 7.84375 -3.03125 8.90625 -3.03125 C 9.625 -3.03125 10.265625 -3.140625 10.828125 -3.359375 C 11.390625 -3.578125 11.914062 -3.921875 12.40625 -4.390625 L 14.5625 -2.046875 C 13.25 -0.546875 11.328125 0.203125 8.796875 0.203125 C 7.222656 0.203125 5.828125 -0.101562 4.609375 -0.71875 C 3.398438 -1.332031 2.46875 -2.179688 1.8125 -3.265625 C 1.15625 -4.359375 0.828125 -5.597656 0.828125 -6.984375 C 0.828125 -8.347656 1.148438 -9.578125 1.796875 -10.671875 C 2.453125 -11.773438 3.34375 -12.632812 4.46875 -13.25 C 5.601562 -13.863281 6.875 -14.171875 8.28125 -14.171875 C 9.644531 -14.171875 10.878906 -13.875 11.984375 -13.28125 C 13.097656 -12.695312 13.96875 -11.851562 14.59375 -10.75 C 15.226562 -9.65625 15.546875 -8.378906 15.546875 -6.921875 Z M 8.3125 -11.109375 C 7.382812 -11.109375 6.609375 -10.847656 5.984375 -10.328125 C 5.367188 -9.804688 4.992188 -9.097656 4.859375 -8.203125 L 11.734375 -8.203125 C 11.585938 -9.085938 11.203125 -9.789062 10.578125 -10.3125 C 9.960938 -10.84375 9.207031 -11.109375 8.3125 -11.109375 Z M 8.3125 -11.109375 "/></g></g></g><g fill="#ffffff" fill-opacity="1"><g transform="translate(260.125669, 206.592426)"><g><path d="M 10.359375 -14.171875 C 12.085938 -14.171875 13.484375 -13.648438 14.546875 -12.609375 C 15.609375 -11.578125 16.140625 -10.039062 16.140625 -8 L 16.140625 0 L 12.09375 0 L 12.09375 -7.375 C 12.09375 -8.476562 11.847656 -9.300781 11.359375 -9.84375 C 10.878906 -10.394531 10.179688 -10.671875 9.265625 -10.671875 C 8.242188 -10.671875 7.429688 -10.351562 6.828125 -9.71875 C 6.222656 -9.082031 5.921875 -8.144531 5.921875 -6.90625 L 5.921875 0 L 1.875 0 L 1.875 -13.96875 L 5.734375 -13.96875 L 5.734375 -12.328125 C 6.273438 -12.910156 6.941406 -13.363281 7.734375 -13.6875 C 8.523438 -14.007812 9.398438 -14.171875 10.359375 -14.171875 Z M 10.359375 -14.171875 "/></g></g></g><g clip-path="url(#415645452b)"><g clip-path="url(#4b5bb24a50)"><g mask="url(#e82f783945)"><g transform="matrix(1, 0, 0, 1, 0.000000000000000028, 229)"><g clip-path="url(#a9e85d341d)"><g clip-path="url(#8deb0e3f49)"><g clip-path="url(#7a110bb8f3)"><path fill="#00a77a" d="M 0.203125 0.355469 L 284.21875 0.355469 L 284.21875 122.761719 L 0.203125 122.761719 Z M 0.203125 0.355469 " fill-opacity="1" fill-rule="nonzero"/></g></g></g></g></g></g></g><g fill="#ffffff" fill-opacity="1"><g transform="translate(59.70728, 263.807998)"><g><path d="M 18.140625 -18.171875 L 18.140625 0 L 16.25 0 L 16.25 -8.390625 L 4.875 -8.390625 L 4.875 0 L 2.953125 0 L 2.953125 -18.171875 L 4.875 -18.171875 L 4.875 -10.0625 L 16.25 -10.0625 L 16.25 -18.171875 Z M 18.140625 -18.171875 "/></g></g></g><g fill="#ffffff" fill-opacity="1"><g transform="translate(80.809023, 263.807998)"><g><path d="M 14.453125 -6.25 L 3.03125 -6.25 C 3.132812 -4.832031 3.679688 -3.6875 4.671875 -2.8125 C 5.660156 -1.9375 6.90625 -1.5 8.40625 -1.5 C 9.257812 -1.5 10.039062 -1.648438 10.75 -1.953125 C 11.457031 -2.253906 12.070312 -2.703125 12.59375 -3.296875 L 13.625 -2.109375 C 13.019531 -1.378906 12.257812 -0.820312 11.34375 -0.4375 C 10.4375 -0.0625 9.441406 0.125 8.359375 0.125 C 6.953125 0.125 5.707031 -0.171875 4.625 -0.765625 C 3.550781 -1.359375 2.707031 -2.179688 2.09375 -3.234375 C 1.488281 -4.296875 1.1875 -5.492188 1.1875 -6.828125 C 1.1875 -8.160156 1.476562 -9.351562 2.0625 -10.40625 C 2.644531 -11.457031 3.441406 -12.273438 4.453125 -12.859375 C 5.460938 -13.453125 6.597656 -13.75 7.859375 -13.75 C 9.128906 -13.75 10.265625 -13.453125 11.265625 -12.859375 C 12.265625 -12.273438 13.050781 -11.457031 13.625 -10.40625 C 14.195312 -9.363281 14.484375 -8.171875 14.484375 -6.828125 Z M 7.859375 -12.171875 C 6.546875 -12.171875 5.441406 -11.75 4.546875 -10.90625 C 3.660156 -10.070312 3.15625 -8.976562 3.03125 -7.625 L 12.71875 -7.625 C 12.59375 -8.976562 12.082031 -10.070312 11.1875 -10.90625 C 10.300781 -11.75 9.191406 -12.171875 7.859375 -12.171875 Z M 7.859375 -12.171875 "/></g></g></g><g fill="#ffffff" fill-opacity="1"><g transform="translate(96.486088, 263.807998)"><g><path d="M 9.765625 -0.828125 C 9.410156 -0.515625 8.976562 -0.273438 8.46875 -0.109375 C 7.957031 0.0429688 7.425781 0.125 6.875 0.125 C 5.59375 0.125 4.601562 -0.21875 3.90625 -0.90625 C 3.21875 -1.601562 2.875 -2.582031 2.875 -3.84375 L 2.875 -12.09375 L 0.4375 -12.09375 L 0.4375 -13.65625 L 2.875 -13.65625 L 2.875 -16.640625 L 4.71875 -16.640625 L 4.71875 -13.65625 L 8.875 -13.65625 L 8.875 -12.09375 L 4.71875 -12.09375 L 4.71875 -3.9375 C 4.71875 -3.125 4.921875 -2.503906 5.328125 -2.078125 C 5.734375 -1.660156 6.316406 -1.453125 7.078125 -1.453125 C 7.460938 -1.453125 7.832031 -1.507812 8.1875 -1.625 C 8.539062 -1.75 8.847656 -1.925781 9.109375 -2.15625 Z M 9.765625 -0.828125 "/></g></g></g><g fill="#ffffff" fill-opacity="1"><g transform="translate(107.023977, 263.807998)"><g/></g></g><g fill="#ffffff" fill-opacity="1"><g transform="translate(113.824287, 263.807998)"><g><path d="M 15.203125 -13.65625 L 15.203125 -1.65625 C 15.203125 0.652344 14.632812 2.367188 13.5 3.484375 C 12.375 4.609375 10.671875 5.171875 8.390625 5.171875 C 7.117188 5.171875 5.914062 4.984375 4.78125 4.609375 C 3.65625 4.234375 2.738281 3.71875 2.03125 3.0625 L 2.953125 1.65625 C 3.609375 2.25 4.410156 2.707031 5.359375 3.03125 C 6.304688 3.363281 7.296875 3.53125 8.328125 3.53125 C 10.054688 3.53125 11.328125 3.125 12.140625 2.3125 C 12.953125 1.507812 13.359375 0.261719 13.359375 -1.421875 L 13.359375 -3.171875 C 12.796875 -2.304688 12.050781 -1.644531 11.125 -1.1875 C 10.195312 -0.738281 9.171875 -0.515625 8.046875 -0.515625 C 6.765625 -0.515625 5.597656 -0.796875 4.546875 -1.359375 C 3.503906 -1.921875 2.679688 -2.707031 2.078125 -3.71875 C 1.484375 -4.738281 1.1875 -5.882812 1.1875 -7.15625 C 1.1875 -8.4375 1.484375 -9.578125 2.078125 -10.578125 C 2.679688 -11.585938 3.5 -12.367188 4.53125 -12.921875 C 5.570312 -13.472656 6.742188 -13.75 8.046875 -13.75 C 9.203125 -13.75 10.25 -13.515625 11.1875 -13.046875 C 12.125 -12.585938 12.875 -11.914062 13.4375 -11.03125 L 13.4375 -13.65625 Z M 8.234375 -2.15625 C 9.210938 -2.15625 10.097656 -2.363281 10.890625 -2.78125 C 11.691406 -3.207031 12.3125 -3.800781 12.75 -4.5625 C 13.195312 -5.320312 13.421875 -6.1875 13.421875 -7.15625 C 13.421875 -8.125 13.195312 -8.984375 12.75 -9.734375 C 12.3125 -10.492188 11.695312 -11.082031 10.90625 -11.5 C 10.125 -11.925781 9.234375 -12.140625 8.234375 -12.140625 C 7.242188 -12.140625 6.351562 -11.929688 5.5625 -11.515625 C 4.78125 -11.109375 4.164062 -10.519531 3.71875 -9.75 C 3.28125 -8.988281 3.0625 -8.125 3.0625 -7.15625 C 3.0625 -6.1875 3.28125 -5.320312 3.71875 -4.5625 C 4.164062 -3.800781 4.78125 -3.207031 5.5625 -2.78125 C 6.351562 -2.363281 7.242188 -2.15625 8.234375 -2.15625 Z M 8.234375 -2.15625 "/></g></g></g><g fill="#ffffff" fill-opacity="1"><g transform="translate(131.629691, 263.807998)"><g><path d="M 14.453125 -6.25 L 3.03125 -6.25 C 3.132812 -4.832031 3.679688 -3.6875 4.671875 -2.8125 C 5.660156 -1.9375 6.90625 -1.5 8.40625 -1.5 C 9.257812 -1.5 10.039062 -1.648438 10.75 -1.953125 C 11.457031 -2.253906 12.070312 -2.703125 12.59375 -3.296875 L 13.625 -2.109375 C 13.019531 -1.378906 12.257812 -0.820312 11.34375 -0.4375 C 10.4375 -0.0625 9.441406 0.125 8.359375 0.125 C 6.953125 0.125 5.707031 -0.171875 4.625 -0.765625 C 3.550781 -1.359375 2.707031 -2.179688 2.09375 -3.234375 C 1.488281 -4.296875 1.1875 -5.492188 1.1875 -6.828125 C 1.1875 -8.160156 1.476562 -9.351562 2.0625 -10.40625 C 2.644531 -11.457031 3.441406 -12.273438 4.453125 -12.859375 C 5.460938 -13.453125 6.597656 -13.75 7.859375 -13.75 C 9.128906 -13.75 10.265625 -13.453125 11.265625 -12.859375 C 12.265625 -12.273438 13.050781 -11.457031 13.625 -10.40625 C 14.195312 -9.363281 14.484375 -8.171875 14.484375 -6.828125 Z M 7.859375 -12.171875 C 6.546875 -12.171875 5.441406 -11.75 4.546875 -10.90625 C 3.660156 -10.070312 3.15625 -8.976562 3.03125 -7.625 L 12.71875 -7.625 C 12.59375 -8.976562 12.082031 -10.070312 11.1875 -10.90625 C 10.300781 -11.75 9.191406 -12.171875 7.859375 -12.171875 Z M 7.859375 -12.171875 "/></g></g></g><g fill="#ffffff" fill-opacity="1"><g transform="translate(147.306756, 263.807998)"><g><path d="M 7.625 -6.859375 L 4.40625 -3.890625 L 4.40625 0 L 2.5625 0 L 2.5625 -19.25 L 4.40625 -19.25 L 4.40625 -6.203125 L 12.5625 -13.65625 L 14.84375 -13.65625 L 9 -8.078125 L 15.390625 0 L 13.125 0 Z M 7.625 -6.859375 "/></g></g></g><g fill="#ffffff" fill-opacity="1"><g transform="translate(162.36083, 263.807998)"><g><path d="M 8.15625 0.125 C 6.832031 0.125 5.644531 -0.171875 4.59375 -0.765625 C 3.539062 -1.359375 2.707031 -2.179688 2.09375 -3.234375 C 1.488281 -4.296875 1.1875 -5.492188 1.1875 -6.828125 C 1.1875 -8.160156 1.488281 -9.351562 2.09375 -10.40625 C 2.707031 -11.457031 3.539062 -12.273438 4.59375 -12.859375 C 5.644531 -13.453125 6.832031 -13.75 8.15625 -13.75 C 9.46875 -13.75 10.648438 -13.453125 11.703125 -12.859375 C 12.753906 -12.273438 13.578125 -11.457031 14.171875 -10.40625 C 14.773438 -9.351562 15.078125 -8.160156 15.078125 -6.828125 C 15.078125 -5.492188 14.773438 -4.296875 14.171875 -3.234375 C 13.578125 -2.179688 12.753906 -1.359375 11.703125 -0.765625 C 10.648438 -0.171875 9.46875 0.125 8.15625 0.125 Z M 8.15625 -1.5 C 9.125 -1.5 9.988281 -1.71875 10.75 -2.15625 C 11.519531 -2.601562 12.117188 -3.234375 12.546875 -4.046875 C 12.984375 -4.859375 13.203125 -5.785156 13.203125 -6.828125 C 13.203125 -7.867188 12.984375 -8.796875 12.546875 -9.609375 C 12.117188 -10.421875 11.519531 -11.046875 10.75 -11.484375 C 9.988281 -11.921875 9.125 -12.140625 8.15625 -12.140625 C 7.1875 -12.140625 6.316406 -11.921875 5.546875 -11.484375 C 4.773438 -11.046875 4.164062 -10.421875 3.71875 -9.609375 C 3.28125 -8.796875 3.0625 -7.867188 3.0625 -6.828125 C 3.0625 -5.785156 3.28125 -4.859375 3.71875 -4.046875 C 4.164062 -3.234375 4.773438 -2.601562 5.546875 -2.15625 C 6.316406 -1.71875 7.1875 -1.5 8.15625 -1.5 Z M 8.15625 -1.5 "/></g></g></g><g fill="#ffffff" fill-opacity="1"><g transform="translate(178.401244, 263.807998)"><g><path d="M 12.203125 -1.53125 L 12.203125 0 L 1.09375 0 L 1.09375 -1.21875 L 9.6875 -12.09375 L 1.25 -12.09375 L 1.25 -13.65625 L 12.046875 -13.65625 L 12.046875 -12.4375 L 3.453125 -1.53125 Z M 12.203125 -1.53125 "/></g></g></g><g fill="#ffffff" fill-opacity="1"><g transform="translate(191.430834, 263.807998)"><g><path d="M 14.453125 -6.25 L 3.03125 -6.25 C 3.132812 -4.832031 3.679688 -3.6875 4.671875 -2.8125 C 5.660156 -1.9375 6.90625 -1.5 8.40625 -1.5 C 9.257812 -1.5 10.039062 -1.648438 10.75 -1.953125 C 11.457031 -2.253906 12.070312 -2.703125 12.59375 -3.296875 L 13.625 -2.109375 C 13.019531 -1.378906 12.257812 -0.820312 11.34375 -0.4375 C 10.4375 -0.0625 9.441406 0.125 8.359375 0.125 C 6.953125 0.125 5.707031 -0.171875 4.625 -0.765625 C 3.550781 -1.359375 2.707031 -2.179688 2.09375 -3.234375 C 1.488281 -4.296875 1.1875 -5.492188 1.1875 -6.828125 C 1.1875 -8.160156 1.476562 -9.351562 2.0625 -10.40625 C 2.644531 -11.457031 3.441406 -12.273438 4.453125 -12.859375 C 5.460938 -13.453125 6.597656 -13.75 7.859375 -13.75 C 9.128906 -13.75 10.265625 -13.453125 11.265625 -12.859375 C 12.265625 -12.273438 13.050781 -11.457031 13.625 -10.40625 C 14.195312 -9.363281 14.484375 -8.171875 14.484375 -6.828125 Z M 7.859375 -12.171875 C 6.546875 -12.171875 5.441406 -11.75 4.546875 -10.90625 C 3.660156 -10.070312 3.15625 -8.976562 3.03125 -7.625 L 12.71875 -7.625 C 12.59375 -8.976562 12.082031 -10.070312 11.1875 -10.90625 C 10.300781 -11.75 9.191406 -12.171875 7.859375 -12.171875 Z M 7.859375 -12.171875 "/></g></g></g><g fill="#ffffff" fill-opacity="1"><g transform="translate(207.107899, 263.807998)"><g><path d="M 9.53125 -13.75 C 11.238281 -13.75 12.597656 -13.25 13.609375 -12.25 C 14.617188 -11.257812 15.125 -9.816406 15.125 -7.921875 L 15.125 0 L 13.28125 0 L 13.28125 -7.734375 C 13.28125 -9.148438 12.925781 -10.226562 12.21875 -10.96875 C 11.507812 -11.71875 10.5 -12.09375 9.1875 -12.09375 C 7.71875 -12.09375 6.550781 -11.65625 5.6875 -10.78125 C 4.832031 -9.90625 4.40625 -8.695312 4.40625 -7.15625 L 4.40625 0 L 2.5625 0 L 2.5625 -13.65625 L 4.328125 -13.65625 L 4.328125 -11.140625 C 4.835938 -11.960938 5.535156 -12.601562 6.421875 -13.0625 C 7.316406 -13.519531 8.351562 -13.75 9.53125 -13.75 Z M 9.53125 -13.75 "/></g></g></g><g fill="#ffffff" fill-opacity="1"><g transform="translate(34.793402, 299.757004)"><g><path d="M 2.5625 -13.65625 L 4.40625 -13.65625 L 4.40625 0 L 2.5625 0 Z M 3.515625 -16.640625 C 3.128906 -16.640625 2.804688 -16.769531 2.546875 -17.03125 C 2.285156 -17.289062 2.15625 -17.597656 2.15625 -17.953125 C 2.15625 -18.304688 2.285156 -18.609375 2.546875 -18.859375 C 2.804688 -19.117188 3.128906 -19.25 3.515625 -19.25 C 3.890625 -19.25 4.207031 -19.125 4.46875 -18.875 C 4.726562 -18.625 4.859375 -18.328125 4.859375 -17.984375 C 4.859375 -17.609375 4.726562 -17.289062 4.46875 -17.03125 C 4.207031 -16.769531 3.890625 -16.640625 3.515625 -16.640625 Z M 3.515625 -16.640625 "/></g></g></g><g fill="#ffffff" fill-opacity="1"><g transform="translate(41.775403, 299.757004)"><g><path d="M 6.234375 0.125 C 5.117188 0.125 4.054688 -0.03125 3.046875 -0.34375 C 2.035156 -0.664062 1.242188 -1.070312 0.671875 -1.5625 L 1.5 -3.015625 C 2.070312 -2.554688 2.789062 -2.1875 3.65625 -1.90625 C 4.519531 -1.625 5.421875 -1.484375 6.359375 -1.484375 C 7.609375 -1.484375 8.53125 -1.675781 9.125 -2.0625 C 9.71875 -2.445312 10.015625 -3 10.015625 -3.71875 C 10.015625 -4.21875 9.847656 -4.609375 9.515625 -4.890625 C 9.191406 -5.179688 8.78125 -5.398438 8.28125 -5.546875 C 7.78125 -5.691406 7.113281 -5.832031 6.28125 -5.96875 C 5.175781 -6.175781 4.285156 -6.382812 3.609375 -6.59375 C 2.929688 -6.8125 2.351562 -7.179688 1.875 -7.703125 C 1.40625 -8.222656 1.171875 -8.941406 1.171875 -9.859375 C 1.171875 -11.003906 1.644531 -11.9375 2.59375 -12.65625 C 3.539062 -13.382812 4.863281 -13.75 6.5625 -13.75 C 7.445312 -13.75 8.328125 -13.628906 9.203125 -13.390625 C 10.085938 -13.160156 10.816406 -12.859375 11.390625 -12.484375 L 10.59375 -11 C 9.46875 -11.78125 8.125 -12.171875 6.5625 -12.171875 C 5.382812 -12.171875 4.5 -11.960938 3.90625 -11.546875 C 3.3125 -11.128906 3.015625 -10.585938 3.015625 -9.921875 C 3.015625 -9.398438 3.179688 -8.984375 3.515625 -8.671875 C 3.847656 -8.359375 4.265625 -8.128906 4.765625 -7.984375 C 5.273438 -7.835938 5.972656 -7.6875 6.859375 -7.53125 C 7.941406 -7.320312 8.8125 -7.113281 9.46875 -6.90625 C 10.125 -6.695312 10.6875 -6.34375 11.15625 -5.84375 C 11.625 -5.34375 11.859375 -4.648438 11.859375 -3.765625 C 11.859375 -2.566406 11.359375 -1.617188 10.359375 -0.921875 C 9.367188 -0.222656 7.992188 0.125 6.234375 0.125 Z M 6.234375 0.125 "/></g></g></g><g fill="#ffffff" fill-opacity="1"><g transform="translate(54.467597, 299.757004)"><g><path d="M 8.15625 0.125 C 6.832031 0.125 5.644531 -0.171875 4.59375 -0.765625 C 3.539062 -1.359375 2.707031 -2.179688 2.09375 -3.234375 C 1.488281 -4.296875 1.1875 -5.492188 1.1875 -6.828125 C 1.1875 -8.160156 1.488281 -9.351562 2.09375 -10.40625 C 2.707031 -11.457031 3.539062 -12.273438 4.59375 -12.859375 C 5.644531 -13.453125 6.832031 -13.75 8.15625 -13.75 C 9.46875 -13.75 10.648438 -13.453125 11.703125 -12.859375 C 12.753906 -12.273438 13.578125 -11.457031 14.171875 -10.40625 C 14.773438 -9.351562 15.078125 -8.160156 15.078125 -6.828125 C 15.078125 -5.492188 14.773438 -4.296875 14.171875 -3.234375 C 13.578125 -2.179688 12.753906 -1.359375 11.703125 -0.765625 C 10.648438 -0.171875 9.46875 0.125 8.15625 0.125 Z M 8.15625 -1.5 C 9.125 -1.5 9.988281 -1.71875 10.75 -2.15625 C 11.519531 -2.601562 12.117188 -3.234375 12.546875 -4.046875 C 12.984375 -4.859375 13.203125 -5.785156 13.203125 -6.828125 C 13.203125 -7.867188 12.984375 -8.796875 12.546875 -9.609375 C 12.117188 -10.421875 11.519531 -11.046875 10.75 -11.484375 C 9.988281 -11.921875 9.125 -12.140625 8.15625 -12.140625 C 7.1875 -12.140625 6.316406 -11.921875 5.546875 -11.484375 C 4.773438 -11.046875 4.164062 -10.421875 3.71875 -9.609375 C 3.28125 -8.796875 3.0625 -7.867188 3.0625 -6.828125 C 3.0625 -5.785156 3.28125 -4.859375 3.71875 -4.046875 C 4.164062 -3.234375 4.773438 -2.601562 5.546875 -2.15625 C 6.316406 -1.71875 7.1875 -1.5 8.15625 -1.5 Z M 8.15625 -1.5 "/></g></g></g><g fill="#ffffff" fill-opacity="1"><g transform="translate(70.741631, 299.757004)"><g><path d="M 2.5625 -19.25 L 4.40625 -19.25 L 4.40625 0 L 2.5625 0 Z M 2.5625 -19.25 "/></g></g></g><g fill="#ffffff" fill-opacity="1"><g transform="translate(77.723632, 299.757004)"><g><path d="M 7.34375 -13.75 C 9.125 -13.75 10.488281 -13.300781 11.4375 -12.40625 C 12.394531 -11.519531 12.875 -10.203125 12.875 -8.453125 L 12.875 0 L 11.109375 0 L 11.109375 -2.125 C 10.691406 -1.414062 10.082031 -0.863281 9.28125 -0.46875 C 8.476562 -0.0703125 7.519531 0.125 6.40625 0.125 C 4.882812 0.125 3.671875 -0.234375 2.765625 -0.953125 C 1.867188 -1.679688 1.421875 -2.644531 1.421875 -3.84375 C 1.421875 -5 1.835938 -5.929688 2.671875 -6.640625 C 3.515625 -7.347656 4.859375 -7.703125 6.703125 -7.703125 L 11.03125 -7.703125 L 11.03125 -8.53125 C 11.03125 -9.707031 10.703125 -10.601562 10.046875 -11.21875 C 9.390625 -11.832031 8.425781 -12.140625 7.15625 -12.140625 C 6.289062 -12.140625 5.460938 -12 4.671875 -11.71875 C 3.878906 -11.4375 3.195312 -11.039062 2.625 -10.53125 L 1.796875 -11.90625 C 2.484375 -12.5 3.3125 -12.953125 4.28125 -13.265625 C 5.25 -13.585938 6.269531 -13.75 7.34375 -13.75 Z M 6.703125 -1.328125 C 7.734375 -1.328125 8.617188 -1.5625 9.359375 -2.03125 C 10.109375 -2.507812 10.664062 -3.195312 11.03125 -4.09375 L 11.03125 -6.328125 L 6.75 -6.328125 C 4.414062 -6.328125 3.25 -5.515625 3.25 -3.890625 C 3.25 -3.097656 3.550781 -2.472656 4.15625 -2.015625 C 4.757812 -1.554688 5.609375 -1.328125 6.703125 -1.328125 Z M 6.703125 -1.328125 "/></g></g></g><g fill="#ffffff" fill-opacity="1"><g transform="translate(93.037313, 299.757004)"><g><path d="M 9.765625 -0.828125 C 9.410156 -0.515625 8.976562 -0.273438 8.46875 -0.109375 C 7.957031 0.0429688 7.425781 0.125 6.875 0.125 C 5.59375 0.125 4.601562 -0.21875 3.90625 -0.90625 C 3.21875 -1.601562 2.875 -2.582031 2.875 -3.84375 L 2.875 -12.09375 L 0.4375 -12.09375 L 0.4375 -13.65625 L 2.875 -13.65625 L 2.875 -16.640625 L 4.71875 -16.640625 L 4.71875 -13.65625 L 8.875 -13.65625 L 8.875 -12.09375 L 4.71875 -12.09375 L 4.71875 -3.9375 C 4.71875 -3.125 4.921875 -2.503906 5.328125 -2.078125 C 5.734375 -1.660156 6.316406 -1.453125 7.078125 -1.453125 C 7.460938 -1.453125 7.832031 -1.507812 8.1875 -1.625 C 8.539062 -1.75 8.847656 -1.925781 9.109375 -2.15625 Z M 9.765625 -0.828125 "/></g></g></g><g fill="#ffffff" fill-opacity="1"><g transform="translate(103.575202, 299.757004)"><g><path d="M 2.5625 -13.65625 L 4.40625 -13.65625 L 4.40625 0 L 2.5625 0 Z M 3.515625 -16.640625 C 3.128906 -16.640625 2.804688 -16.769531 2.546875 -17.03125 C 2.285156 -17.289062 2.15625 -17.597656 2.15625 -17.953125 C 2.15625 -18.304688 2.285156 -18.609375 2.546875 -18.859375 C 2.804688 -19.117188 3.128906 -19.25 3.515625 -19.25 C 3.890625 -19.25 4.207031 -19.125 4.46875 -18.875 C 4.726562 -18.625 4.859375 -18.328125 4.859375 -17.984375 C 4.859375 -17.609375 4.726562 -17.289062 4.46875 -17.03125 C 4.207031 -16.769531 3.890625 -16.640625 3.515625 -16.640625 Z M 3.515625 -16.640625 "/></g></g></g><g fill="#ffffff" fill-opacity="1"><g transform="translate(110.557204, 299.757004)"><g><path d="M 14.453125 -6.25 L 3.03125 -6.25 C 3.132812 -4.832031 3.679688 -3.6875 4.671875 -2.8125 C 5.660156 -1.9375 6.90625 -1.5 8.40625 -1.5 C 9.257812 -1.5 10.039062 -1.648438 10.75 -1.953125 C 11.457031 -2.253906 12.070312 -2.703125 12.59375 -3.296875 L 13.625 -2.109375 C 13.019531 -1.378906 12.257812 -0.820312 11.34375 -0.4375 C 10.4375 -0.0625 9.441406 0.125 8.359375 0.125 C 6.953125 0.125 5.707031 -0.171875 4.625 -0.765625 C 3.550781 -1.359375 2.707031 -2.179688 2.09375 -3.234375 C 1.488281 -4.296875 1.1875 -5.492188 1.1875 -6.828125 C 1.1875 -8.160156 1.476562 -9.351562 2.0625 -10.40625 C 2.644531 -11.457031 3.441406 -12.273438 4.453125 -12.859375 C 5.460938 -13.453125 6.597656 -13.75 7.859375 -13.75 C 9.128906 -13.75 10.265625 -13.453125 11.265625 -12.859375 C 12.265625 -12.273438 13.050781 -11.457031 13.625 -10.40625 C 14.195312 -9.363281 14.484375 -8.171875 14.484375 -6.828125 Z M 7.859375 -12.171875 C 6.546875 -12.171875 5.441406 -11.75 4.546875 -10.90625 C 3.660156 -10.070312 3.15625 -8.976562 3.03125 -7.625 L 12.71875 -7.625 C 12.59375 -8.976562 12.082031 -10.070312 11.1875 -10.90625 C 10.300781 -11.75 9.191406 -12.171875 7.859375 -12.171875 Z M 7.859375 -12.171875 "/></g></g></g><g fill="#ffffff" fill-opacity="1"><g transform="translate(126.234268, 299.757004)"><g><path d="M 19.59375 -13.75 C 21.300781 -13.75 22.644531 -13.253906 23.625 -12.265625 C 24.601562 -11.285156 25.09375 -9.835938 25.09375 -7.921875 L 25.09375 0 L 23.25 0 L 23.25 -7.734375 C 23.25 -9.148438 22.90625 -10.226562 22.21875 -10.96875 C 21.539062 -11.71875 20.578125 -12.09375 19.328125 -12.09375 C 17.910156 -12.09375 16.796875 -11.65625 15.984375 -10.78125 C 15.171875 -9.90625 14.765625 -8.695312 14.765625 -7.15625 L 14.765625 0 L 12.921875 0 L 12.921875 -7.734375 C 12.921875 -9.148438 12.578125 -10.226562 11.890625 -10.96875 C 11.210938 -11.71875 10.242188 -12.09375 8.984375 -12.09375 C 7.578125 -12.09375 6.460938 -11.65625 5.640625 -10.78125 C 4.816406 -9.90625 4.40625 -8.695312 4.40625 -7.15625 L 4.40625 0 L 2.5625 0 L 2.5625 -13.65625 L 4.328125 -13.65625 L 4.328125 -11.15625 C 4.816406 -11.988281 5.492188 -12.628906 6.359375 -13.078125 C 7.222656 -13.523438 8.21875 -13.75 9.34375 -13.75 C 10.488281 -13.75 11.476562 -13.503906 12.3125 -13.015625 C 13.15625 -12.535156 13.785156 -11.820312 14.203125 -10.875 C 14.703125 -11.769531 15.421875 -12.472656 16.359375 -12.984375 C 17.304688 -13.492188 18.382812 -13.75 19.59375 -13.75 Z M 19.59375 -13.75 "/></g></g></g><g fill="#ffffff" fill-opacity="1"><g transform="translate(153.772948, 299.757004)"><g><path d="M 7.34375 -13.75 C 9.125 -13.75 10.488281 -13.300781 11.4375 -12.40625 C 12.394531 -11.519531 12.875 -10.203125 12.875 -8.453125 L 12.875 0 L 11.109375 0 L 11.109375 -2.125 C 10.691406 -1.414062 10.082031 -0.863281 9.28125 -0.46875 C 8.476562 -0.0703125 7.519531 0.125 6.40625 0.125 C 4.882812 0.125 3.671875 -0.234375 2.765625 -0.953125 C 1.867188 -1.679688 1.421875 -2.644531 1.421875 -3.84375 C 1.421875 -5 1.835938 -5.929688 2.671875 -6.640625 C 3.515625 -7.347656 4.859375 -7.703125 6.703125 -7.703125 L 11.03125 -7.703125 L 11.03125 -8.53125 C 11.03125 -9.707031 10.703125 -10.601562 10.046875 -11.21875 C 9.390625 -11.832031 8.425781 -12.140625 7.15625 -12.140625 C 6.289062 -12.140625 5.460938 -12 4.671875 -11.71875 C 3.878906 -11.4375 3.195312 -11.039062 2.625 -10.53125 L 1.796875 -11.90625 C 2.484375 -12.5 3.3125 -12.953125 4.28125 -13.265625 C 5.25 -13.585938 6.269531 -13.75 7.34375 -13.75 Z M 6.703125 -1.328125 C 7.734375 -1.328125 8.617188 -1.5625 9.359375 -2.03125 C 10.109375 -2.507812 10.664062 -3.195312 11.03125 -4.09375 L 11.03125 -6.328125 L 6.75 -6.328125 C 4.414062 -6.328125 3.25 -5.515625 3.25 -3.890625 C 3.25 -3.097656 3.550781 -2.472656 4.15625 -2.015625 C 4.757812 -1.554688 5.609375 -1.328125 6.703125 -1.328125 Z M 6.703125 -1.328125 "/></g></g></g><g fill="#ffffff" fill-opacity="1"><g transform="translate(169.086629, 299.757004)"><g><path d="M 9.765625 -0.828125 C 9.410156 -0.515625 8.976562 -0.273438 8.46875 -0.109375 C 7.957031 0.0429688 7.425781 0.125 6.875 0.125 C 5.59375 0.125 4.601562 -0.21875 3.90625 -0.90625 C 3.21875 -1.601562 2.875 -2.582031 2.875 -3.84375 L 2.875 -12.09375 L 0.4375 -12.09375 L 0.4375 -13.65625 L 2.875 -13.65625 L 2.875 -16.640625 L 4.71875 -16.640625 L 4.71875 -13.65625 L 8.875 -13.65625 L 8.875 -12.09375 L 4.71875 -12.09375 L 4.71875 -3.9375 C 4.71875 -3.125 4.921875 -2.503906 5.328125 -2.078125 C 5.734375 -1.660156 6.316406 -1.453125 7.078125 -1.453125 C 7.460938 -1.453125 7.832031 -1.507812 8.1875 -1.625 C 8.539062 -1.75 8.847656 -1.925781 9.109375 -2.15625 Z M 9.765625 -0.828125 "/></g></g></g><g fill="#ffffff" fill-opacity="1"><g transform="translate(179.131314, 299.757004)"><g><path d="M 14.453125 -6.25 L 3.03125 -6.25 C 3.132812 -4.832031 3.679688 -3.6875 4.671875 -2.8125 C 5.660156 -1.9375 6.90625 -1.5 8.40625 -1.5 C 9.257812 -1.5 10.039062 -1.648438 10.75 -1.953125 C 11.457031 -2.253906 12.070312 -2.703125 12.59375 -3.296875 L 13.625 -2.109375 C 13.019531 -1.378906 12.257812 -0.820312 11.34375 -0.4375 C 10.4375 -0.0625 9.441406 0.125 8.359375 0.125 C 6.953125 0.125 5.707031 -0.171875 4.625 -0.765625 C 3.550781 -1.359375 2.707031 -2.179688 2.09375 -3.234375 C 1.488281 -4.296875 1.1875 -5.492188 1.1875 -6.828125 C 1.1875 -8.160156 1.476562 -9.351562 2.0625 -10.40625 C 2.644531 -11.457031 3.441406 -12.273438 4.453125 -12.859375 C 5.460938 -13.453125 6.597656 -13.75 7.859375 -13.75 C 9.128906 -13.75 10.265625 -13.453125 11.265625 -12.859375 C 12.265625 -12.273438 13.050781 -11.457031 13.625 -10.40625 C 14.195312 -9.363281 14.484375 -8.171875 14.484375 -6.828125 Z M 7.859375 -12.171875 C 6.546875 -12.171875 5.441406 -11.75 4.546875 -10.90625 C 3.660156 -10.070312 3.15625 -8.976562 3.03125 -7.625 L 12.71875 -7.625 C 12.59375 -8.976562 12.082031 -10.070312 11.1875 -10.90625 C 10.300781 -11.75 9.191406 -12.171875 7.859375 -12.171875 Z M 7.859375 -12.171875 "/></g></g></g><g fill="#ffffff" fill-opacity="1"><g transform="translate(194.808379, 299.757004)"><g><path d="M 4.328125 -10.984375 C 4.765625 -11.898438 5.410156 -12.585938 6.265625 -13.046875 C 7.117188 -13.515625 8.179688 -13.75 9.453125 -13.75 L 9.453125 -11.96875 L 9 -11.984375 C 7.570312 -11.984375 6.445312 -11.539062 5.625 -10.65625 C 4.8125 -9.78125 4.40625 -8.546875 4.40625 -6.953125 L 4.40625 0 L 2.5625 0 L 2.5625 -13.65625 L 4.328125 -13.65625 Z M 4.328125 -10.984375 "/></g></g></g><g fill="#ffffff" fill-opacity="1"><g transform="translate(205.008826, 299.757004)"><g><path d="M 2.5625 -13.65625 L 4.40625 -13.65625 L 4.40625 0 L 2.5625 0 Z M 3.515625 -16.640625 C 3.128906 -16.640625 2.804688 -16.769531 2.546875 -17.03125 C 2.285156 -17.289062 2.15625 -17.597656 2.15625 -17.953125 C 2.15625 -18.304688 2.285156 -18.609375 2.546875 -18.859375 C 2.804688 -19.117188 3.128906 -19.25 3.515625 -19.25 C 3.890625 -19.25 4.207031 -19.125 4.46875 -18.875 C 4.726562 -18.625 4.859375 -18.328125 4.859375 -17.984375 C 4.859375 -17.609375 4.726562 -17.289062 4.46875 -17.03125 C 4.207031 -16.769531 3.890625 -16.640625 3.515625 -16.640625 Z M 3.515625 -16.640625 "/></g></g></g><g fill="#ffffff" fill-opacity="1"><g transform="translate(211.990827, 299.757004)"><g><path d="M 7.34375 -13.75 C 9.125 -13.75 10.488281 -13.300781 11.4375 -12.40625 C 12.394531 -11.519531 12.875 -10.203125 12.875 -8.453125 L 12.875 0 L 11.109375 0 L 11.109375 -2.125 C 10.691406 -1.414062 10.082031 -0.863281 9.28125 -0.46875 C 8.476562 -0.0703125 7.519531 0.125 6.40625 0.125 C 4.882812 0.125 3.671875 -0.234375 2.765625 -0.953125 C 1.867188 -1.679688 1.421875 -2.644531 1.421875 -3.84375 C 1.421875 -5 1.835938 -5.929688 2.671875 -6.640625 C 3.515625 -7.347656 4.859375 -7.703125 6.703125 -7.703125 L 11.03125 -7.703125 L 11.03125 -8.53125 C 11.03125 -9.707031 10.703125 -10.601562 10.046875 -11.21875 C 9.390625 -11.832031 8.425781 -12.140625 7.15625 -12.140625 C 6.289062 -12.140625 5.460938 -12 4.671875 -11.71875 C 3.878906 -11.4375 3.195312 -11.039062 2.625 -10.53125 L 1.796875 -11.90625 C 2.484375 -12.5 3.3125 -12.953125 4.28125 -13.265625 C 5.25 -13.585938 6.269531 -13.75 7.34375 -13.75 Z M 6.703125 -1.328125 C 7.734375 -1.328125 8.617188 -1.5625 9.359375 -2.03125 C 10.109375 -2.507812 10.664062 -3.195312 11.03125 -4.09375 L 11.03125 -6.328125 L 6.75 -6.328125 C 4.414062 -6.328125 3.25 -5.515625 3.25 -3.890625 C 3.25 -3.097656 3.550781 -2.472656 4.15625 -2.015625 C 4.757812 -1.554688 5.609375 -1.328125 6.703125 -1.328125 Z M 6.703125 -1.328125 "/></g></g></g><g fill="#ffffff" fill-opacity="1"><g transform="translate(227.304519, 299.757004)"><g><path d="M 7.34375 -13.75 C 9.125 -13.75 10.488281 -13.300781 11.4375 -12.40625 C 12.394531 -11.519531 12.875 -10.203125 12.875 -8.453125 L 12.875 0 L 11.109375 0 L 11.109375 -2.125 C 10.691406 -1.414062 10.082031 -0.863281 9.28125 -0.46875 C 8.476562 -0.0703125 7.519531 0.125 6.40625 0.125 C 4.882812 0.125 3.671875 -0.234375 2.765625 -0.953125 C 1.867188 -1.679688 1.421875 -2.644531 1.421875 -3.84375 C 1.421875 -5 1.835938 -5.929688 2.671875 -6.640625 C 3.515625 -7.347656 4.859375 -7.703125 6.703125 -7.703125 L 11.03125 -7.703125 L 11.03125 -8.53125 C 11.03125 -9.707031 10.703125 -10.601562 10.046875 -11.21875 C 9.390625 -11.832031 8.425781 -12.140625 7.15625 -12.140625 C 6.289062 -12.140625 5.460938 -12 4.671875 -11.71875 C 3.878906 -11.4375 3.195312 -11.039062 2.625 -10.53125 L 1.796875 -11.90625 C 2.484375 -12.5 3.3125 -12.953125 4.28125 -13.265625 C 5.25 -13.585938 6.269531 -13.75 7.34375 -13.75 Z M 6.703125 -1.328125 C 7.734375 -1.328125 8.617188 -1.5625 9.359375 -2.03125 C 10.109375 -2.507812 10.664062 -3.195312 11.03125 -4.09375 L 11.03125 -6.328125 L 6.75 -6.328125 C 4.414062 -6.328125 3.25 -5.515625 3.25 -3.890625 C 3.25 -3.097656 3.550781 -2.472656 4.15625 -2.015625 C 4.757812 -1.554688 5.609375 -1.328125 6.703125 -1.328125 Z M 6.703125 -1.328125 "/></g></g></g><g fill="#ffffff" fill-opacity="1"><g transform="translate(242.6182, 299.757004)"><g><path d="M 2.5625 -19.25 L 4.40625 -19.25 L 4.40625 0 L 2.5625 0 Z M 2.5625 -19.25 "/></g></g></g><g fill="#ffffff" fill-opacity="1"><g transform="translate(16.619963, 335.70601)"><g><path d="M 22.609375 -13.65625 L 17.4375 0 L 15.703125 0 L 11.390625 -11.1875 L 7.078125 0 L 5.34375 0 L 0.203125 -13.65625 L 1.96875 -13.65625 L 6.25 -2.046875 L 10.640625 -13.65625 L 12.21875 -13.65625 L 16.578125 -2.046875 L 20.921875 -13.65625 Z M 22.609375 -13.65625 "/></g></g></g><g fill="#ffffff" fill-opacity="1"><g transform="translate(39.045385, 335.70601)"><g><path d="M 8.15625 0.125 C 6.832031 0.125 5.644531 -0.171875 4.59375 -0.765625 C 3.539062 -1.359375 2.707031 -2.179688 2.09375 -3.234375 C 1.488281 -4.296875 1.1875 -5.492188 1.1875 -6.828125 C 1.1875 -8.160156 1.488281 -9.351562 2.09375 -10.40625 C 2.707031 -11.457031 3.539062 -12.273438 4.59375 -12.859375 C 5.644531 -13.453125 6.832031 -13.75 8.15625 -13.75 C 9.46875 -13.75 10.648438 -13.453125 11.703125 -12.859375 C 12.753906 -12.273438 13.578125 -11.457031 14.171875 -10.40625 C 14.773438 -9.351562 15.078125 -8.160156 15.078125 -6.828125 C 15.078125 -5.492188 14.773438 -4.296875 14.171875 -3.234375 C 13.578125 -2.179688 12.753906 -1.359375 11.703125 -0.765625 C 10.648438 -0.171875 9.46875 0.125 8.15625 0.125 Z M 8.15625 -1.5 C 9.125 -1.5 9.988281 -1.71875 10.75 -2.15625 C 11.519531 -2.601562 12.117188 -3.234375 12.546875 -4.046875 C 12.984375 -4.859375 13.203125 -5.785156 13.203125 -6.828125 C 13.203125 -7.867188 12.984375 -8.796875 12.546875 -9.609375 C 12.117188 -10.421875 11.519531 -11.046875 10.75 -11.484375 C 9.988281 -11.921875 9.125 -12.140625 8.15625 -12.140625 C 7.1875 -12.140625 6.316406 -11.921875 5.546875 -11.484375 C 4.773438 -11.046875 4.164062 -10.421875 3.71875 -9.609375 C 3.28125 -8.796875 3.0625 -7.867188 3.0625 -6.828125 C 3.0625 -5.785156 3.28125 -4.859375 3.71875 -4.046875 C 4.164062 -3.234375 4.773438 -2.601562 5.546875 -2.15625 C 6.316406 -1.71875 7.1875 -1.5 8.15625 -1.5 Z M 8.15625 -1.5 "/></g></g></g><g fill="#ffffff" fill-opacity="1"><g transform="translate(55.319419, 335.70601)"><g><path d="M 4.328125 -10.984375 C 4.765625 -11.898438 5.410156 -12.585938 6.265625 -13.046875 C 7.117188 -13.515625 8.179688 -13.75 9.453125 -13.75 L 9.453125 -11.96875 L 9 -11.984375 C 7.570312 -11.984375 6.445312 -11.539062 5.625 -10.65625 C 4.8125 -9.78125 4.40625 -8.546875 4.40625 -6.953125 L 4.40625 0 L 2.5625 0 L 2.5625 -13.65625 L 4.328125 -13.65625 Z M 4.328125 -10.984375 "/></g></g></g><g fill="#ffffff" fill-opacity="1"><g transform="translate(65.39008, 335.70601)"><g><path d="M 15.03125 -19.25 L 15.03125 0 L 13.265625 0 L 13.265625 -2.703125 C 12.710938 -1.785156 11.976562 -1.082031 11.0625 -0.59375 C 10.15625 -0.113281 9.132812 0.125 8 0.125 C 6.71875 0.125 5.554688 -0.164062 4.515625 -0.75 C 3.472656 -1.34375 2.65625 -2.164062 2.0625 -3.21875 C 1.476562 -4.269531 1.1875 -5.472656 1.1875 -6.828125 C 1.1875 -8.171875 1.476562 -9.367188 2.0625 -10.421875 C 2.65625 -11.484375 3.472656 -12.300781 4.515625 -12.875 C 5.554688 -13.457031 6.71875 -13.75 8 -13.75 C 9.101562 -13.75 10.097656 -13.519531 10.984375 -13.0625 C 11.878906 -12.601562 12.613281 -11.9375 13.1875 -11.0625 L 13.1875 -19.25 Z M 8.15625 -1.5 C 9.101562 -1.5 9.960938 -1.71875 10.734375 -2.15625 C 11.503906 -2.601562 12.109375 -3.234375 12.546875 -4.046875 C 12.984375 -4.859375 13.203125 -5.785156 13.203125 -6.828125 C 13.203125 -7.867188 12.984375 -8.796875 12.546875 -9.609375 C 12.109375 -10.421875 11.503906 -11.046875 10.734375 -11.484375 C 9.960938 -11.921875 9.101562 -12.140625 8.15625 -12.140625 C 7.1875 -12.140625 6.316406 -11.921875 5.546875 -11.484375 C 4.773438 -11.046875 4.164062 -10.421875 3.71875 -9.609375 C 3.28125 -8.796875 3.0625 -7.867188 3.0625 -6.828125 C 3.0625 -5.785156 3.28125 -4.859375 3.71875 -4.046875 C 4.164062 -3.234375 4.773438 -2.601562 5.546875 -2.15625 C 6.316406 -1.71875 7.1875 -1.5 8.15625 -1.5 Z M 8.15625 -1.5 "/></g></g></g><g fill="#ffffff" fill-opacity="1"><g transform="translate(83.039756, 335.70601)"><g><path d="M 9.765625 -0.828125 C 9.410156 -0.515625 8.976562 -0.273438 8.46875 -0.109375 C 7.957031 0.0429688 7.425781 0.125 6.875 0.125 C 5.59375 0.125 4.601562 -0.21875 3.90625 -0.90625 C 3.21875 -1.601562 2.875 -2.582031 2.875 -3.84375 L 2.875 -12.09375 L 0.4375 -12.09375 L 0.4375 -13.65625 L 2.875 -13.65625 L 2.875 -16.640625 L 4.71875 -16.640625 L 4.71875 -13.65625 L 8.875 -13.65625 L 8.875 -12.09375 L 4.71875 -12.09375 L 4.71875 -3.9375 C 4.71875 -3.125 4.921875 -2.503906 5.328125 -2.078125 C 5.734375 -1.660156 6.316406 -1.453125 7.078125 -1.453125 C 7.460938 -1.453125 7.832031 -1.507812 8.1875 -1.625 C 8.539062 -1.75 8.847656 -1.925781 9.109375 -2.15625 Z M 9.765625 -0.828125 "/></g></g></g><g fill="#ffffff" fill-opacity="1"><g transform="translate(93.577646, 335.70601)"><g/></g></g><g fill="#ffffff" fill-opacity="1"><g transform="translate(100.377955, 335.70601)"><g><path d="M 7.34375 -13.75 C 9.125 -13.75 10.488281 -13.300781 11.4375 -12.40625 C 12.394531 -11.519531 12.875 -10.203125 12.875 -8.453125 L 12.875 0 L 11.109375 0 L 11.109375 -2.125 C 10.691406 -1.414062 10.082031 -0.863281 9.28125 -0.46875 C 8.476562 -0.0703125 7.519531 0.125 6.40625 0.125 C 4.882812 0.125 3.671875 -0.234375 2.765625 -0.953125 C 1.867188 -1.679688 1.421875 -2.644531 1.421875 -3.84375 C 1.421875 -5 1.835938 -5.929688 2.671875 -6.640625 C 3.515625 -7.347656 4.859375 -7.703125 6.703125 -7.703125 L 11.03125 -7.703125 L 11.03125 -8.53125 C 11.03125 -9.707031 10.703125 -10.601562 10.046875 -11.21875 C 9.390625 -11.832031 8.425781 -12.140625 7.15625 -12.140625 C 6.289062 -12.140625 5.460938 -12 4.671875 -11.71875 C 3.878906 -11.4375 3.195312 -11.039062 2.625 -10.53125 L 1.796875 -11.90625 C 2.484375 -12.5 3.3125 -12.953125 4.28125 -13.265625 C 5.25 -13.585938 6.269531 -13.75 7.34375 -13.75 Z M 6.703125 -1.328125 C 7.734375 -1.328125 8.617188 -1.5625 9.359375 -2.03125 C 10.109375 -2.507812 10.664062 -3.195312 11.03125 -4.09375 L 11.03125 -6.328125 L 6.75 -6.328125 C 4.414062 -6.328125 3.25 -5.515625 3.25 -3.890625 C 3.25 -3.097656 3.550781 -2.472656 4.15625 -2.015625 C 4.757812 -1.554688 5.609375 -1.328125 6.703125 -1.328125 Z M 6.703125 -1.328125 "/></g></g></g><g fill="#ffffff" fill-opacity="1"><g transform="translate(115.691636, 335.70601)"><g><path d="M 7.34375 -13.75 C 9.125 -13.75 10.488281 -13.300781 11.4375 -12.40625 C 12.394531 -11.519531 12.875 -10.203125 12.875 -8.453125 L 12.875 0 L 11.109375 0 L 11.109375 -2.125 C 10.691406 -1.414062 10.082031 -0.863281 9.28125 -0.46875 C 8.476562 -0.0703125 7.519531 0.125 6.40625 0.125 C 4.882812 0.125 3.671875 -0.234375 2.765625 -0.953125 C 1.867188 -1.679688 1.421875 -2.644531 1.421875 -3.84375 C 1.421875 -5 1.835938 -5.929688 2.671875 -6.640625 C 3.515625 -7.347656 4.859375 -7.703125 6.703125 -7.703125 L 11.03125 -7.703125 L 11.03125 -8.53125 C 11.03125 -9.707031 10.703125 -10.601562 10.046875 -11.21875 C 9.390625 -11.832031 8.425781 -12.140625 7.15625 -12.140625 C 6.289062 -12.140625 5.460938 -12 4.671875 -11.71875 C 3.878906 -11.4375 3.195312 -11.039062 2.625 -10.53125 L 1.796875 -11.90625 C 2.484375 -12.5 3.3125 -12.953125 4.28125 -13.265625 C 5.25 -13.585938 6.269531 -13.75 7.34375 -13.75 Z M 6.703125 -1.328125 C 7.734375 -1.328125 8.617188 -1.5625 9.359375 -2.03125 C 10.109375 -2.507812 10.664062 -3.195312 11.03125 -4.09375 L 11.03125 -6.328125 L 6.75 -6.328125 C 4.414062 -6.328125 3.25 -5.515625 3.25 -3.890625 C 3.25 -3.097656 3.550781 -2.472656 4.15625 -2.015625 C 4.757812 -1.554688 5.609375 -1.328125 6.703125 -1.328125 Z M 6.703125 -1.328125 "/></g></g></g><g fill="#ffffff" fill-opacity="1"><g transform="translate(131.005317, 335.70601)"><g><path d="M 9.53125 -13.75 C 11.238281 -13.75 12.597656 -13.25 13.609375 -12.25 C 14.617188 -11.257812 15.125 -9.816406 15.125 -7.921875 L 15.125 0 L 13.28125 0 L 13.28125 -7.734375 C 13.28125 -9.148438 12.925781 -10.226562 12.21875 -10.96875 C 11.507812 -11.71875 10.5 -12.09375 9.1875 -12.09375 C 7.71875 -12.09375 6.550781 -11.65625 5.6875 -10.78125 C 4.832031 -9.90625 4.40625 -8.695312 4.40625 -7.15625 L 4.40625 0 L 2.5625 0 L 2.5625 -13.65625 L 4.328125 -13.65625 L 4.328125 -11.140625 C 4.835938 -11.960938 5.535156 -12.601562 6.421875 -13.0625 C 7.316406 -13.519531 8.351562 -13.75 9.53125 -13.75 Z M 9.53125 -13.75 "/></g></g></g><g fill="#ffffff" fill-opacity="1"><g transform="translate(148.629041, 335.70601)"><g><path d="M 15.203125 -13.65625 L 15.203125 -1.65625 C 15.203125 0.652344 14.632812 2.367188 13.5 3.484375 C 12.375 4.609375 10.671875 5.171875 8.390625 5.171875 C 7.117188 5.171875 5.914062 4.984375 4.78125 4.609375 C 3.65625 4.234375 2.738281 3.71875 2.03125 3.0625 L 2.953125 1.65625 C 3.609375 2.25 4.410156 2.707031 5.359375 3.03125 C 6.304688 3.363281 7.296875 3.53125 8.328125 3.53125 C 10.054688 3.53125 11.328125 3.125 12.140625 2.3125 C 12.953125 1.507812 13.359375 0.261719 13.359375 -1.421875 L 13.359375 -3.171875 C 12.796875 -2.304688 12.050781 -1.644531 11.125 -1.1875 C 10.195312 -0.738281 9.171875 -0.515625 8.046875 -0.515625 C 6.765625 -0.515625 5.597656 -0.796875 4.546875 -1.359375 C 3.503906 -1.921875 2.679688 -2.707031 2.078125 -3.71875 C 1.484375 -4.738281 1.1875 -5.882812 1.1875 -7.15625 C 1.1875 -8.4375 1.484375 -9.578125 2.078125 -10.578125 C 2.679688 -11.585938 3.5 -12.367188 4.53125 -12.921875 C 5.570312 -13.472656 6.742188 -13.75 8.046875 -13.75 C 9.203125 -13.75 10.25 -13.515625 11.1875 -13.046875 C 12.125 -12.585938 12.875 -11.914062 13.4375 -11.03125 L 13.4375 -13.65625 Z M 8.234375 -2.15625 C 9.210938 -2.15625 10.097656 -2.363281 10.890625 -2.78125 C 11.691406 -3.207031 12.3125 -3.800781 12.75 -4.5625 C 13.195312 -5.320312 13.421875 -6.1875 13.421875 -7.15625 C 13.421875 -8.125 13.195312 -8.984375 12.75 -9.734375 C 12.3125 -10.492188 11.695312 -11.082031 10.90625 -11.5 C 10.125 -11.925781 9.234375 -12.140625 8.234375 -12.140625 C 7.242188 -12.140625 6.351562 -11.929688 5.5625 -11.515625 C 4.78125 -11.109375 4.164062 -10.519531 3.71875 -9.75 C 3.28125 -8.988281 3.0625 -8.125 3.0625 -7.15625 C 3.0625 -6.1875 3.28125 -5.320312 3.71875 -4.5625 C 4.164062 -3.800781 4.78125 -3.207031 5.5625 -2.78125 C 6.351562 -2.363281 7.242188 -2.15625 8.234375 -2.15625 Z M 8.234375 -2.15625 "/></g></g></g><g fill="#ffffff" fill-opacity="1"><g transform="translate(166.434446, 335.70601)"><g><path d="M 14.453125 -6.25 L 3.03125 -6.25 C 3.132812 -4.832031 3.679688 -3.6875 4.671875 -2.8125 C 5.660156 -1.9375 6.90625 -1.5 8.40625 -1.5 C 9.257812 -1.5 10.039062 -1.648438 10.75 -1.953125 C 11.457031 -2.253906 12.070312 -2.703125 12.59375 -3.296875 L 13.625 -2.109375 C 13.019531 -1.378906 12.257812 -0.820312 11.34375 -0.4375 C 10.4375 -0.0625 9.441406 0.125 8.359375 0.125 C 6.953125 0.125 5.707031 -0.171875 4.625 -0.765625 C 3.550781 -1.359375 2.707031 -2.179688 2.09375 -3.234375 C 1.488281 -4.296875 1.1875 -5.492188 1.1875 -6.828125 C 1.1875 -8.160156 1.476562 -9.351562 2.0625 -10.40625 C 2.644531 -11.457031 3.441406 -12.273438 4.453125 -12.859375 C 5.460938 -13.453125 6.597656 -13.75 7.859375 -13.75 C 9.128906 -13.75 10.265625 -13.453125 11.265625 -12.859375 C 12.265625 -12.273438 13.050781 -11.457031 13.625 -10.40625 C 14.195312 -9.363281 14.484375 -8.171875 14.484375 -6.828125 Z M 7.859375 -12.171875 C 6.546875 -12.171875 5.441406 -11.75 4.546875 -10.90625 C 3.660156 -10.070312 3.15625 -8.976562 3.03125 -7.625 L 12.71875 -7.625 C 12.59375 -8.976562 12.082031 -10.070312 11.1875 -10.90625 C 10.300781 -11.75 9.191406 -12.171875 7.859375 -12.171875 Z M 7.859375 -12.171875 "/></g></g></g><g fill="#ffffff" fill-opacity="1"><g transform="translate(182.111511, 335.70601)"><g><path d="M 9.609375 -13.75 C 10.878906 -13.75 12.035156 -13.457031 13.078125 -12.875 C 14.117188 -12.300781 14.929688 -11.484375 15.515625 -10.421875 C 16.109375 -9.367188 16.40625 -8.171875 16.40625 -6.828125 C 16.40625 -5.472656 16.109375 -4.269531 15.515625 -3.21875 C 14.929688 -2.164062 14.117188 -1.34375 13.078125 -0.75 C 12.035156 -0.164062 10.878906 0.125 9.609375 0.125 C 8.460938 0.125 7.4375 -0.113281 6.53125 -0.59375 C 5.625 -1.082031 4.890625 -1.785156 4.328125 -2.703125 L 4.328125 0 L 2.5625 0 L 2.5625 -19.25 L 4.40625 -19.25 L 4.40625 -11.0625 C 4.976562 -11.9375 5.707031 -12.601562 6.59375 -13.0625 C 7.488281 -13.519531 8.492188 -13.75 9.609375 -13.75 Z M 9.46875 -1.5 C 10.425781 -1.5 11.289062 -1.71875 12.0625 -2.15625 C 12.84375 -2.601562 13.453125 -3.234375 13.890625 -4.046875 C 14.335938 -4.859375 14.5625 -5.785156 14.5625 -6.828125 C 14.5625 -7.867188 14.335938 -8.796875 13.890625 -9.609375 C 13.453125 -10.421875 12.84375 -11.046875 12.0625 -11.484375 C 11.289062 -11.921875 10.425781 -12.140625 9.46875 -12.140625 C 8.5 -12.140625 7.628906 -11.921875 6.859375 -11.484375 C 6.085938 -11.046875 5.484375 -10.421875 5.046875 -9.609375 C 4.609375 -8.796875 4.390625 -7.867188 4.390625 -6.828125 C 4.390625 -5.785156 4.609375 -4.859375 5.046875 -4.046875 C 5.484375 -3.234375 6.085938 -2.601562 6.859375 -2.15625 C 7.628906 -1.71875 8.5 -1.5 9.46875 -1.5 Z M 9.46875 -1.5 "/></g></g></g><g fill="#ffffff" fill-opacity="1"><g transform="translate(199.709271, 335.70601)"><g><path d="M 4.328125 -10.984375 C 4.765625 -11.898438 5.410156 -12.585938 6.265625 -13.046875 C 7.117188 -13.515625 8.179688 -13.75 9.453125 -13.75 L 9.453125 -11.96875 L 9 -11.984375 C 7.570312 -11.984375 6.445312 -11.539062 5.625 -10.65625 C 4.8125 -9.78125 4.40625 -8.546875 4.40625 -6.953125 L 4.40625 0 L 2.5625 0 L 2.5625 -13.65625 L 4.328125 -13.65625 Z M 4.328125 -10.984375 "/></g></g></g><g fill="#ffffff" fill-opacity="1"><g transform="translate(209.883765, 335.70601)"><g><path d="M 7.34375 -13.75 C 9.125 -13.75 10.488281 -13.300781 11.4375 -12.40625 C 12.394531 -11.519531 12.875 -10.203125 12.875 -8.453125 L 12.875 0 L 11.109375 0 L 11.109375 -2.125 C 10.691406 -1.414062 10.082031 -0.863281 9.28125 -0.46875 C 8.476562 -0.0703125 7.519531 0.125 6.40625 0.125 C 4.882812 0.125 3.671875 -0.234375 2.765625 -0.953125 C 1.867188 -1.679688 1.421875 -2.644531 1.421875 -3.84375 C 1.421875 -5 1.835938 -5.929688 2.671875 -6.640625 C 3.515625 -7.347656 4.859375 -7.703125 6.703125 -7.703125 L 11.03125 -7.703125 L 11.03125 -8.53125 C 11.03125 -9.707031 10.703125 -10.601562 10.046875 -11.21875 C 9.390625 -11.832031 8.425781 -12.140625 7.15625 -12.140625 C 6.289062 -12.140625 5.460938 -12 4.671875 -11.71875 C 3.878906 -11.4375 3.195312 -11.039062 2.625 -10.53125 L 1.796875 -11.90625 C 2.484375 -12.5 3.3125 -12.953125 4.28125 -13.265625 C 5.25 -13.585938 6.269531 -13.75 7.34375 -13.75 Z M 6.703125 -1.328125 C 7.734375 -1.328125 8.617188 -1.5625 9.359375 -2.03125 C 10.109375 -2.507812 10.664062 -3.195312 11.03125 -4.09375 L 11.03125 -6.328125 L 6.75 -6.328125 C 4.414062 -6.328125 3.25 -5.515625 3.25 -3.890625 C 3.25 -3.097656 3.550781 -2.472656 4.15625 -2.015625 C 4.757812 -1.554688 5.609375 -1.328125 6.703125 -1.328125 Z M 6.703125 -1.328125 "/></g></g></g><g fill="#ffffff" fill-opacity="1"><g transform="translate(225.249375, 335.70601)"><g><path d="M 8.234375 0.125 C 6.878906 0.125 5.671875 -0.164062 4.609375 -0.75 C 3.546875 -1.34375 2.707031 -2.171875 2.09375 -3.234375 C 1.488281 -4.296875 1.1875 -5.492188 1.1875 -6.828125 C 1.1875 -8.160156 1.488281 -9.351562 2.09375 -10.40625 C 2.707031 -11.457031 3.546875 -12.273438 4.609375 -12.859375 C 5.671875 -13.453125 6.878906 -13.75 8.234375 -13.75 C 9.398438 -13.75 10.445312 -13.519531 11.375 -13.0625 C 12.300781 -12.601562 13.035156 -11.9375 13.578125 -11.0625 L 12.203125 -10.125 C 11.742188 -10.800781 11.171875 -11.304688 10.484375 -11.640625 C 9.796875 -11.972656 9.046875 -12.140625 8.234375 -12.140625 C 7.242188 -12.140625 6.351562 -11.921875 5.5625 -11.484375 C 4.78125 -11.046875 4.164062 -10.421875 3.71875 -9.609375 C 3.28125 -8.796875 3.0625 -7.867188 3.0625 -6.828125 C 3.0625 -5.773438 3.28125 -4.84375 3.71875 -4.03125 C 4.164062 -3.226562 4.78125 -2.601562 5.5625 -2.15625 C 6.351562 -1.71875 7.242188 -1.5 8.234375 -1.5 C 9.046875 -1.5 9.796875 -1.660156 10.484375 -1.984375 C 11.171875 -2.316406 11.742188 -2.820312 12.203125 -3.5 L 13.578125 -2.5625 C 13.035156 -1.6875 12.296875 -1.019531 11.359375 -0.5625 C 10.429688 -0.101562 9.390625 0.125 8.234375 0.125 Z M 8.234375 0.125 "/></g></g></g><g fill="#ffffff" fill-opacity="1"><g transform="translate(239.654585, 335.70601)"><g><path d="M 9.53125 -13.75 C 11.238281 -13.75 12.597656 -13.25 13.609375 -12.25 C 14.617188 -11.257812 15.125 -9.816406 15.125 -7.921875 L 15.125 0 L 13.28125 0 L 13.28125 -7.734375 C 13.28125 -9.148438 12.925781 -10.226562 12.21875 -10.96875 C 11.507812 -11.71875 10.5 -12.09375 9.1875 -12.09375 C 7.71875 -12.09375 6.550781 -11.65625 5.6875 -10.78125 C 4.832031 -9.90625 4.40625 -8.695312 4.40625 -7.15625 L 4.40625 0 L 2.5625 0 L 2.5625 -19.25 L 4.40625 -19.25 L 4.40625 -11.265625 C 4.914062 -12.054688 5.609375 -12.664062 6.484375 -13.09375 C 7.367188 -13.53125 8.382812 -13.75 9.53125 -13.75 Z M 9.53125 -13.75 "/></g></g></g><g fill="#ffffff" fill-opacity="1"><g transform="translate(257.226392, 335.70601)"><g><path d="M 9.765625 -0.828125 C 9.410156 -0.515625 8.976562 -0.273438 8.46875 -0.109375 C 7.957031 0.0429688 7.425781 0.125 6.875 0.125 C 5.59375 0.125 4.601562 -0.21875 3.90625 -0.90625 C 3.21875 -1.601562 2.875 -2.582031 2.875 -3.84375 L 2.875 -12.09375 L 0.4375 -12.09375 L 0.4375 -13.65625 L 2.875 -13.65625 L 2.875 -16.640625 L 4.71875 -16.640625 L 4.71875 -13.65625 L 8.875 -13.65625 L 8.875 -12.09375 L 4.71875 -12.09375 L 4.71875 -3.9375 C 4.71875 -3.125 4.921875 -2.503906 5.328125 -2.078125 C 5.734375 -1.660156 6.316406 -1.453125 7.078125 -1.453125 C 7.460938 -1.453125 7.832031 -1.507812 8.1875 -1.625 C 8.539062 -1.75 8.847656 -1.925781 9.109375 -2.15625 Z M 9.765625 -0.828125 "/></g></g></g></svg>