<svg xmlns="http://www.w3.org/2000/svg" xmlns:xlink="http://www.w3.org/1999/xlink" width="380" zoomAndPan="magnify" viewBox="0 0 285 352.49999" height="470" preserveAspectRatio="xMidYMid meet" version="1.0"><defs><filter x="0%" y="0%" width="100%" height="100%" id="859bcb935c"><feColorMatrix values="0 0 0 0 1 0 0 0 0 1 0 0 0 0 1 0 0 0 1 0" color-interpolation-filters="sRGB"/></filter><filter x="0%" y="0%" width="100%" height="100%" id="c6890ad06a"><feColorMatrix values="0 0 0 0 1 0 0 0 0 1 0 0 0 0 1 0.2126 0.7152 0.0722 0 0" color-interpolation-filters="sRGB"/></filter><g/><clipPath id="a85de1db56"><path d="M 0.203125 0 L 284.796875 0 L 284.796875 352 L 0.203125 352 Z M 0.203125 0 " clip-rule="nonzero"/></clipPath><clipPath id="70ce8921d1"><path d="M 57.960938 34.601562 L 217.921875 34.601562 L 217.921875 194.5625 L 57.960938 194.5625 Z M 57.960938 34.601562 " clip-rule="nonzero"/></clipPath><clipPath id="2261ed701b"><path d="M 137.941406 34.601562 C 93.769531 34.601562 57.960938 70.410156 57.960938 114.582031 C 57.960938 158.753906 93.769531 194.5625 137.941406 194.5625 C 182.113281 194.5625 217.921875 158.753906 217.921875 114.582031 C 217.921875 70.410156 182.113281 34.601562 137.941406 34.601562 Z M 137.941406 34.601562 " clip-rule="nonzero"/></clipPath><clipPath id="1940c979f0"><path d="M 0.960938 0.601562 L 160.921875 0.601562 L 160.921875 160.5625 L 0.960938 160.5625 Z M 0.960938 0.601562 " clip-rule="nonzero"/></clipPath><clipPath id="ac785cadc5"><path d="M 80.941406 0.601562 C 36.769531 0.601562 0.960938 36.410156 0.960938 80.582031 C 0.960938 124.753906 36.769531 160.5625 80.941406 160.5625 C 125.113281 160.5625 160.921875 124.753906 160.921875 80.582031 C 160.921875 36.410156 125.113281 0.601562 80.941406 0.601562 Z M 80.941406 0.601562 " clip-rule="nonzero"/></clipPath><clipPath id="af68c37c9d"><rect x="0" width="161" y="0" height="161"/></clipPath><clipPath id="e8d5c81262"><path d="M 156.945312 0 L 240.511719 0 L 240.511719 83.5625 L 156.945312 83.5625 Z M 156.945312 0 " clip-rule="nonzero"/></clipPath><clipPath id="e33f0d3079"><path d="M 198.726562 0 C 175.652344 0 156.945312 18.707031 156.945312 41.78125 C 156.945312 64.859375 175.652344 83.5625 198.726562 83.5625 C 221.804688 83.5625 240.511719 64.859375 240.511719 41.78125 C 240.511719 18.707031 221.804688 0 198.726562 0 Z M 198.726562 0 " clip-rule="nonzero"/></clipPath><clipPath id="b9674af065"><path d="M 0.945312 0 L 84.511719 0 L 84.511719 83.5625 L 0.945312 83.5625 Z M 0.945312 0 " clip-rule="nonzero"/></clipPath><clipPath id="5253ae41b2"><path d="M 42.726562 0 C 19.652344 0 0.945312 18.707031 0.945312 41.78125 C 0.945312 64.859375 19.652344 83.5625 42.726562 83.5625 C 65.804688 83.5625 84.511719 64.859375 84.511719 41.78125 C 84.511719 18.707031 65.804688 0 42.726562 0 Z M 42.726562 0 " clip-rule="nonzero"/></clipPath><clipPath id="8c0734ec8b"><rect x="0" width="85" y="0" height="84"/></clipPath><clipPath id="f2eb4ced15"><path d="M 79.414062 69.824219 L 195.5 69.824219 L 195.5 146.964844 L 79.414062 146.964844 Z M 79.414062 69.824219 " clip-rule="nonzero"/></clipPath><clipPath id="c19189ae6f"><path d="M 92 94.355469 L 102.925781 94.355469 L 102.925781 105.589844 L 92 105.589844 Z M 92 94.355469 " clip-rule="nonzero"/></clipPath><mask id="ef5a8dfee2"><g filter="url(#859bcb935c)"><g filter="url(#c6890ad06a)" transform="matrix(0.00936172, 0, 0, 0.00936172, 91.692768, 94.354416)"><image x="0" y="0" width="1200" xlink:href="/images/maatregelen/_gedeeld/stap-badge-3-66c111395a.png" height="1200" preserveAspectRatio="xMidYMid meet"/></g></g></mask><clipPath id="0596b65558"><path d="M 57.398438 172.140625 L 227.003906 172.140625 L 227.003906 222.648438 L 57.398438 222.648438 Z M 57.398438 172.140625 " clip-rule="nonzero"/></clipPath><clipPath id="81ba4b16c5"><path d="M 0.398438 0.140625 L 170.003906 0.140625 L 170.003906 50.648438 L 0.398438 50.648438 Z M 0.398438 0.140625 " clip-rule="nonzero"/></clipPath><clipPath id="27ff8a6186"><rect x="0" width="171" y="0" height="51"/></clipPath><clipPath id="0b01cd4f59"><path d="M 0.203125 172.140625 L 284.300781 172.140625 L 284.300781 222.648438 L 0.203125 222.648438 Z M 0.203125 172.140625 " clip-rule="nonzero"/></clipPath><clipPath id="5ffa6b7c95"><path d="M 13.683594 172.140625 L 270.722656 172.140625 C 278.167969 172.140625 284.203125 178.175781 284.203125 185.621094 L 284.203125 209.167969 C 284.203125 216.613281 278.167969 222.648438 270.722656 222.648438 L 13.683594 222.648438 C 6.238281 222.648438 0.203125 216.613281 0.203125 209.167969 L 0.203125 185.621094 C 0.203125 178.175781 6.238281 172.140625 13.683594 172.140625 Z M 13.683594 172.140625 " clip-rule="nonzero"/></clipPath><clipPath id="7876941ad8"><path d="M 0.203125 0.140625 L 284.300781 0.140625 L 284.300781 50.648438 L 0.203125 50.648438 Z M 0.203125 0.140625 " clip-rule="nonzero"/></clipPath><clipPath id="effa992c47"><path d="M 13.683594 0.140625 L 270.722656 0.140625 C 278.167969 0.140625 284.203125 6.175781 284.203125 13.621094 L 284.203125 37.167969 C 284.203125 44.613281 278.167969 50.648438 270.722656 50.648438 L 13.683594 50.648438 C 6.238281 50.648438 0.203125 44.613281 0.203125 37.167969 L 0.203125 13.621094 C 0.203125 6.175781 6.238281 0.140625 13.683594 0.140625 Z M 13.683594 0.140625 " clip-rule="nonzero"/></clipPath><clipPath id="c4316d381b"><rect x="0" width="285" y="0" height="51"/></clipPath><clipPath id="213595791f"><path d="M 0.203125 229.355469 L 284.21875 229.355469 L 284.21875 351.761719 L 0.203125 351.761719 Z M 0.203125 229.355469 " clip-rule="nonzero"/></clipPath><clipPath id="43e87adf05"><path d="M 13.683594 229.355469 L 270.722656 229.355469 C 278.167969 229.355469 284.203125 235.390625 284.203125 242.835938 L 284.203125 338.28125 C 284.203125 345.726562 278.167969 351.761719 270.722656 351.761719 L 13.683594 351.761719 C 6.238281 351.761719 0.203125 345.726562 0.203125 338.28125 L 0.203125 242.835938 C 0.203125 235.390625 6.238281 229.355469 13.683594 229.355469 Z M 13.683594 229.355469 " clip-rule="nonzero"/></clipPath><mask id="459c53ddc9"><g filter="url(#859bcb935c)"><rect x="-28.5" width="342" fill="#000000" y="-35.249999" height="422.999987" fill-opacity="0.59"/></g></mask><clipPath id="543154b225"><path d="M 0.203125 0.355469 L 284.21875 0.355469 L 284.21875 122.761719 L 0.203125 122.761719 Z M 0.203125 0.355469 " clip-rule="nonzero"/></clipPath><clipPath id="6167e18573"><path d="M 13.683594 0.355469 L 270.722656 0.355469 C 278.167969 0.355469 284.203125 6.390625 284.203125 13.835938 L 284.203125 109.28125 C 284.203125 116.726562 278.167969 122.761719 270.722656 122.761719 L 13.683594 122.761719 C 6.238281 122.761719 0.203125 116.726562 0.203125 109.28125 L 0.203125 13.835938 C 0.203125 6.390625 6.238281 0.355469 13.683594 0.355469 Z M 13.683594 0.355469 " clip-rule="nonzero"/></clipPath><clipPath id="5019333167"><rect x="0" width="285" y="0" height="123"/></clipPath></defs><g clip-path="url(#a85de1db56)"><path fill="#ffffff" d="M 0.203125 0 L 284.796875 0 L 284.796875 352 L 0.203125 352 Z M 0.203125 0 " fill-opacity="1" fill-rule="nonzero"/></g><g clip-path="url(#70ce8921d1)"><g clip-path="url(#2261ed701b)"><g transform="matrix(1, 0, 0, 1, 57, 34)"><g clip-path="url(#af68c37c9d)"><g clip-path="url(#1940c979f0)"><g clip-path="url(#ac785cadc5)"><path fill="#0d4a3f" d="M 0.960938 0.601562 L 160.921875 0.601562 L 160.921875 160.5625 L 0.960938 160.5625 Z M 0.960938 0.601562 " fill-opacity="1" fill-rule="nonzero"/></g></g></g></g></g></g><g clip-path="url(#e8d5c81262)"><g clip-path="url(#e33f0d3079)"><g transform="matrix(1, 0, 0, 1, 156, 0)"><g clip-path="url(#8c0734ec8b)"><g clip-path="url(#b9674af065)"><g clip-path="url(#5253ae41b2)"><path fill="#00a77a" d="M 0.945312 0 L 84.511719 0 L 84.511719 83.5625 L 0.945312 83.5625 Z M 0.945312 0 " fill-opacity="1" fill-rule="nonzero"/></g></g></g></g></g></g><g fill="#ffffff" fill-opacity="1"><g transform="translate(189.887325, 51.676696)"><g><path d="M 16.828125 -3.953125 L 16.828125 0 L 0.984375 0 L 0.984375 -3.140625 L 9.078125 -10.78125 C 9.929688 -11.601562 10.507812 -12.304688 10.8125 -12.890625 C 11.113281 -13.484375 11.265625 -14.066406 11.265625 -14.640625 C 11.265625 -15.484375 10.976562 -16.128906 10.40625 -16.578125 C 9.84375 -17.023438 9.007812 -17.25 7.90625 -17.25 C 6.988281 -17.25 6.160156 -17.070312 5.421875 -16.71875 C 4.679688 -16.375 4.0625 -15.851562 3.5625 -15.15625 L 0.03125 -17.4375 C 0.851562 -18.65625 1.984375 -19.609375 3.421875 -20.296875 C 4.859375 -20.984375 6.503906 -21.328125 8.359375 -21.328125 C 9.910156 -21.328125 11.269531 -21.070312 12.4375 -20.5625 C 13.613281 -20.050781 14.523438 -19.332031 15.171875 -18.40625 C 15.816406 -17.476562 16.140625 -16.382812 16.140625 -15.125 C 16.140625 -13.988281 15.898438 -12.921875 15.421875 -11.921875 C 14.941406 -10.921875 14.015625 -9.78125 12.640625 -8.5 L 7.8125 -3.953125 Z M 16.828125 -3.953125 "/></g></g></g><g clip-path="url(#f2eb4ced15)"><path fill="#ffffff" d="M 97.496094 88.617188 C 100.667969 88.617188 103.539062 89.902344 105.617188 91.984375 C 107.699219 94.0625 108.984375 96.933594 108.984375 100.105469 C 108.984375 103.28125 107.699219 106.152344 105.617188 108.230469 C 104.730469 109.117188 103.699219 109.863281 102.5625 110.421875 C 103.757812 111.617188 105.28125 113.332031 106.816406 115.164062 C 109.226562 118.046875 111.714844 121.261719 113.046875 123.238281 L 117.714844 123.238281 L 117.714844 102.097656 L 113.261719 103.5625 C 112.949219 103.671875 112.585938 103.648438 112.277344 103.464844 C 111.710938 103.136719 111.523438 102.414062 111.851562 101.847656 L 115.335938 95.878906 C 114.070312 94.601562 113.042969 93.15625 112.304688 91.585938 C 111.457031 89.785156 110.992188 87.832031 110.992188 85.792969 C 110.992188 81.351562 113.175781 77.34375 116.703125 74.457031 C 120.164062 71.625 124.933594 69.875 130.1875 69.875 C 135.445312 69.875 140.214844 71.625 143.675781 74.457031 C 147.203125 77.34375 149.386719 81.351562 149.386719 85.792969 C 149.386719 87.226562 149.160156 88.609375 148.734375 89.929688 L 157.214844 89.929688 C 157.867188 89.929688 158.398438 90.457031 158.398438 91.113281 L 158.398438 127.972656 L 161.765625 127.972656 C 162.347656 127.03125 163.109375 125.734375 163.992188 124.234375 C 166.632812 119.75 170.289062 113.542969 172.628906 110.589844 C 171.347656 110.015625 170.191406 109.210938 169.210938 108.230469 C 167.132812 106.152344 165.84375 103.28125 165.84375 100.105469 C 165.84375 96.933594 167.132812 94.0625 169.210938 91.984375 C 171.289062 89.902344 174.160156 88.617188 177.335938 88.617188 C 180.507812 88.617188 183.378906 89.902344 185.460938 91.984375 C 187.539062 94.0625 188.824219 96.933594 188.824219 100.105469 C 188.824219 103.28125 187.539062 106.152344 185.460938 108.230469 C 184.976562 108.714844 184.453125 109.152344 183.890625 109.546875 C 185.289062 109.929688 186.625 110.535156 187.820312 111.351562 C 190.183594 112.964844 191.996094 115.394531 192.683594 118.578125 C 192.691406 118.617188 192.699219 118.65625 192.703125 118.695312 L 195.398438 141.695312 C 195.410156 141.804688 195.417969 141.902344 195.417969 141.988281 L 195.410156 141.988281 C 195.410156 142.601562 195.191406 143.167969 194.816406 143.597656 C 194.433594 144.039062 193.894531 144.34375 193.273438 144.414062 C 193.175781 144.425781 193.078125 144.433594 192.992188 144.433594 L 175.4375 144.433594 C 175.234375 144.433594 175.035156 144.40625 174.84375 144.359375 C 174.277344 144.214844 173.816406 143.886719 173.503906 143.445312 C 173.203125 143.027344 173.035156 142.507812 173.035156 141.964844 C 173.035156 141.75 173.0625 141.53125 173.117188 141.308594 L 175.230469 132.949219 L 172.257812 137.558594 C 171.863281 138.351562 171.269531 138.957031 170.554688 139.375 C 169.796875 139.816406 168.902344 140.042969 167.984375 140.042969 L 158.398438 140.042969 L 158.398438 145.730469 C 158.398438 146.382812 157.867188 146.914062 157.214844 146.914062 L 118.898438 146.914062 C 118.242188 146.914062 117.714844 146.382812 117.714844 145.730469 L 117.714844 135.308594 L 106.84375 135.308594 C 104.851562 135.308594 101.472656 132.347656 98.820312 129.863281 L 101.710938 141.308594 C 101.769531 141.53125 101.796875 141.75 101.796875 141.964844 C 101.796875 142.507812 101.628906 143.027344 101.328125 143.445312 C 101.011719 143.886719 100.550781 144.214844 99.988281 144.359375 C 99.792969 144.40625 99.59375 144.433594 99.390625 144.433594 L 81.835938 144.433594 C 81.75 144.433594 81.65625 144.425781 81.554688 144.414062 C 80.933594 144.34375 80.394531 144.039062 80.011719 143.597656 C 79.640625 143.167969 79.417969 142.601562 79.417969 141.988281 L 79.414062 141.988281 C 79.414062 141.902344 79.417969 141.804688 79.429688 141.695312 L 82.125 118.695312 C 82.132812 118.65625 82.136719 118.617188 82.144531 118.578125 C 82.832031 115.40625 84.683594 112.992188 87.089844 111.390625 C 88.289062 110.585938 89.628906 109.992188 91.027344 109.605469 C 90.433594 109.199219 89.878906 108.738281 89.371094 108.230469 C 87.289062 106.152344 86.003906 103.28125 86.003906 100.105469 C 86.003906 96.933594 87.289062 94.0625 89.371094 91.984375 C 91.449219 89.902344 94.320312 88.617188 97.496094 88.617188 Z M 120.082031 123.238281 L 123.375 123.238281 C 126.234375 123.238281 128.070312 124.824219 128.878906 126.855469 C 129.1875 127.621094 129.339844 128.449219 129.339844 129.273438 L 129.34375 129.273438 C 129.34375 130.09375 129.1875 130.921875 128.878906 131.691406 C 128.070312 133.722656 126.234375 135.308594 123.375 135.308594 L 120.082031 135.308594 L 120.082031 144.546875 L 156.03125 144.546875 L 156.03125 140.042969 L 151.453125 140.042969 C 148.597656 140.042969 146.757812 138.457031 145.949219 136.425781 C 145.640625 135.65625 145.484375 134.828125 145.484375 134.007812 C 145.484375 133.191406 145.640625 132.363281 145.949219 131.589844 C 146.757812 129.558594 148.597656 127.972656 151.453125 127.972656 L 156.03125 127.972656 L 156.03125 92.296875 L 147.722656 92.296875 C 146.742188 94.113281 145.363281 95.75 143.675781 97.128906 C 140.214844 99.964844 135.445312 101.714844 130.1875 101.714844 C 128.808594 101.714844 127.457031 101.59375 126.152344 101.363281 C 124.964844 101.152344 123.808594 100.847656 122.699219 100.457031 L 120.082031 101.316406 Z M 118.480469 99.355469 C 118.511719 99.339844 118.542969 99.332031 118.578125 99.320312 L 122.339844 98.082031 C 122.636719 97.984375 122.945312 98.011719 123.207031 98.132812 C 124.261719 98.519531 125.382812 98.824219 126.558594 99.03125 C 127.726562 99.238281 128.941406 99.347656 130.1875 99.347656 C 134.882812 99.347656 139.121094 97.800781 142.175781 95.300781 C 145.167969 92.851562 147.019531 89.492188 147.019531 85.792969 C 147.019531 82.097656 145.167969 78.734375 142.175781 76.289062 C 139.121094 73.789062 134.882812 72.242188 130.1875 72.242188 C 125.496094 72.242188 121.257812 73.789062 118.203125 76.289062 C 115.210938 78.734375 113.359375 82.097656 113.359375 85.792969 C 113.359375 87.488281 113.742188 89.101562 114.441406 90.585938 C 115.175781 92.148438 116.257812 93.574219 117.617188 94.800781 C 118.035156 95.183594 118.117188 95.796875 117.84375 96.269531 L 117.847656 96.273438 L 115.46875 100.34375 Z M 140.390625 83.113281 C 139.386719 83.113281 138.476562 83.519531 137.820312 84.179688 C 137.160156 84.835938 136.753906 85.746094 136.753906 86.75 C 136.753906 87.753906 137.160156 88.664062 137.820312 89.324219 C 138.476562 89.980469 139.386719 90.386719 140.390625 90.386719 C 141.394531 90.386719 142.304688 89.980469 142.960938 89.324219 C 143.621094 88.664062 144.027344 87.753906 144.027344 86.75 C 144.027344 85.746094 143.621094 84.835938 142.960938 84.179688 C 142.304688 83.519531 141.394531 83.113281 140.390625 83.113281 Z M 141.289062 85.851562 C 141.058594 85.625 140.742188 85.480469 140.390625 85.480469 C 140.039062 85.480469 139.722656 85.625 139.492188 85.851562 C 139.261719 86.082031 139.121094 86.398438 139.121094 86.75 C 139.121094 87.101562 139.261719 87.417969 139.492188 87.648438 C 139.722656 87.878906 140.039062 88.019531 140.390625 88.019531 C 140.742188 88.019531 141.058594 87.878906 141.289062 87.648438 C 141.519531 87.417969 141.660156 87.101562 141.660156 86.75 C 141.660156 86.398438 141.519531 86.082031 141.289062 85.851562 Z M 130.1875 83.113281 C 129.183594 83.113281 128.277344 83.519531 127.617188 84.179688 C 126.960938 84.835938 126.550781 85.746094 126.550781 86.75 C 126.550781 87.753906 126.960938 88.664062 127.617188 89.324219 C 128.277344 89.980469 129.183594 90.386719 130.1875 90.386719 C 131.195312 90.386719 132.101562 89.980469 132.761719 89.324219 C 133.417969 88.664062 133.828125 87.753906 133.828125 86.75 C 133.828125 85.746094 133.417969 84.835938 132.761719 84.179688 C 132.101562 83.519531 131.195312 83.113281 130.1875 83.113281 Z M 131.085938 85.851562 C 130.859375 85.625 130.539062 85.480469 130.1875 85.480469 C 129.839844 85.480469 129.519531 85.625 129.292969 85.851562 C 129.0625 86.082031 128.917969 86.398438 128.917969 86.75 C 128.917969 87.101562 129.0625 87.417969 129.292969 87.648438 C 129.519531 87.878906 129.839844 88.019531 130.1875 88.019531 C 130.539062 88.019531 130.859375 87.878906 131.085938 87.648438 C 131.316406 87.417969 131.460938 87.101562 131.460938 86.75 C 131.460938 86.398438 131.316406 86.082031 131.085938 85.851562 Z M 119.988281 83.113281 C 118.984375 83.113281 118.074219 83.519531 117.417969 84.179688 C 116.757812 84.835938 116.351562 85.746094 116.351562 86.75 C 116.351562 87.753906 116.757812 88.664062 117.417969 89.324219 C 118.074219 89.980469 118.984375 90.386719 119.988281 90.386719 C 120.992188 90.386719 121.902344 89.980469 122.558594 89.324219 C 123.21875 88.664062 123.625 87.753906 123.625 86.75 C 123.625 85.746094 123.21875 84.835938 122.558594 84.179688 C 121.902344 83.519531 120.992188 83.113281 119.988281 83.113281 Z M 120.886719 85.851562 C 120.65625 85.625 120.339844 85.480469 119.988281 85.480469 C 119.636719 85.480469 119.320312 85.625 119.089844 85.851562 C 118.859375 86.082031 118.71875 86.398438 118.71875 86.75 C 118.71875 87.101562 118.859375 87.417969 119.089844 87.648438 C 119.320312 87.878906 119.636719 88.019531 119.988281 88.019531 C 120.339844 88.019531 120.65625 87.878906 120.886719 87.648438 C 121.117188 87.417969 121.257812 87.101562 121.257812 86.75 C 121.257812 86.398438 121.117188 86.082031 120.886719 85.851562 Z M 175.03125 111.367188 C 173.195312 113.253906 168.964844 120.4375 166.027344 125.425781 C 164.890625 127.359375 163.9375 128.976562 163.417969 129.792969 C 163.195312 130.144531 162.8125 130.339844 162.421875 130.339844 L 151.453125 130.339844 C 149.71875 130.339844 148.617188 131.269531 148.140625 132.460938 C 147.949219 132.9375 147.851562 133.46875 147.851562 134.007812 C 147.851562 134.546875 147.949219 135.078125 148.140625 135.558594 C 148.617188 136.746094 149.71875 137.675781 151.453125 137.675781 L 167.984375 137.675781 C 168.492188 137.675781 168.96875 137.558594 169.363281 137.332031 C 169.710938 137.128906 169.992188 136.839844 170.167969 136.464844 C 170.191406 136.417969 170.214844 136.371094 170.242188 136.328125 L 170.242188 136.324219 L 177.144531 125.613281 C 177.496094 125.0625 178.226562 124.902344 178.777344 125.257812 C 179.214844 125.539062 179.40625 126.058594 179.285156 126.539062 L 175.410156 141.878906 C 175.40625 141.90625 175.402344 141.933594 175.402344 141.964844 C 175.402344 142.007812 175.410156 142.042969 175.425781 142.066406 C 181.199219 142.125 187.289062 141.835938 193.007812 142.066406 C 193.015625 142.066406 193.027344 142.0625 193.03125 142.054688 C 193.046875 142.039062 193.054688 142.015625 193.054688 141.988281 L 193.046875 141.988281 L 193.046875 141.964844 L 190.363281 119.03125 C 189.804688 116.507812 188.363281 114.582031 186.488281 113.300781 C 184.398438 111.871094 181.769531 111.230469 179.21875 111.445312 C 178.605469 111.542969 177.976562 111.597656 177.335938 111.597656 C 176.546875 111.597656 175.773438 111.515625 175.03125 111.367188 Z M 175.417969 142.066406 C 175.414062 142.066406 175.410156 142.066406 175.414062 142.066406 Z M 177.335938 90.984375 C 174.816406 90.984375 172.535156 92.007812 170.882812 93.65625 C 169.234375 95.308594 168.210938 97.589844 168.210938 100.105469 C 168.210938 102.625 169.234375 104.90625 170.882812 106.558594 C 172.535156 108.207031 174.816406 109.230469 177.335938 109.230469 C 179.855469 109.230469 182.132812 108.207031 183.785156 106.558594 C 185.4375 104.90625 186.457031 102.625 186.457031 100.105469 C 186.457031 97.589844 185.4375 95.308594 183.785156 93.65625 C 182.132812 92.007812 179.855469 90.984375 177.335938 90.984375 Z M 100.074219 111.304688 C 99.242188 111.496094 98.378906 111.597656 97.496094 111.597656 C 96.933594 111.597656 96.382812 111.558594 95.84375 111.480469 C 93.269531 111.269531 90.558594 111.910156 88.402344 113.347656 C 86.496094 114.621094 85.019531 116.53125 84.46875 119.03125 L 81.78125 141.964844 L 81.78125 141.988281 L 81.777344 141.988281 C 81.777344 142.015625 81.785156 142.039062 81.796875 142.054688 C 81.804688 142.0625 81.8125 142.066406 81.820312 142.066406 C 87.542969 141.835938 93.628906 142.125 99.40625 142.066406 C 99.417969 142.042969 99.425781 142.007812 99.425781 141.964844 C 99.425781 141.933594 99.425781 141.90625 99.417969 141.878906 L 95.542969 126.539062 L 95.542969 126.535156 C 95.457031 126.175781 95.535156 125.78125 95.796875 125.476562 C 96.222656 124.984375 96.96875 124.933594 97.460938 125.359375 C 97.9375 125.769531 98.5625 126.363281 99.292969 127.058594 C 101.761719 129.402344 105.484375 132.941406 106.84375 132.941406 L 123.375 132.941406 C 125.113281 132.941406 126.214844 132.011719 126.6875 130.824219 C 126.878906 130.34375 126.976562 129.8125 126.976562 129.273438 L 126.980469 129.273438 C 126.980469 128.742188 126.882812 128.210938 126.6875 127.722656 C 126.214844 126.535156 125.113281 125.605469 123.375 125.605469 L 112.410156 125.605469 C 112.015625 125.605469 111.632812 125.410156 111.410156 125.054688 C 110.253906 123.238281 107.589844 119.773438 105.003906 116.683594 C 103.058594 114.359375 101.183594 112.273438 100.074219 111.304688 Z M 99.414062 142.066406 C 99.417969 142.066406 99.414062 142.066406 99.414062 142.066406 Z M 103.945312 93.65625 C 102.292969 92.007812 100.011719 90.984375 97.496094 90.984375 C 94.976562 90.984375 92.695312 92.007812 91.042969 93.65625 C 89.394531 95.308594 88.371094 97.589844 88.371094 100.105469 C 88.371094 102.625 89.394531 104.90625 91.042969 106.558594 C 92.695312 108.207031 94.976562 109.230469 97.496094 109.230469 C 100.011719 109.230469 102.292969 108.207031 103.945312 106.558594 C 105.59375 104.90625 106.617188 102.625 106.617188 100.105469 C 106.617188 97.589844 105.59375 95.308594 103.945312 93.65625 Z M 103.945312 93.65625 " fill-opacity="1" fill-rule="evenodd"/></g><g clip-path="url(#c19189ae6f)"><g mask="url(#ef5a8dfee2)"><g transform="matrix(0.00936172, 0, 0, 0.00936172, 91.692768, 94.354416)"><image x="0" y="0" width="1200" xlink:href="/images/maatregelen/_gedeeld/stap-badge-4-b7ab40b3f7.png" height="1200" preserveAspectRatio="xMidYMid meet"/></g></g></g><g clip-path="url(#0596b65558)"><g transform="matrix(1, 0, 0, 1, 57, 172)"><g clip-path="url(#27ff8a6186)"><g clip-path="url(#81ba4b16c5)"><path fill="#00a77a" d="M 0.398438 0.140625 L 170.070312 0.140625 L 170.070312 50.648438 L 0.398438 50.648438 Z M 0.398438 0.140625 " fill-opacity="1" fill-rule="nonzero"/></g></g></g></g><g fill="#ffffff" fill-opacity="1"><g transform="translate(101.235594, 206.592411)"><g><path d="M 10.21875 0.3125 C 7.625 0.3125 5.601562 -0.40625 4.15625 -1.84375 C 2.71875 -3.28125 2 -5.332031 2 -8 L 2 -18.171875 L 6.203125 -18.171875 L 6.203125 -8.15625 C 6.203125 -4.894531 7.550781 -3.265625 10.25 -3.265625 C 11.5625 -3.265625 12.5625 -3.65625 13.25 -4.4375 C 13.945312 -5.226562 14.296875 -6.46875 14.296875 -8.15625 L 14.296875 -18.171875 L 18.453125 -18.171875 L 18.453125 -8 C 18.453125 -5.332031 17.726562 -3.28125 16.28125 -1.84375 C 14.84375 -0.40625 12.820312 0.3125 10.21875 0.3125 Z M 10.21875 0.3125 "/></g></g></g><g fill="#ffffff" fill-opacity="1"><g transform="translate(121.688449, 206.592411)"><g><path d="M 1.875 -13.96875 L 5.921875 -13.96875 L 5.921875 0 L 1.875 0 Z M 3.890625 -15.90625 C 3.140625 -15.90625 2.53125 -16.117188 2.0625 -16.546875 C 1.601562 -16.984375 1.375 -17.523438 1.375 -18.171875 C 1.375 -18.804688 1.601562 -19.335938 2.0625 -19.765625 C 2.53125 -20.203125 3.140625 -20.421875 3.890625 -20.421875 C 4.628906 -20.421875 5.234375 -20.210938 5.703125 -19.796875 C 6.171875 -19.378906 6.40625 -18.863281 6.40625 -18.25 C 6.40625 -17.570312 6.171875 -17.007812 5.703125 -16.5625 C 5.234375 -16.125 4.628906 -15.90625 3.890625 -15.90625 Z M 3.890625 -15.90625 "/></g></g></g><g fill="#ffffff" fill-opacity="1"><g transform="translate(129.501029, 206.592411)"><g><path d="M 10.875 -0.671875 C 10.476562 -0.378906 9.988281 -0.160156 9.40625 -0.015625 C 8.820312 0.128906 8.210938 0.203125 7.578125 0.203125 C 5.921875 0.203125 4.632812 -0.21875 3.71875 -1.0625 C 2.8125 -1.90625 2.359375 -3.148438 2.359375 -4.796875 L 2.359375 -10.53125 L 0.203125 -10.53125 L 0.203125 -13.65625 L 2.359375 -13.65625 L 2.359375 -17.046875 L 6.40625 -17.046875 L 6.40625 -13.65625 L 9.890625 -13.65625 L 9.890625 -10.53125 L 6.40625 -10.53125 L 6.40625 -4.859375 C 6.40625 -4.265625 6.554688 -3.804688 6.859375 -3.484375 C 7.160156 -3.171875 7.59375 -3.015625 8.15625 -3.015625 C 8.789062 -3.015625 9.332031 -3.1875 9.78125 -3.53125 Z M 10.875 -0.671875 "/></g></g></g><g fill="#ffffff" fill-opacity="1"><g transform="translate(140.791627, 206.592411)"><g><path d="M 1.875 -19.25 L 5.921875 -19.25 L 5.921875 0 L 1.875 0 Z M 1.875 -19.25 "/></g></g></g><g fill="#ffffff" fill-opacity="1"><g transform="translate(148.604207, 206.592411)"><g><path d="M 15.546875 -6.921875 C 15.546875 -6.878906 15.519531 -6.519531 15.46875 -5.84375 L 4.90625 -5.84375 C 5.09375 -4.976562 5.539062 -4.289062 6.25 -3.78125 C 6.957031 -3.28125 7.84375 -3.03125 8.90625 -3.03125 C 9.625 -3.03125 10.265625 -3.140625 10.828125 -3.359375 C 11.390625 -3.578125 11.914062 -3.921875 12.40625 -4.390625 L 14.5625 -2.046875 C 13.25 -0.546875 11.328125 0.203125 8.796875 0.203125 C 7.222656 0.203125 5.828125 -0.101562 4.609375 -0.71875 C 3.398438 -1.332031 2.46875 -2.179688 1.8125 -3.265625 C 1.15625 -4.359375 0.828125 -5.597656 0.828125 -6.984375 C 0.828125 -8.347656 1.148438 -9.578125 1.796875 -10.671875 C 2.453125 -11.773438 3.34375 -12.632812 4.46875 -13.25 C 5.601562 -13.863281 6.875 -14.171875 8.28125 -14.171875 C 9.644531 -14.171875 10.878906 -13.875 11.984375 -13.28125 C 13.097656 -12.695312 13.96875 -11.851562 14.59375 -10.75 C 15.226562 -9.65625 15.546875 -8.378906 15.546875 -6.921875 Z M 8.3125 -11.109375 C 7.382812 -11.109375 6.609375 -10.847656 5.984375 -10.328125 C 5.367188 -9.804688 4.992188 -9.097656 4.859375 -8.203125 L 11.734375 -8.203125 C 11.585938 -9.085938 11.203125 -9.789062 10.578125 -10.3125 C 9.960938 -10.84375 9.207031 -11.109375 8.3125 -11.109375 Z M 8.3125 -11.109375 "/></g></g></g><g fill="#ffffff" fill-opacity="1"><g transform="translate(164.982063, 206.592411)"><g><path d="M 16.265625 -13.96875 L 16.265625 -2.328125 C 16.265625 0.222656 15.597656 2.125 14.265625 3.375 C 12.941406 4.625 11 5.25 8.4375 5.25 C 7.082031 5.25 5.800781 5.082031 4.59375 4.75 C 3.382812 4.414062 2.378906 3.941406 1.578125 3.328125 L 3.1875 0.421875 C 3.78125 0.898438 4.523438 1.28125 5.421875 1.5625 C 6.328125 1.851562 7.226562 2 8.125 2 C 9.519531 2 10.550781 1.679688 11.21875 1.046875 C 11.882812 0.421875 12.21875 -0.53125 12.21875 -1.8125 L 12.21875 -2.40625 C 11.164062 -1.25 9.695312 -0.671875 7.8125 -0.671875 C 6.53125 -0.671875 5.359375 -0.953125 4.296875 -1.515625 C 3.234375 -2.078125 2.390625 -2.867188 1.765625 -3.890625 C 1.140625 -4.910156 0.828125 -6.085938 0.828125 -7.421875 C 0.828125 -8.753906 1.140625 -9.929688 1.765625 -10.953125 C 2.390625 -11.972656 3.234375 -12.765625 4.296875 -13.328125 C 5.359375 -13.890625 6.53125 -14.171875 7.8125 -14.171875 C 9.832031 -14.171875 11.375 -13.503906 12.4375 -12.171875 L 12.4375 -13.96875 Z M 8.609375 -4 C 9.679688 -4 10.5625 -4.3125 11.25 -4.9375 C 11.9375 -5.570312 12.28125 -6.398438 12.28125 -7.421875 C 12.28125 -8.441406 11.9375 -9.265625 11.25 -9.890625 C 10.5625 -10.523438 9.679688 -10.84375 8.609375 -10.84375 C 7.535156 -10.84375 6.65625 -10.523438 5.96875 -9.890625 C 5.28125 -9.265625 4.9375 -8.441406 4.9375 -7.421875 C 4.9375 -6.398438 5.28125 -5.570312 5.96875 -4.9375 C 6.65625 -4.3125 7.535156 -4 8.609375 -4 Z M 8.609375 -4 "/></g></g></g><g clip-path="url(#0b01cd4f59)"><g clip-path="url(#5ffa6b7c95)"><g transform="matrix(1, 0, 0, 1, 0.000000000000000028, 172)"><g clip-path="url(#c4316d381b)"><g clip-path="url(#7876941ad8)"><g clip-path="url(#effa992c47)"><path fill="#00a77a" d="M 0.203125 0.140625 L 284.105469 0.140625 L 284.105469 50.648438 L 0.203125 50.648438 Z M 0.203125 0.140625 " fill-opacity="1" fill-rule="nonzero"/></g></g></g></g></g></g><g fill="#ffffff" fill-opacity="1"><g transform="translate(101.238212, 206.592411)"><g><path d="M 10.21875 0.3125 C 7.625 0.3125 5.601562 -0.40625 4.15625 -1.84375 C 2.71875 -3.28125 2 -5.332031 2 -8 L 2 -18.171875 L 6.203125 -18.171875 L 6.203125 -8.15625 C 6.203125 -4.894531 7.550781 -3.265625 10.25 -3.265625 C 11.5625 -3.265625 12.5625 -3.65625 13.25 -4.4375 C 13.945312 -5.226562 14.296875 -6.46875 14.296875 -8.15625 L 14.296875 -18.171875 L 18.453125 -18.171875 L 18.453125 -8 C 18.453125 -5.332031 17.726562 -3.28125 16.28125 -1.84375 C 14.84375 -0.40625 12.820312 0.3125 10.21875 0.3125 Z M 10.21875 0.3125 "/></g></g></g><g fill="#ffffff" fill-opacity="1"><g transform="translate(121.691068, 206.592411)"><g><path d="M 1.875 -13.96875 L 5.921875 -13.96875 L 5.921875 0 L 1.875 0 Z M 3.890625 -15.90625 C 3.140625 -15.90625 2.53125 -16.117188 2.0625 -16.546875 C 1.601562 -16.984375 1.375 -17.523438 1.375 -18.171875 C 1.375 -18.804688 1.601562 -19.335938 2.0625 -19.765625 C 2.53125 -20.203125 3.140625 -20.421875 3.890625 -20.421875 C 4.628906 -20.421875 5.234375 -20.210938 5.703125 -19.796875 C 6.171875 -19.378906 6.40625 -18.863281 6.40625 -18.25 C 6.40625 -17.570312 6.171875 -17.007812 5.703125 -16.5625 C 5.234375 -16.125 4.628906 -15.90625 3.890625 -15.90625 Z M 3.890625 -15.90625 "/></g></g></g><g fill="#ffffff" fill-opacity="1"><g transform="translate(129.503647, 206.592411)"><g><path d="M 10.875 -0.671875 C 10.476562 -0.378906 9.988281 -0.160156 9.40625 -0.015625 C 8.820312 0.128906 8.210938 0.203125 7.578125 0.203125 C 5.921875 0.203125 4.632812 -0.21875 3.71875 -1.0625 C 2.8125 -1.90625 2.359375 -3.148438 2.359375 -4.796875 L 2.359375 -10.53125 L 0.203125 -10.53125 L 0.203125 -13.65625 L 2.359375 -13.65625 L 2.359375 -17.046875 L 6.40625 -17.046875 L 6.40625 -13.65625 L 9.890625 -13.65625 L 9.890625 -10.53125 L 6.40625 -10.53125 L 6.40625 -4.859375 C 6.40625 -4.265625 6.554688 -3.804688 6.859375 -3.484375 C 7.160156 -3.171875 7.59375 -3.015625 8.15625 -3.015625 C 8.789062 -3.015625 9.332031 -3.1875 9.78125 -3.53125 Z M 10.875 -0.671875 "/></g></g></g><g fill="#ffffff" fill-opacity="1"><g transform="translate(140.794245, 206.592411)"><g><path d="M 1.875 -19.25 L 5.921875 -19.25 L 5.921875 0 L 1.875 0 Z M 1.875 -19.25 "/></g></g></g><g fill="#ffffff" fill-opacity="1"><g transform="translate(148.606825, 206.592411)"><g><path d="M 15.546875 -6.921875 C 15.546875 -6.878906 15.519531 -6.519531 15.46875 -5.84375 L 4.90625 -5.84375 C 5.09375 -4.976562 5.539062 -4.289062 6.25 -3.78125 C 6.957031 -3.28125 7.84375 -3.03125 8.90625 -3.03125 C 9.625 -3.03125 10.265625 -3.140625 10.828125 -3.359375 C 11.390625 -3.578125 11.914062 -3.921875 12.40625 -4.390625 L 14.5625 -2.046875 C 13.25 -0.546875 11.328125 0.203125 8.796875 0.203125 C 7.222656 0.203125 5.828125 -0.101562 4.609375 -0.71875 C 3.398438 -1.332031 2.46875 -2.179688 1.8125 -3.265625 C 1.15625 -4.359375 0.828125 -5.597656 0.828125 -6.984375 C 0.828125 -8.347656 1.148438 -9.578125 1.796875 -10.671875 C 2.453125 -11.773438 3.34375 -12.632812 4.46875 -13.25 C 5.601562 -13.863281 6.875 -14.171875 8.28125 -14.171875 C 9.644531 -14.171875 10.878906 -13.875 11.984375 -13.28125 C 13.097656 -12.695312 13.96875 -11.851562 14.59375 -10.75 C 15.226562 -9.65625 15.546875 -8.378906 15.546875 -6.921875 Z M 8.3125 -11.109375 C 7.382812 -11.109375 6.609375 -10.847656 5.984375 -10.328125 C 5.367188 -9.804688 4.992188 -9.097656 4.859375 -8.203125 L 11.734375 -8.203125 C 11.585938 -9.085938 11.203125 -9.789062 10.578125 -10.3125 C 9.960938 -10.84375 9.207031 -11.109375 8.3125 -11.109375 Z M 8.3125 -11.109375 "/></g></g></g><g fill="#ffffff" fill-opacity="1"><g transform="translate(164.984681, 206.592411)"><g><path d="M 16.265625 -13.96875 L 16.265625 -2.328125 C 16.265625 0.222656 15.597656 2.125 14.265625 3.375 C 12.941406 4.625 11 5.25 8.4375 5.25 C 7.082031 5.25 5.800781 5.082031 4.59375 4.75 C 3.382812 4.414062 2.378906 3.941406 1.578125 3.328125 L 3.1875 0.421875 C 3.78125 0.898438 4.523438 1.28125 5.421875 1.5625 C 6.328125 1.851562 7.226562 2 8.125 2 C 9.519531 2 10.550781 1.679688 11.21875 1.046875 C 11.882812 0.421875 12.21875 -0.53125 12.21875 -1.8125 L 12.21875 -2.40625 C 11.164062 -1.25 9.695312 -0.671875 7.8125 -0.671875 C 6.53125 -0.671875 5.359375 -0.953125 4.296875 -1.515625 C 3.234375 -2.078125 2.390625 -2.867188 1.765625 -3.890625 C 1.140625 -4.910156 0.828125 -6.085938 0.828125 -7.421875 C 0.828125 -8.753906 1.140625 -9.929688 1.765625 -10.953125 C 2.390625 -11.972656 3.234375 -12.765625 4.296875 -13.328125 C 5.359375 -13.890625 6.53125 -14.171875 7.8125 -14.171875 C 9.832031 -14.171875 11.375 -13.503906 12.4375 -12.171875 L 12.4375 -13.96875 Z M 8.609375 -4 C 9.679688 -4 10.5625 -4.3125 11.25 -4.9375 C 11.9375 -5.570312 12.28125 -6.398438 12.28125 -7.421875 C 12.28125 -8.441406 11.9375 -9.265625 11.25 -9.890625 C 10.5625 -10.523438 9.679688 -10.84375 8.609375 -10.84375 C 7.535156 -10.84375 6.65625 -10.523438 5.96875 -9.890625 C 5.28125 -9.265625 4.9375 -8.441406 4.9375 -7.421875 C 4.9375 -6.398438 5.28125 -5.570312 5.96875 -4.9375 C 6.65625 -4.3125 7.535156 -4 8.609375 -4 Z M 8.609375 -4 "/></g></g></g><g clip-path="url(#213595791f)"><g clip-path="url(#43e87adf05)"><g mask="url(#459c53ddc9)"><g transform="matrix(1, 0, 0, 1, 0.000000000000000028, 229)"><g clip-path="url(#5019333167)"><g clip-path="url(#543154b225)"><g clip-path="url(#6167e18573)"><path fill="#00a77a" d="M 0.203125 0.355469 L 284.21875 0.355469 L 284.21875 122.761719 L 0.203125 122.761719 Z M 0.203125 0.355469 " fill-opacity="1" fill-rule="nonzero"/></g></g></g></g></g></g></g><g fill="#ffffff" fill-opacity="1"><g transform="translate(14.747619, 263.807998)"><g><path d="M 8.59375 -8.53125 L 4.875 -4.78125 L 4.875 0 L 2.953125 0 L 2.953125 -18.171875 L 4.875 -18.171875 L 4.875 -7.1875 L 15.546875 -18.171875 L 17.75 -18.171875 L 9.890625 -9.9375 L 18.296875 0 L 16.015625 0 Z M 8.59375 -8.53125 "/></g></g></g><g fill="#ffffff" fill-opacity="1"><g transform="translate(32.578919, 263.807998)"><g><path d="M 8.15625 0.125 C 6.832031 0.125 5.644531 -0.171875 4.59375 -0.765625 C 3.539062 -1.359375 2.707031 -2.179688 2.09375 -3.234375 C 1.488281 -4.296875 1.1875 -5.492188 1.1875 -6.828125 C 1.1875 -8.160156 1.488281 -9.351562 2.09375 -10.40625 C 2.707031 -11.457031 3.539062 -12.273438 4.59375 -12.859375 C 5.644531 -13.453125 6.832031 -13.75 8.15625 -13.75 C 9.46875 -13.75 10.648438 -13.453125 11.703125 -12.859375 C 12.753906 -12.273438 13.578125 -11.457031 14.171875 -10.40625 C 14.773438 -9.351562 15.078125 -8.160156 15.078125 -6.828125 C 15.078125 -5.492188 14.773438 -4.296875 14.171875 -3.234375 C 13.578125 -2.179688 12.753906 -1.359375 11.703125 -0.765625 C 10.648438 -0.171875 9.46875 0.125 8.15625 0.125 Z M 8.15625 -1.5 C 9.125 -1.5 9.988281 -1.71875 10.75 -2.15625 C 11.519531 -2.601562 12.117188 -3.234375 12.546875 -4.046875 C 12.984375 -4.859375 13.203125 -5.785156 13.203125 -6.828125 C 13.203125 -7.867188 12.984375 -8.796875 12.546875 -9.609375 C 12.117188 -10.421875 11.519531 -11.046875 10.75 -11.484375 C 9.988281 -11.921875 9.125 -12.140625 8.15625 -12.140625 C 7.1875 -12.140625 6.316406 -11.921875 5.546875 -11.484375 C 4.773438 -11.046875 4.164062 -10.421875 3.71875 -9.609375 C 3.28125 -8.796875 3.0625 -7.867188 3.0625 -6.828125 C 3.0625 -5.785156 3.28125 -4.859375 3.71875 -4.046875 C 4.164062 -3.234375 4.773438 -2.601562 5.546875 -2.15625 C 6.316406 -1.71875 7.1875 -1.5 8.15625 -1.5 Z M 8.15625 -1.5 "/></g></g></g><g fill="#ffffff" fill-opacity="1"><g transform="translate(48.852953, 263.807998)"><g><path d="M 4.328125 -10.984375 C 4.765625 -11.898438 5.410156 -12.585938 6.265625 -13.046875 C 7.117188 -13.515625 8.179688 -13.75 9.453125 -13.75 L 9.453125 -11.96875 L 9 -11.984375 C 7.570312 -11.984375 6.445312 -11.539062 5.625 -10.65625 C 4.8125 -9.78125 4.40625 -8.546875 4.40625 -6.953125 L 4.40625 0 L 2.5625 0 L 2.5625 -13.65625 L 4.328125 -13.65625 Z M 4.328125 -10.984375 "/></g></g></g><g fill="#ffffff" fill-opacity="1"><g transform="translate(59.650438, 263.807998)"><g><path d="M 9.765625 -0.828125 C 9.410156 -0.515625 8.976562 -0.273438 8.46875 -0.109375 C 7.957031 0.046875 7.425781 0.125 6.875 0.125 C 5.59375 0.125 4.601562 -0.21875 3.90625 -0.90625 C 3.21875 -1.601562 2.875 -2.582031 2.875 -3.84375 L 2.875 -12.09375 L 0.4375 -12.09375 L 0.4375 -13.65625 L 2.875 -13.65625 L 2.875 -16.640625 L 4.71875 -16.640625 L 4.71875 -13.65625 L 8.875 -13.65625 L 8.875 -12.09375 L 4.71875 -12.09375 L 4.71875 -3.9375 C 4.71875 -3.125 4.921875 -2.503906 5.328125 -2.078125 C 5.734375 -1.660156 6.316406 -1.453125 7.078125 -1.453125 C 7.460938 -1.453125 7.832031 -1.507812 8.1875 -1.625 C 8.539062 -1.75 8.847656 -1.925781 9.109375 -2.15625 Z M 9.765625 -0.828125 "/></g></g></g><g fill="#ffffff" fill-opacity="1"><g transform="translate(70.188327, 263.807998)"><g/></g></g><g fill="#ffffff" fill-opacity="1"><g transform="translate(76.988636, 263.807998)"><g><path d="M 9.609375 -13.75 C 10.878906 -13.75 12.035156 -13.457031 13.078125 -12.875 C 14.117188 -12.300781 14.929688 -11.484375 15.515625 -10.421875 C 16.109375 -9.367188 16.40625 -8.171875 16.40625 -6.828125 C 16.40625 -5.472656 16.109375 -4.269531 15.515625 -3.21875 C 14.929688 -2.164062 14.117188 -1.34375 13.078125 -0.75 C 12.035156 -0.164062 10.878906 0.125 9.609375 0.125 C 8.460938 0.125 7.4375 -0.113281 6.53125 -0.59375 C 5.625 -1.082031 4.890625 -1.785156 4.328125 -2.703125 L 4.328125 0 L 2.5625 0 L 2.5625 -19.25 L 4.40625 -19.25 L 4.40625 -11.0625 C 4.976562 -11.9375 5.707031 -12.601562 6.59375 -13.0625 C 7.488281 -13.519531 8.492188 -13.75 9.609375 -13.75 Z M 9.46875 -1.5 C 10.425781 -1.5 11.289062 -1.71875 12.0625 -2.15625 C 12.84375 -2.601562 13.453125 -3.234375 13.890625 -4.046875 C 14.335938 -4.859375 14.5625 -5.785156 14.5625 -6.828125 C 14.5625 -7.867188 14.335938 -8.796875 13.890625 -9.609375 C 13.453125 -10.421875 12.84375 -11.046875 12.0625 -11.484375 C 11.289062 -11.921875 10.425781 -12.140625 9.46875 -12.140625 C 8.5 -12.140625 7.628906 -11.921875 6.859375 -11.484375 C 6.085938 -11.046875 5.484375 -10.421875 5.046875 -9.609375 C 4.609375 -8.796875 4.390625 -7.867188 4.390625 -6.828125 C 4.390625 -5.785156 4.609375 -4.859375 5.046875 -4.046875 C 5.484375 -3.234375 6.085938 -2.601562 6.859375 -2.15625 C 7.628906 -1.71875 8.5 -1.5 9.46875 -1.5 Z M 9.46875 -1.5 "/></g></g></g><g fill="#ffffff" fill-opacity="1"><g transform="translate(94.586397, 263.807998)"><g><path d="M 14.453125 -6.25 L 3.03125 -6.25 C 3.132812 -4.832031 3.679688 -3.6875 4.671875 -2.8125 C 5.660156 -1.9375 6.90625 -1.5 8.40625 -1.5 C 9.257812 -1.5 10.039062 -1.648438 10.75 -1.953125 C 11.457031 -2.253906 12.070312 -2.703125 12.59375 -3.296875 L 13.625 -2.109375 C 13.019531 -1.378906 12.257812 -0.820312 11.34375 -0.4375 C 10.4375 -0.0625 9.441406 0.125 8.359375 0.125 C 6.953125 0.125 5.707031 -0.171875 4.625 -0.765625 C 3.550781 -1.359375 2.707031 -2.179688 2.09375 -3.234375 C 1.488281 -4.296875 1.1875 -5.492188 1.1875 -6.828125 C 1.1875 -8.160156 1.476562 -9.351562 2.0625 -10.40625 C 2.644531 -11.457031 3.441406 -12.273438 4.453125 -12.859375 C 5.460938 -13.453125 6.597656 -13.75 7.859375 -13.75 C 9.128906 -13.75 10.265625 -13.453125 11.265625 -12.859375 C 12.265625 -12.273438 13.050781 -11.457031 13.625 -10.40625 C 14.195312 -9.363281 14.484375 -8.171875 14.484375 -6.828125 Z M 7.859375 -12.171875 C 6.546875 -12.171875 5.441406 -11.75 4.546875 -10.90625 C 3.660156 -10.070312 3.15625 -8.976562 3.03125 -7.625 L 12.71875 -7.625 C 12.59375 -8.976562 12.082031 -10.070312 11.1875 -10.90625 C 10.300781 -11.75 9.191406 -12.171875 7.859375 -12.171875 Z M 7.859375 -12.171875 "/></g></g></g><g fill="#ffffff" fill-opacity="1"><g transform="translate(110.263462, 263.807998)"><g><path d="M 6.234375 0.125 C 5.117188 0.125 4.054688 -0.03125 3.046875 -0.34375 C 2.035156 -0.664062 1.242188 -1.070312 0.671875 -1.5625 L 1.5 -3.015625 C 2.070312 -2.554688 2.789062 -2.1875 3.65625 -1.90625 C 4.519531 -1.625 5.421875 -1.484375 6.359375 -1.484375 C 7.609375 -1.484375 8.53125 -1.675781 9.125 -2.0625 C 9.71875 -2.445312 10.015625 -3 10.015625 -3.71875 C 10.015625 -4.21875 9.847656 -4.609375 9.515625 -4.890625 C 9.191406 -5.179688 8.78125 -5.398438 8.28125 -5.546875 C 7.78125 -5.691406 7.113281 -5.832031 6.28125 -5.96875 C 5.175781 -6.175781 4.285156 -6.382812 3.609375 -6.59375 C 2.929688 -6.8125 2.351562 -7.179688 1.875 -7.703125 C 1.40625 -8.222656 1.171875 -8.941406 1.171875 -9.859375 C 1.171875 -11.003906 1.644531 -11.9375 2.59375 -12.65625 C 3.539062 -13.382812 4.863281 -13.75 6.5625 -13.75 C 7.445312 -13.75 8.328125 -13.628906 9.203125 -13.390625 C 10.085938 -13.160156 10.816406 -12.859375 11.390625 -12.484375 L 10.59375 -11 C 9.46875 -11.78125 8.125 -12.171875 6.5625 -12.171875 C 5.382812 -12.171875 4.5 -11.960938 3.90625 -11.546875 C 3.3125 -11.128906 3.015625 -10.585938 3.015625 -9.921875 C 3.015625 -9.398438 3.179688 -8.984375 3.515625 -8.671875 C 3.847656 -8.359375 4.265625 -8.128906 4.765625 -7.984375 C 5.273438 -7.835938 5.972656 -7.6875 6.859375 -7.53125 C 7.941406 -7.320312 8.8125 -7.113281 9.46875 -6.90625 C 10.125 -6.695312 10.6875 -6.34375 11.15625 -5.84375 C 11.625 -5.34375 11.859375 -4.648438 11.859375 -3.765625 C 11.859375 -2.566406 11.359375 -1.617188 10.359375 -0.921875 C 9.367188 -0.222656 7.992188 0.125 6.234375 0.125 Z M 6.234375 0.125 "/></g></g></g><g fill="#ffffff" fill-opacity="1"><g transform="translate(122.955655, 263.807998)"><g><path d="M 9.609375 -13.75 C 10.878906 -13.75 12.035156 -13.457031 13.078125 -12.875 C 14.117188 -12.300781 14.929688 -11.484375 15.515625 -10.421875 C 16.109375 -9.367188 16.40625 -8.171875 16.40625 -6.828125 C 16.40625 -5.460938 16.109375 -4.25 15.515625 -3.1875 C 14.929688 -2.132812 14.125 -1.316406 13.09375 -0.734375 C 12.0625 -0.160156 10.898438 0.125 9.609375 0.125 C 8.492188 0.125 7.488281 -0.101562 6.59375 -0.5625 C 5.707031 -1.019531 4.976562 -1.6875 4.40625 -2.5625 L 4.40625 5.03125 L 2.5625 5.03125 L 2.5625 -13.65625 L 4.328125 -13.65625 L 4.328125 -10.953125 C 4.890625 -11.847656 5.625 -12.535156 6.53125 -13.015625 C 7.4375 -13.503906 8.460938 -13.75 9.609375 -13.75 Z M 9.46875 -1.5 C 10.425781 -1.5 11.289062 -1.71875 12.0625 -2.15625 C 12.84375 -2.601562 13.453125 -3.234375 13.890625 -4.046875 C 14.335938 -4.859375 14.5625 -5.785156 14.5625 -6.828125 C 14.5625 -7.867188 14.335938 -8.789062 13.890625 -9.59375 C 13.453125 -10.394531 12.84375 -11.019531 12.0625 -11.46875 C 11.289062 -11.914062 10.425781 -12.140625 9.46875 -12.140625 C 8.5 -12.140625 7.628906 -11.914062 6.859375 -11.46875 C 6.085938 -11.019531 5.484375 -10.394531 5.046875 -9.59375 C 4.609375 -8.789062 4.390625 -7.867188 4.390625 -6.828125 C 4.390625 -5.785156 4.609375 -4.859375 5.046875 -4.046875 C 5.484375 -3.234375 6.085938 -2.601562 6.859375 -2.15625 C 7.628906 -1.71875 8.5 -1.5 9.46875 -1.5 Z M 9.46875 -1.5 "/></g></g></g><g fill="#ffffff" fill-opacity="1"><g transform="translate(140.553415, 263.807998)"><g><path d="M 4.328125 -10.984375 C 4.765625 -11.898438 5.410156 -12.585938 6.265625 -13.046875 C 7.117188 -13.515625 8.179688 -13.75 9.453125 -13.75 L 9.453125 -11.96875 L 9 -11.984375 C 7.570312 -11.984375 6.445312 -11.539062 5.625 -10.65625 C 4.8125 -9.78125 4.40625 -8.546875 4.40625 -6.953125 L 4.40625 0 L 2.5625 0 L 2.5625 -13.65625 L 4.328125 -13.65625 Z M 4.328125 -10.984375 "/></g></g></g><g fill="#ffffff" fill-opacity="1"><g transform="translate(150.624076, 263.807998)"><g><path d="M 14.453125 -6.25 L 3.03125 -6.25 C 3.132812 -4.832031 3.679688 -3.6875 4.671875 -2.8125 C 5.660156 -1.9375 6.90625 -1.5 8.40625 -1.5 C 9.257812 -1.5 10.039062 -1.648438 10.75 -1.953125 C 11.457031 -2.253906 12.070312 -2.703125 12.59375 -3.296875 L 13.625 -2.109375 C 13.019531 -1.378906 12.257812 -0.820312 11.34375 -0.4375 C 10.4375 -0.0625 9.441406 0.125 8.359375 0.125 C 6.953125 0.125 5.707031 -0.171875 4.625 -0.765625 C 3.550781 -1.359375 2.707031 -2.179688 2.09375 -3.234375 C 1.488281 -4.296875 1.1875 -5.492188 1.1875 -6.828125 C 1.1875 -8.160156 1.476562 -9.351562 2.0625 -10.40625 C 2.644531 -11.457031 3.441406 -12.273438 4.453125 -12.859375 C 5.460938 -13.453125 6.597656 -13.75 7.859375 -13.75 C 9.128906 -13.75 10.265625 -13.453125 11.265625 -12.859375 C 12.265625 -12.273438 13.050781 -11.457031 13.625 -10.40625 C 14.195312 -9.363281 14.484375 -8.171875 14.484375 -6.828125 Z M 7.859375 -12.171875 C 6.546875 -12.171875 5.441406 -11.75 4.546875 -10.90625 C 3.660156 -10.070312 3.15625 -8.976562 3.03125 -7.625 L 12.71875 -7.625 C 12.59375 -8.976562 12.082031 -10.070312 11.1875 -10.90625 C 10.300781 -11.75 9.191406 -12.171875 7.859375 -12.171875 Z M 7.859375 -12.171875 "/></g></g></g><g fill="#ffffff" fill-opacity="1"><g transform="translate(166.301141, 263.807998)"><g><path d="M 7.625 -6.859375 L 4.40625 -3.890625 L 4.40625 0 L 2.5625 0 L 2.5625 -19.25 L 4.40625 -19.25 L 4.40625 -6.203125 L 12.5625 -13.65625 L 14.84375 -13.65625 L 9 -8.078125 L 15.390625 0 L 13.125 0 Z M 7.625 -6.859375 "/></g></g></g><g fill="#ffffff" fill-opacity="1"><g transform="translate(181.355214, 263.807998)"><g><path d="M 14.453125 -6.25 L 3.03125 -6.25 C 3.132812 -4.832031 3.679688 -3.6875 4.671875 -2.8125 C 5.660156 -1.9375 6.90625 -1.5 8.40625 -1.5 C 9.257812 -1.5 10.039062 -1.648438 10.75 -1.953125 C 11.457031 -2.253906 12.070312 -2.703125 12.59375 -3.296875 L 13.625 -2.109375 C 13.019531 -1.378906 12.257812 -0.820312 11.34375 -0.4375 C 10.4375 -0.0625 9.441406 0.125 8.359375 0.125 C 6.953125 0.125 5.707031 -0.171875 4.625 -0.765625 C 3.550781 -1.359375 2.707031 -2.179688 2.09375 -3.234375 C 1.488281 -4.296875 1.1875 -5.492188 1.1875 -6.828125 C 1.1875 -8.160156 1.476562 -9.351562 2.0625 -10.40625 C 2.644531 -11.457031 3.441406 -12.273438 4.453125 -12.859375 C 5.460938 -13.453125 6.597656 -13.75 7.859375 -13.75 C 9.128906 -13.75 10.265625 -13.453125 11.265625 -12.859375 C 12.265625 -12.273438 13.050781 -11.457031 13.625 -10.40625 C 14.195312 -9.363281 14.484375 -8.171875 14.484375 -6.828125 Z M 7.859375 -12.171875 C 6.546875 -12.171875 5.441406 -11.75 4.546875 -10.90625 C 3.660156 -10.070312 3.15625 -8.976562 3.03125 -7.625 L 12.71875 -7.625 C 12.59375 -8.976562 12.082031 -10.070312 11.1875 -10.90625 C 10.300781 -11.75 9.191406 -12.171875 7.859375 -12.171875 Z M 7.859375 -12.171875 "/></g></g></g><g fill="#ffffff" fill-opacity="1"><g transform="translate(197.032279, 263.807998)"><g><path d="M 9.53125 -13.75 C 11.238281 -13.75 12.597656 -13.25 13.609375 -12.25 C 14.617188 -11.257812 15.125 -9.816406 15.125 -7.921875 L 15.125 0 L 13.28125 0 L 13.28125 -7.734375 C 13.28125 -9.148438 12.925781 -10.226562 12.21875 -10.96875 C 11.507812 -11.71875 10.5 -12.09375 9.1875 -12.09375 C 7.71875 -12.09375 6.550781 -11.65625 5.6875 -10.78125 C 4.832031 -9.90625 4.40625 -8.695312 4.40625 -7.15625 L 4.40625 0 L 2.5625 0 L 2.5625 -13.65625 L 4.328125 -13.65625 L 4.328125 -11.140625 C 4.835938 -11.960938 5.535156 -12.601562 6.421875 -13.0625 C 7.316406 -13.519531 8.351562 -13.75 9.53125 -13.75 Z M 9.53125 -13.75 "/></g></g></g><g fill="#ffffff" fill-opacity="1"><g transform="translate(214.604076, 263.807998)"><g/></g></g><g fill="#ffffff" fill-opacity="1"><g transform="translate(221.404396, 263.807998)"><g><path d="M 22.609375 -13.65625 L 17.4375 0 L 15.703125 0 L 11.390625 -11.1875 L 7.078125 0 L 5.34375 0 L 0.203125 -13.65625 L 1.96875 -13.65625 L 6.25 -2.046875 L 10.640625 -13.65625 L 12.21875 -13.65625 L 16.578125 -2.046875 L 20.921875 -13.65625 Z M 22.609375 -13.65625 "/></g></g></g><g fill="#ffffff" fill-opacity="1"><g transform="translate(243.803866, 263.807998)"><g><path d="M 7.34375 -13.75 C 9.125 -13.75 10.488281 -13.300781 11.4375 -12.40625 C 12.394531 -11.519531 12.875 -10.203125 12.875 -8.453125 L 12.875 0 L 11.109375 0 L 11.109375 -2.125 C 10.691406 -1.414062 10.082031 -0.863281 9.28125 -0.46875 C 8.476562 -0.0703125 7.519531 0.125 6.40625 0.125 C 4.882812 0.125 3.671875 -0.234375 2.765625 -0.953125 C 1.867188 -1.679688 1.421875 -2.644531 1.421875 -3.84375 C 1.421875 -5 1.835938 -5.929688 2.671875 -6.640625 C 3.515625 -7.347656 4.859375 -7.703125 6.703125 -7.703125 L 11.03125 -7.703125 L 11.03125 -8.53125 C 11.03125 -9.707031 10.703125 -10.601562 10.046875 -11.21875 C 9.390625 -11.832031 8.425781 -12.140625 7.15625 -12.140625 C 6.289062 -12.140625 5.460938 -12 4.671875 -11.71875 C 3.878906 -11.4375 3.195312 -11.039062 2.625 -10.53125 L 1.796875 -11.90625 C 2.484375 -12.5 3.3125 -12.953125 4.28125 -13.265625 C 5.25 -13.585938 6.269531 -13.75 7.34375 -13.75 Z M 6.703125 -1.328125 C 7.734375 -1.328125 8.617188 -1.5625 9.359375 -2.03125 C 10.109375 -2.507812 10.664062 -3.195312 11.03125 -4.09375 L 11.03125 -6.328125 L 6.75 -6.328125 C 4.414062 -6.328125 3.25 -5.515625 3.25 -3.890625 C 3.25 -3.097656 3.550781 -2.472656 4.15625 -2.015625 C 4.757812 -1.554688 5.609375 -1.328125 6.703125 -1.328125 Z M 6.703125 -1.328125 "/></g></g></g><g fill="#ffffff" fill-opacity="1"><g transform="translate(259.117547, 263.807998)"><g><path d="M 9.765625 -0.828125 C 9.410156 -0.515625 8.976562 -0.273438 8.46875 -0.109375 C 7.957031 0.046875 7.425781 0.125 6.875 0.125 C 5.59375 0.125 4.601562 -0.21875 3.90625 -0.90625 C 3.21875 -1.601562 2.875 -2.582031 2.875 -3.84375 L 2.875 -12.09375 L 0.4375 -12.09375 L 0.4375 -13.65625 L 2.875 -13.65625 L 2.875 -16.640625 L 4.71875 -16.640625 L 4.71875 -13.65625 L 8.875 -13.65625 L 8.875 -12.09375 L 4.71875 -12.09375 L 4.71875 -3.9375 C 4.71875 -3.125 4.921875 -2.503906 5.328125 -2.078125 C 5.734375 -1.660156 6.316406 -1.453125 7.078125 -1.453125 C 7.460938 -1.453125 7.832031 -1.507812 8.1875 -1.625 C 8.539062 -1.75 8.847656 -1.925781 9.109375 -2.15625 Z M 9.765625 -0.828125 "/></g></g></g><g fill="#ffffff" fill-opacity="1"><g transform="translate(36.537022, 299.757004)"><g><path d="M 14.453125 -6.25 L 3.03125 -6.25 C 3.132812 -4.832031 3.679688 -3.6875 4.671875 -2.8125 C 5.660156 -1.9375 6.90625 -1.5 8.40625 -1.5 C 9.257812 -1.5 10.039062 -1.648438 10.75 -1.953125 C 11.457031 -2.253906 12.070312 -2.703125 12.59375 -3.296875 L 13.625 -2.109375 C 13.019531 -1.378906 12.257812 -0.820312 11.34375 -0.4375 C 10.4375 -0.0625 9.441406 0.125 8.359375 0.125 C 6.953125 0.125 5.707031 -0.171875 4.625 -0.765625 C 3.550781 -1.359375 2.707031 -2.179688 2.09375 -3.234375 C 1.488281 -4.296875 1.1875 -5.492188 1.1875 -6.828125 C 1.1875 -8.160156 1.476562 -9.351562 2.0625 -10.40625 C 2.644531 -11.457031 3.441406 -12.273438 4.453125 -12.859375 C 5.460938 -13.453125 6.597656 -13.75 7.859375 -13.75 C 9.128906 -13.75 10.265625 -13.453125 11.265625 -12.859375 C 12.265625 -12.273438 13.050781 -11.457031 13.625 -10.40625 C 14.195312 -9.363281 14.484375 -8.171875 14.484375 -6.828125 Z M 7.859375 -12.171875 C 6.546875 -12.171875 5.441406 -11.75 4.546875 -10.90625 C 3.660156 -10.070312 3.15625 -8.976562 3.03125 -7.625 L 12.71875 -7.625 C 12.59375 -8.976562 12.082031 -10.070312 11.1875 -10.90625 C 10.300781 -11.75 9.191406 -12.171875 7.859375 -12.171875 Z M 7.859375 -12.171875 "/></g></g></g><g fill="#ffffff" fill-opacity="1"><g transform="translate(52.214087, 299.757004)"><g><path d="M 4.328125 -10.984375 C 4.765625 -11.898438 5.410156 -12.585938 6.265625 -13.046875 C 7.117188 -13.515625 8.179688 -13.75 9.453125 -13.75 L 9.453125 -11.96875 L 9 -11.984375 C 7.570312 -11.984375 6.445312 -11.539062 5.625 -10.65625 C 4.8125 -9.78125 4.40625 -8.546875 4.40625 -6.953125 L 4.40625 0 L 2.5625 0 L 2.5625 -13.65625 L 4.328125 -13.65625 Z M 4.328125 -10.984375 "/></g></g></g><g fill="#ffffff" fill-opacity="1"><g transform="translate(62.622202, 299.757004)"><g/></g></g><g fill="#ffffff" fill-opacity="1"><g transform="translate(69.422511, 299.757004)"><g><path d="M 14.046875 -13.65625 L 7.96875 0 L 6.078125 0 L 0.03125 -13.65625 L 1.953125 -13.65625 L 7.0625 -2.03125 L 12.21875 -13.65625 Z M 14.046875 -13.65625 "/></g></g></g><g fill="#ffffff" fill-opacity="1"><g transform="translate(83.075, 299.757004)"><g><path d="M 7.34375 -13.75 C 9.125 -13.75 10.488281 -13.300781 11.4375 -12.40625 C 12.394531 -11.519531 12.875 -10.203125 12.875 -8.453125 L 12.875 0 L 11.109375 0 L 11.109375 -2.125 C 10.691406 -1.414062 10.082031 -0.863281 9.28125 -0.46875 C 8.476562 -0.0703125 7.519531 0.125 6.40625 0.125 C 4.882812 0.125 3.671875 -0.234375 2.765625 -0.953125 C 1.867188 -1.679688 1.421875 -2.644531 1.421875 -3.84375 C 1.421875 -5 1.835938 -5.929688 2.671875 -6.640625 C 3.515625 -7.347656 4.859375 -7.703125 6.703125 -7.703125 L 11.03125 -7.703125 L 11.03125 -8.53125 C 11.03125 -9.707031 10.703125 -10.601562 10.046875 -11.21875 C 9.390625 -11.832031 8.425781 -12.140625 7.15625 -12.140625 C 6.289062 -12.140625 5.460938 -12 4.671875 -11.71875 C 3.878906 -11.4375 3.195312 -11.039062 2.625 -10.53125 L 1.796875 -11.90625 C 2.484375 -12.5 3.3125 -12.953125 4.28125 -13.265625 C 5.25 -13.585938 6.269531 -13.75 7.34375 -13.75 Z M 6.703125 -1.328125 C 7.734375 -1.328125 8.617188 -1.5625 9.359375 -2.03125 C 10.109375 -2.507812 10.664062 -3.195312 11.03125 -4.09375 L 11.03125 -6.328125 L 6.75 -6.328125 C 4.414062 -6.328125 3.25 -5.515625 3.25 -3.890625 C 3.25 -3.097656 3.550781 -2.472656 4.15625 -2.015625 C 4.757812 -1.554688 5.609375 -1.328125 6.703125 -1.328125 Z M 6.703125 -1.328125 "/></g></g></g><g fill="#ffffff" fill-opacity="1"><g transform="translate(98.388682, 299.757004)"><g><path d="M 9.53125 -13.75 C 11.238281 -13.75 12.597656 -13.25 13.609375 -12.25 C 14.617188 -11.257812 15.125 -9.816406 15.125 -7.921875 L 15.125 0 L 13.28125 0 L 13.28125 -7.734375 C 13.28125 -9.148438 12.925781 -10.226562 12.21875 -10.96875 C 11.507812 -11.71875 10.5 -12.09375 9.1875 -12.09375 C 7.71875 -12.09375 6.550781 -11.65625 5.6875 -10.78125 C 4.832031 -9.90625 4.40625 -8.695312 4.40625 -7.15625 L 4.40625 0 L 2.5625 0 L 2.5625 -13.65625 L 4.328125 -13.65625 L 4.328125 -11.140625 C 4.835938 -11.960938 5.535156 -12.601562 6.421875 -13.0625 C 7.316406 -13.519531 8.351562 -13.75 9.53125 -13.75 Z M 9.53125 -13.75 "/></g></g></g><g fill="#ffffff" fill-opacity="1"><g transform="translate(116.012405, 299.757004)"><g><path d="M 15.03125 -19.25 L 15.03125 0 L 13.265625 0 L 13.265625 -2.703125 C 12.710938 -1.785156 11.976562 -1.082031 11.0625 -0.59375 C 10.15625 -0.113281 9.132812 0.125 8 0.125 C 6.71875 0.125 5.554688 -0.164062 4.515625 -0.75 C 3.472656 -1.34375 2.65625 -2.164062 2.0625 -3.21875 C 1.476562 -4.269531 1.1875 -5.472656 1.1875 -6.828125 C 1.1875 -8.171875 1.476562 -9.367188 2.0625 -10.421875 C 2.65625 -11.484375 3.472656 -12.300781 4.515625 -12.875 C 5.554688 -13.457031 6.71875 -13.75 8 -13.75 C 9.101562 -13.75 10.097656 -13.519531 10.984375 -13.0625 C 11.878906 -12.601562 12.613281 -11.9375 13.1875 -11.0625 L 13.1875 -19.25 Z M 8.15625 -1.5 C 9.101562 -1.5 9.960938 -1.71875 10.734375 -2.15625 C 11.503906 -2.601562 12.109375 -3.234375 12.546875 -4.046875 C 12.984375 -4.859375 13.203125 -5.785156 13.203125 -6.828125 C 13.203125 -7.867188 12.984375 -8.796875 12.546875 -9.609375 C 12.109375 -10.421875 11.503906 -11.046875 10.734375 -11.484375 C 9.960938 -11.921875 9.101562 -12.140625 8.15625 -12.140625 C 7.1875 -12.140625 6.316406 -11.921875 5.546875 -11.484375 C 4.773438 -11.046875 4.164062 -10.421875 3.71875 -9.609375 C 3.28125 -8.796875 3.0625 -7.867188 3.0625 -6.828125 C 3.0625 -5.785156 3.28125 -4.859375 3.71875 -4.046875 C 4.164062 -3.234375 4.773438 -2.601562 5.546875 -2.15625 C 6.316406 -1.71875 7.1875 -1.5 8.15625 -1.5 Z M 8.15625 -1.5 "/></g></g></g><g fill="#ffffff" fill-opacity="1"><g transform="translate(133.610166, 299.757004)"><g><path d="M 7.34375 -13.75 C 9.125 -13.75 10.488281 -13.300781 11.4375 -12.40625 C 12.394531 -11.519531 12.875 -10.203125 12.875 -8.453125 L 12.875 0 L 11.109375 0 L 11.109375 -2.125 C 10.691406 -1.414062 10.082031 -0.863281 9.28125 -0.46875 C 8.476562 -0.0703125 7.519531 0.125 6.40625 0.125 C 4.882812 0.125 3.671875 -0.234375 2.765625 -0.953125 C 1.867188 -1.679688 1.421875 -2.644531 1.421875 -3.84375 C 1.421875 -5 1.835938 -5.929688 2.671875 -6.640625 C 3.515625 -7.347656 4.859375 -7.703125 6.703125 -7.703125 L 11.03125 -7.703125 L 11.03125 -8.53125 C 11.03125 -9.707031 10.703125 -10.601562 10.046875 -11.21875 C 9.390625 -11.832031 8.425781 -12.140625 7.15625 -12.140625 C 6.289062 -12.140625 5.460938 -12 4.671875 -11.71875 C 3.878906 -11.4375 3.195312 -11.039062 2.625 -10.53125 L 1.796875 -11.90625 C 2.484375 -12.5 3.3125 -12.953125 4.28125 -13.265625 C 5.25 -13.585938 6.269531 -13.75 7.34375 -13.75 Z M 6.703125 -1.328125 C 7.734375 -1.328125 8.617188 -1.5625 9.359375 -2.03125 C 10.109375 -2.507812 10.664062 -3.195312 11.03125 -4.09375 L 11.03125 -6.328125 L 6.75 -6.328125 C 4.414062 -6.328125 3.25 -5.515625 3.25 -3.890625 C 3.25 -3.097656 3.550781 -2.472656 4.15625 -2.015625 C 4.757812 -1.554688 5.609375 -1.328125 6.703125 -1.328125 Z M 6.703125 -1.328125 "/></g></g></g><g fill="#ffffff" fill-opacity="1"><g transform="translate(148.923847, 299.757004)"><g><path d="M 7.34375 -13.75 C 9.125 -13.75 10.488281 -13.300781 11.4375 -12.40625 C 12.394531 -11.519531 12.875 -10.203125 12.875 -8.453125 L 12.875 0 L 11.109375 0 L 11.109375 -2.125 C 10.691406 -1.414062 10.082031 -0.863281 9.28125 -0.46875 C 8.476562 -0.0703125 7.519531 0.125 6.40625 0.125 C 4.882812 0.125 3.671875 -0.234375 2.765625 -0.953125 C 1.867188 -1.679688 1.421875 -2.644531 1.421875 -3.84375 C 1.421875 -5 1.835938 -5.929688 2.671875 -6.640625 C 3.515625 -7.347656 4.859375 -7.703125 6.703125 -7.703125 L 11.03125 -7.703125 L 11.03125 -8.53125 C 11.03125 -9.707031 10.703125 -10.601562 10.046875 -11.21875 C 9.390625 -11.832031 8.425781 -12.140625 7.15625 -12.140625 C 6.289062 -12.140625 5.460938 -12 4.671875 -11.71875 C 3.878906 -11.4375 3.195312 -11.039062 2.625 -10.53125 L 1.796875 -11.90625 C 2.484375 -12.5 3.3125 -12.953125 4.28125 -13.265625 C 5.25 -13.585938 6.269531 -13.75 7.34375 -13.75 Z M 6.703125 -1.328125 C 7.734375 -1.328125 8.617188 -1.5625 9.359375 -2.03125 C 10.109375 -2.507812 10.664062 -3.195312 11.03125 -4.09375 L 11.03125 -6.328125 L 6.75 -6.328125 C 4.414062 -6.328125 3.25 -5.515625 3.25 -3.890625 C 3.25 -3.097656 3.550781 -2.472656 4.15625 -2.015625 C 4.757812 -1.554688 5.609375 -1.328125 6.703125 -1.328125 Z M 6.703125 -1.328125 "/></g></g></g><g fill="#ffffff" fill-opacity="1"><g transform="translate(164.289444, 299.757004)"><g><path d="M 15.203125 -13.65625 L 15.203125 -1.65625 C 15.203125 0.65625 14.632812 2.367188 13.5 3.484375 C 12.375 4.609375 10.671875 5.171875 8.390625 5.171875 C 7.117188 5.171875 5.914062 4.984375 4.78125 4.609375 C 3.65625 4.234375 2.738281 3.71875 2.03125 3.0625 L 2.953125 1.65625 C 3.609375 2.25 4.410156 2.707031 5.359375 3.03125 C 6.304688 3.363281 7.296875 3.53125 8.328125 3.53125 C 10.054688 3.53125 11.328125 3.125 12.140625 2.3125 C 12.953125 1.507812 13.359375 0.265625 13.359375 -1.421875 L 13.359375 -3.171875 C 12.796875 -2.304688 12.050781 -1.644531 11.125 -1.1875 C 10.195312 -0.738281 9.171875 -0.515625 8.046875 -0.515625 C 6.765625 -0.515625 5.597656 -0.796875 4.546875 -1.359375 C 3.503906 -1.921875 2.679688 -2.707031 2.078125 -3.71875 C 1.484375 -4.738281 1.1875 -5.882812 1.1875 -7.15625 C 1.1875 -8.4375 1.484375 -9.578125 2.078125 -10.578125 C 2.679688 -11.585938 3.5 -12.367188 4.53125 -12.921875 C 5.570312 -13.472656 6.742188 -13.75 8.046875 -13.75 C 9.203125 -13.75 10.25 -13.515625 11.1875 -13.046875 C 12.125 -12.585938 12.875 -11.914062 13.4375 -11.03125 L 13.4375 -13.65625 Z M 8.234375 -2.15625 C 9.210938 -2.15625 10.097656 -2.363281 10.890625 -2.78125 C 11.691406 -3.207031 12.3125 -3.800781 12.75 -4.5625 C 13.195312 -5.320312 13.421875 -6.1875 13.421875 -7.15625 C 13.421875 -8.125 13.195312 -8.984375 12.75 -9.734375 C 12.3125 -10.492188 11.695312 -11.082031 10.90625 -11.5 C 10.125 -11.925781 9.234375 -12.140625 8.234375 -12.140625 C 7.242188 -12.140625 6.351562 -11.929688 5.5625 -11.515625 C 4.78125 -11.109375 4.164062 -10.519531 3.71875 -9.75 C 3.28125 -8.988281 3.0625 -8.125 3.0625 -7.15625 C 3.0625 -6.1875 3.28125 -5.320312 3.71875 -4.5625 C 4.164062 -3.800781 4.78125 -3.207031 5.5625 -2.78125 C 6.351562 -2.363281 7.242188 -2.15625 8.234375 -2.15625 Z M 8.234375 -2.15625 "/></g></g></g><g fill="#ffffff" fill-opacity="1"><g transform="translate(182.094849, 299.757004)"><g/></g></g><g fill="#ffffff" fill-opacity="1"><g transform="translate(188.895158, 299.757004)"><g><path d="M 15.203125 -13.65625 L 15.203125 -1.65625 C 15.203125 0.65625 14.632812 2.367188 13.5 3.484375 C 12.375 4.609375 10.671875 5.171875 8.390625 5.171875 C 7.117188 5.171875 5.914062 4.984375 4.78125 4.609375 C 3.65625 4.234375 2.738281 3.71875 2.03125 3.0625 L 2.953125 1.65625 C 3.609375 2.25 4.410156 2.707031 5.359375 3.03125 C 6.304688 3.363281 7.296875 3.53125 8.328125 3.53125 C 10.054688 3.53125 11.328125 3.125 12.140625 2.3125 C 12.953125 1.507812 13.359375 0.265625 13.359375 -1.421875 L 13.359375 -3.171875 C 12.796875 -2.304688 12.050781 -1.644531 11.125 -1.1875 C 10.195312 -0.738281 9.171875 -0.515625 8.046875 -0.515625 C 6.765625 -0.515625 5.597656 -0.796875 4.546875 -1.359375 C 3.503906 -1.921875 2.679688 -2.707031 2.078125 -3.71875 C 1.484375 -4.738281 1.1875 -5.882812 1.1875 -7.15625 C 1.1875 -8.4375 1.484375 -9.578125 2.078125 -10.578125 C 2.679688 -11.585938 3.5 -12.367188 4.53125 -12.921875 C 5.570312 -13.472656 6.742188 -13.75 8.046875 -13.75 C 9.203125 -13.75 10.25 -13.515625 11.1875 -13.046875 C 12.125 -12.585938 12.875 -11.914062 13.4375 -11.03125 L 13.4375 -13.65625 Z M 8.234375 -2.15625 C 9.210938 -2.15625 10.097656 -2.363281 10.890625 -2.78125 C 11.691406 -3.207031 12.3125 -3.800781 12.75 -4.5625 C 13.195312 -5.320312 13.421875 -6.1875 13.421875 -7.15625 C 13.421875 -8.125 13.195312 -8.984375 12.75 -9.734375 C 12.3125 -10.492188 11.695312 -11.082031 10.90625 -11.5 C 10.125 -11.925781 9.234375 -12.140625 8.234375 -12.140625 C 7.242188 -12.140625 6.351562 -11.929688 5.5625 -11.515625 C 4.78125 -11.109375 4.164062 -10.519531 3.71875 -9.75 C 3.28125 -8.988281 3.0625 -8.125 3.0625 -7.15625 C 3.0625 -6.1875 3.28125 -5.320312 3.71875 -4.5625 C 4.164062 -3.800781 4.78125 -3.207031 5.5625 -2.78125 C 6.351562 -2.363281 7.242188 -2.15625 8.234375 -2.15625 Z M 8.234375 -2.15625 "/></g></g></g><g fill="#ffffff" fill-opacity="1"><g transform="translate(206.700563, 299.757004)"><g><path d="M 7.34375 -13.75 C 9.125 -13.75 10.488281 -13.300781 11.4375 -12.40625 C 12.394531 -11.519531 12.875 -10.203125 12.875 -8.453125 L 12.875 0 L 11.109375 0 L 11.109375 -2.125 C 10.691406 -1.414062 10.082031 -0.863281 9.28125 -0.46875 C 8.476562 -0.0703125 7.519531 0.125 6.40625 0.125 C 4.882812 0.125 3.671875 -0.234375 2.765625 -0.953125 C 1.867188 -1.679688 1.421875 -2.644531 1.421875 -3.84375 C 1.421875 -5 1.835938 -5.929688 2.671875 -6.640625 C 3.515625 -7.347656 4.859375 -7.703125 6.703125 -7.703125 L 11.03125 -7.703125 L 11.03125 -8.53125 C 11.03125 -9.707031 10.703125 -10.601562 10.046875 -11.21875 C 9.390625 -11.832031 8.425781 -12.140625 7.15625 -12.140625 C 6.289062 -12.140625 5.460938 -12 4.671875 -11.71875 C 3.878906 -11.4375 3.195312 -11.039062 2.625 -10.53125 L 1.796875 -11.90625 C 2.484375 -12.5 3.3125 -12.953125 4.28125 -13.265625 C 5.25 -13.585938 6.269531 -13.75 7.34375 -13.75 Z M 6.703125 -1.328125 C 7.734375 -1.328125 8.617188 -1.5625 9.359375 -2.03125 C 10.109375 -2.507812 10.664062 -3.195312 11.03125 -4.09375 L 11.03125 -6.328125 L 6.75 -6.328125 C 4.414062 -6.328125 3.25 -5.515625 3.25 -3.890625 C 3.25 -3.097656 3.550781 -2.472656 4.15625 -2.015625 C 4.757812 -1.554688 5.609375 -1.328125 6.703125 -1.328125 Z M 6.703125 -1.328125 "/></g></g></g><g fill="#ffffff" fill-opacity="1"><g transform="translate(222.014244, 299.757004)"><g><path d="M 7.34375 -13.75 C 9.125 -13.75 10.488281 -13.300781 11.4375 -12.40625 C 12.394531 -11.519531 12.875 -10.203125 12.875 -8.453125 L 12.875 0 L 11.109375 0 L 11.109375 -2.125 C 10.691406 -1.414062 10.082031 -0.863281 9.28125 -0.46875 C 8.476562 -0.0703125 7.519531 0.125 6.40625 0.125 C 4.882812 0.125 3.671875 -0.234375 2.765625 -0.953125 C 1.867188 -1.679688 1.421875 -2.644531 1.421875 -3.84375 C 1.421875 -5 1.835938 -5.929688 2.671875 -6.640625 C 3.515625 -7.347656 4.859375 -7.703125 6.703125 -7.703125 L 11.03125 -7.703125 L 11.03125 -8.53125 C 11.03125 -9.707031 10.703125 -10.601562 10.046875 -11.21875 C 9.390625 -11.832031 8.425781 -12.140625 7.15625 -12.140625 C 6.289062 -12.140625 5.460938 -12 4.671875 -11.71875 C 3.878906 -11.4375 3.195312 -11.039062 2.625 -10.53125 L 1.796875 -11.90625 C 2.484375 -12.5 3.3125 -12.953125 4.28125 -13.265625 C 5.25 -13.585938 6.269531 -13.75 7.34375 -13.75 Z M 6.703125 -1.328125 C 7.734375 -1.328125 8.617188 -1.5625 9.359375 -2.03125 C 10.109375 -2.507812 10.664062 -3.195312 11.03125 -4.09375 L 11.03125 -6.328125 L 6.75 -6.328125 C 4.414062 -6.328125 3.25 -5.515625 3.25 -3.890625 C 3.25 -3.097656 3.550781 -2.472656 4.15625 -2.015625 C 4.757812 -1.554688 5.609375 -1.328125 6.703125 -1.328125 Z M 6.703125 -1.328125 "/></g></g></g><g fill="#ffffff" fill-opacity="1"><g transform="translate(237.327914, 299.757004)"><g><path d="M 9.765625 -0.828125 C 9.410156 -0.515625 8.976562 -0.273438 8.46875 -0.109375 C 7.957031 0.046875 7.425781 0.125 6.875 0.125 C 5.59375 0.125 4.601562 -0.21875 3.90625 -0.90625 C 3.21875 -1.601562 2.875 -2.582031 2.875 -3.84375 L 2.875 -12.09375 L 0.4375 -12.09375 L 0.4375 -13.65625 L 2.875 -13.65625 L 2.875 -16.640625 L 4.71875 -16.640625 L 4.71875 -13.65625 L 8.875 -13.65625 L 8.875 -12.09375 L 4.71875 -12.09375 L 4.71875 -3.9375 C 4.71875 -3.125 4.921875 -2.503906 5.328125 -2.078125 C 5.734375 -1.660156 6.316406 -1.453125 7.078125 -1.453125 C 7.460938 -1.453125 7.832031 -1.507812 8.1875 -1.625 C 8.539062 -1.75 8.847656 -1.925781 9.109375 -2.15625 Z M 9.765625 -0.828125 "/></g></g></g><g fill="#ffffff" fill-opacity="1"><g transform="translate(78.419019, 335.70601)"><g><path d="M 15.203125 -13.65625 L 15.203125 -1.65625 C 15.203125 0.65625 14.632812 2.367188 13.5 3.484375 C 12.375 4.609375 10.671875 5.171875 8.390625 5.171875 C 7.117188 5.171875 5.914062 4.984375 4.78125 4.609375 C 3.65625 4.234375 2.738281 3.71875 2.03125 3.0625 L 2.953125 1.65625 C 3.609375 2.25 4.410156 2.707031 5.359375 3.03125 C 6.304688 3.363281 7.296875 3.53125 8.328125 3.53125 C 10.054688 3.53125 11.328125 3.125 12.140625 2.3125 C 12.953125 1.507812 13.359375 0.265625 13.359375 -1.421875 L 13.359375 -3.171875 C 12.796875 -2.304688 12.050781 -1.644531 11.125 -1.1875 C 10.195312 -0.738281 9.171875 -0.515625 8.046875 -0.515625 C 6.765625 -0.515625 5.597656 -0.796875 4.546875 -1.359375 C 3.503906 -1.921875 2.679688 -2.707031 2.078125 -3.71875 C 1.484375 -4.738281 1.1875 -5.882812 1.1875 -7.15625 C 1.1875 -8.4375 1.484375 -9.578125 2.078125 -10.578125 C 2.679688 -11.585938 3.5 -12.367188 4.53125 -12.921875 C 5.570312 -13.472656 6.742188 -13.75 8.046875 -13.75 C 9.203125 -13.75 10.25 -13.515625 11.1875 -13.046875 C 12.125 -12.585938 12.875 -11.914062 13.4375 -11.03125 L 13.4375 -13.65625 Z M 8.234375 -2.15625 C 9.210938 -2.15625 10.097656 -2.363281 10.890625 -2.78125 C 11.691406 -3.207031 12.3125 -3.800781 12.75 -4.5625 C 13.195312 -5.320312 13.421875 -6.1875 13.421875 -7.15625 C 13.421875 -8.125 13.195312 -8.984375 12.75 -9.734375 C 12.3125 -10.492188 11.695312 -11.082031 10.90625 -11.5 C 10.125 -11.925781 9.234375 -12.140625 8.234375 -12.140625 C 7.242188 -12.140625 6.351562 -11.929688 5.5625 -11.515625 C 4.78125 -11.109375 4.164062 -10.519531 3.71875 -9.75 C 3.28125 -8.988281 3.0625 -8.125 3.0625 -7.15625 C 3.0625 -6.1875 3.28125 -5.320312 3.71875 -4.5625 C 4.164062 -3.800781 4.78125 -3.207031 5.5625 -2.78125 C 6.351562 -2.363281 7.242188 -2.15625 8.234375 -2.15625 Z M 8.234375 -2.15625 "/></g></g></g><g fill="#ffffff" fill-opacity="1"><g transform="translate(96.224423, 335.70601)"><g><path d="M 14.453125 -6.25 L 3.03125 -6.25 C 3.132812 -4.832031 3.679688 -3.6875 4.671875 -2.8125 C 5.660156 -1.9375 6.90625 -1.5 8.40625 -1.5 C 9.257812 -1.5 10.039062 -1.648438 10.75 -1.953125 C 11.457031 -2.253906 12.070312 -2.703125 12.59375 -3.296875 L 13.625 -2.109375 C 13.019531 -1.378906 12.257812 -0.820312 11.34375 -0.4375 C 10.4375 -0.0625 9.441406 0.125 8.359375 0.125 C 6.953125 0.125 5.707031 -0.171875 4.625 -0.765625 C 3.550781 -1.359375 2.707031 -2.179688 2.09375 -3.234375 C 1.488281 -4.296875 1.1875 -5.492188 1.1875 -6.828125 C 1.1875 -8.160156 1.476562 -9.351562 2.0625 -10.40625 C 2.644531 -11.457031 3.441406 -12.273438 4.453125 -12.859375 C 5.460938 -13.453125 6.597656 -13.75 7.859375 -13.75 C 9.128906 -13.75 10.265625 -13.453125 11.265625 -12.859375 C 12.265625 -12.273438 13.050781 -11.457031 13.625 -10.40625 C 14.195312 -9.363281 14.484375 -8.171875 14.484375 -6.828125 Z M 7.859375 -12.171875 C 6.546875 -12.171875 5.441406 -11.75 4.546875 -10.90625 C 3.660156 -10.070312 3.15625 -8.976562 3.03125 -7.625 L 12.71875 -7.625 C 12.59375 -8.976562 12.082031 -10.070312 11.1875 -10.90625 C 10.300781 -11.75 9.191406 -12.171875 7.859375 -12.171875 Z M 7.859375 -12.171875 "/></g></g></g><g fill="#ffffff" fill-opacity="1"><g transform="translate(111.901488, 335.70601)"><g><path d="M 9.609375 -13.75 C 10.878906 -13.75 12.035156 -13.457031 13.078125 -12.875 C 14.117188 -12.300781 14.929688 -11.484375 15.515625 -10.421875 C 16.109375 -9.367188 16.40625 -8.171875 16.40625 -6.828125 C 16.40625 -5.472656 16.109375 -4.269531 15.515625 -3.21875 C 14.929688 -2.164062 14.117188 -1.34375 13.078125 -0.75 C 12.035156 -0.164062 10.878906 0.125 9.609375 0.125 C 8.460938 0.125 7.4375 -0.113281 6.53125 -0.59375 C 5.625 -1.082031 4.890625 -1.785156 4.328125 -2.703125 L 4.328125 0 L 2.5625 0 L 2.5625 -19.25 L 4.40625 -19.25 L 4.40625 -11.0625 C 4.976562 -11.9375 5.707031 -12.601562 6.59375 -13.0625 C 7.488281 -13.519531 8.492188 -13.75 9.609375 -13.75 Z M 9.46875 -1.5 C 10.425781 -1.5 11.289062 -1.71875 12.0625 -2.15625 C 12.84375 -2.601562 13.453125 -3.234375 13.890625 -4.046875 C 14.335938 -4.859375 14.5625 -5.785156 14.5625 -6.828125 C 14.5625 -7.867188 14.335938 -8.796875 13.890625 -9.609375 C 13.453125 -10.421875 12.84375 -11.046875 12.0625 -11.484375 C 11.289062 -11.921875 10.425781 -12.140625 9.46875 -12.140625 C 8.5 -12.140625 7.628906 -11.921875 6.859375 -11.484375 C 6.085938 -11.046875 5.484375 -10.421875 5.046875 -9.609375 C 4.609375 -8.796875 4.390625 -7.867188 4.390625 -6.828125 C 4.390625 -5.785156 4.609375 -4.859375 5.046875 -4.046875 C 5.484375 -3.234375 6.085938 -2.601562 6.859375 -2.15625 C 7.628906 -1.71875 8.5 -1.5 9.46875 -1.5 Z M 9.46875 -1.5 "/></g></g></g><g fill="#ffffff" fill-opacity="1"><g transform="translate(129.499249, 335.70601)"><g><path d="M 14.453125 -6.25 L 3.03125 -6.25 C 3.132812 -4.832031 3.679688 -3.6875 4.671875 -2.8125 C 5.660156 -1.9375 6.90625 -1.5 8.40625 -1.5 C 9.257812 -1.5 10.039062 -1.648438 10.75 -1.953125 C 11.457031 -2.253906 12.070312 -2.703125 12.59375 -3.296875 L 13.625 -2.109375 C 13.019531 -1.378906 12.257812 -0.820312 11.34375 -0.4375 C 10.4375 -0.0625 9.441406 0.125 8.359375 0.125 C 6.953125 0.125 5.707031 -0.171875 4.625 -0.765625 C 3.550781 -1.359375 2.707031 -2.179688 2.09375 -3.234375 C 1.488281 -4.296875 1.1875 -5.492188 1.1875 -6.828125 C 1.1875 -8.160156 1.476562 -9.351562 2.0625 -10.40625 C 2.644531 -11.457031 3.441406 -12.273438 4.453125 -12.859375 C 5.460938 -13.453125 6.597656 -13.75 7.859375 -13.75 C 9.128906 -13.75 10.265625 -13.453125 11.265625 -12.859375 C 12.265625 -12.273438 13.050781 -11.457031 13.625 -10.40625 C 14.195312 -9.363281 14.484375 -8.171875 14.484375 -6.828125 Z M 7.859375 -12.171875 C 6.546875 -12.171875 5.441406 -11.75 4.546875 -10.90625 C 3.660156 -10.070312 3.15625 -8.976562 3.03125 -7.625 L 12.71875 -7.625 C 12.59375 -8.976562 12.082031 -10.070312 11.1875 -10.90625 C 10.300781 -11.75 9.191406 -12.171875 7.859375 -12.171875 Z M 7.859375 -12.171875 "/></g></g></g><g fill="#ffffff" fill-opacity="1"><g transform="translate(145.176314, 335.70601)"><g><path d="M 14.875 -13.65625 L 14.875 0 L 13.109375 0 L 13.109375 -2.484375 C 12.617188 -1.660156 11.953125 -1.019531 11.109375 -0.5625 C 10.265625 -0.101562 9.296875 0.125 8.203125 0.125 C 6.421875 0.125 5.015625 -0.367188 3.984375 -1.359375 C 2.953125 -2.359375 2.4375 -3.816406 2.4375 -5.734375 L 2.4375 -13.65625 L 4.28125 -13.65625 L 4.28125 -5.921875 C 4.28125 -4.484375 4.632812 -3.390625 5.34375 -2.640625 C 6.050781 -1.898438 7.066406 -1.53125 8.390625 -1.53125 C 9.816406 -1.53125 10.945312 -1.96875 11.78125 -2.84375 C 12.613281 -3.71875 13.03125 -4.929688 13.03125 -6.484375 L 13.03125 -13.65625 Z M 14.875 -13.65625 "/></g></g></g><g fill="#ffffff" fill-opacity="1"><g transform="translate(162.644299, 335.70601)"><g><path d="M 4.328125 -10.984375 C 4.765625 -11.898438 5.410156 -12.585938 6.265625 -13.046875 C 7.117188 -13.515625 8.179688 -13.75 9.453125 -13.75 L 9.453125 -11.96875 L 9 -11.984375 C 7.570312 -11.984375 6.445312 -11.539062 5.625 -10.65625 C 4.8125 -9.78125 4.40625 -8.546875 4.40625 -6.953125 L 4.40625 0 L 2.5625 0 L 2.5625 -13.65625 L 4.328125 -13.65625 Z M 4.328125 -10.984375 "/></g></g></g><g fill="#ffffff" fill-opacity="1"><g transform="translate(172.714959, 335.70601)"><g><path d="M 14.453125 -6.25 L 3.03125 -6.25 C 3.132812 -4.832031 3.679688 -3.6875 4.671875 -2.8125 C 5.660156 -1.9375 6.90625 -1.5 8.40625 -1.5 C 9.257812 -1.5 10.039062 -1.648438 10.75 -1.953125 C 11.457031 -2.253906 12.070312 -2.703125 12.59375 -3.296875 L 13.625 -2.109375 C 13.019531 -1.378906 12.257812 -0.820312 11.34375 -0.4375 C 10.4375 -0.0625 9.441406 0.125 8.359375 0.125 C 6.953125 0.125 5.707031 -0.171875 4.625 -0.765625 C 3.550781 -1.359375 2.707031 -2.179688 2.09375 -3.234375 C 1.488281 -4.296875 1.1875 -5.492188 1.1875 -6.828125 C 1.1875 -8.160156 1.476562 -9.351562 2.0625 -10.40625 C 2.644531 -11.457031 3.441406 -12.273438 4.453125 -12.859375 C 5.460938 -13.453125 6.597656 -13.75 7.859375 -13.75 C 9.128906 -13.75 10.265625 -13.453125 11.265625 -12.859375 C 12.265625 -12.273438 13.050781 -11.457031 13.625 -10.40625 C 14.195312 -9.363281 14.484375 -8.171875 14.484375 -6.828125 Z M 7.859375 -12.171875 C 6.546875 -12.171875 5.441406 -11.75 4.546875 -10.90625 C 3.660156 -10.070312 3.15625 -8.976562 3.03125 -7.625 L 12.71875 -7.625 C 12.59375 -8.976562 12.082031 -10.070312 11.1875 -10.90625 C 10.300781 -11.75 9.191406 -12.171875 7.859375 -12.171875 Z M 7.859375 -12.171875 "/></g></g></g><g fill="#ffffff" fill-opacity="1"><g transform="translate(188.392024, 335.70601)"><g><path d="M 9.53125 -13.75 C 11.238281 -13.75 12.597656 -13.25 13.609375 -12.25 C 14.617188 -11.257812 15.125 -9.816406 15.125 -7.921875 L 15.125 0 L 13.28125 0 L 13.28125 -7.734375 C 13.28125 -9.148438 12.925781 -10.226562 12.21875 -10.96875 C 11.507812 -11.71875 10.5 -12.09375 9.1875 -12.09375 C 7.71875 -12.09375 6.550781 -11.65625 5.6875 -10.78125 C 4.832031 -9.90625 4.40625 -8.695312 4.40625 -7.15625 L 4.40625 0 L 2.5625 0 L 2.5625 -13.65625 L 4.328125 -13.65625 L 4.328125 -11.140625 C 4.835938 -11.960938 5.535156 -12.601562 6.421875 -13.0625 C 7.316406 -13.519531 8.351562 -13.75 9.53125 -13.75 Z M 9.53125 -13.75 "/></g></g></g></svg>